<?xml version="1.0" standalone="no"?>
<!DOCTYPE svg PUBLIC "-//W3C//DTD SVG 1.1//EN" "http://www.w3.org/Graphics/SVG/1.1/DTD/svg11.dtd" >
<svg xmlns="http://www.w3.org/2000/svg" xmlns:xlink="http://www.w3.org/1999/xlink" version="1.1">
<metadata>
Created by FontForge 20161003 at Sun Sep 22 16:52:08 2019
 By www-data
Copyright 2000-2003, The Font Bureau, Inc. Designed by Cyrus Highsmith, Tobias Frere-Jones, and Font Bureau. All rights reserved.
</metadata>
<defs>
<font id="BentonSansExtraCompBlack" horiz-adv-x="355" >
  <font-face 
    font-family="BentonSansExtraCompBlack"
    font-weight="400"
    font-stretch="normal"
    units-per-em="1000"
    panose-1="2 0 5 6 4 0 0 2 0 4"
    ascent="800"
    descent="-200"
    x-height="535"
    cap-height="740"
    bbox="-50 -212 982 946"
    underline-thickness="20"
    underline-position="-153"
    unicode-range="U+0020-FB0C"
  />
<missing-glyph horiz-adv-x="780" 
d="M187 573v53l136 -9l-7 123h150l-8 -123l136 9v-53h52l-9 -136l123 7v-150l-123 8l9 -136h-52v-51l-136 8l8 -123h-150l7 123l-136 -8v51h-53l9 136l-123 -8v150l123 -7l-9 136h53zM530 510l-72 4v-77h76zM323 437v77l-73 -4l-4 -73h77zM458 302v-76l72 5l4 71h-76z
M250 231l73 -5v76h-77z" />
    <glyph glyph-name="ff" unicode="ff" horiz-adv-x="425" 
d="M41 0v422h-41v113h41v59q0 72 37 109t144 37h3v-124h-6q-18 0 -25 -8t-7 -30v-43h42v59q0 72 37 109t144 37h15v-124h-18q-19 0 -25.5 -8t-6.5 -30v-43h50v-113h-50v-422h-146v422h-42v-422h-146z" />
    <glyph glyph-name="fi" unicode="fi" horiz-adv-x="398" 
d="M228 422h-41v-422h-146v422h-41v113h41v59q0 35 6.5 59t25 45t55.5 31.5t94 10.5h63v-124h-66q-18 0 -25 -8t-7 -30v-43h188v-535h-147v422z" />
    <glyph glyph-name="ffi" unicode="ffi" horiz-adv-x="586" 
d="M229 422h-42v-422h-146v422h-41v113h41v59q0 72 37 109t144 37h3v-124h-6q-18 0 -25 -8t-7 -30v-43h42v59q0 35 6.5 59t25 45t55.5 31.5t94 10.5h63v-124h-66q-32 0 -32 -38v-43h188v-535h-147v422h-41v-422h-146v422z" />
    <glyph glyph-name="ffl" unicode="ffl" horiz-adv-x="586" 
d="M229 422h-42v-422h-146v422h-41v113h41v59q0 72 37 109t144 37h3v-124h-6q-18 0 -25 -8t-7 -30v-43h42v59q0 35 6.5 59t25 45t55.5 31.5t94 10.5h153v-740h-147v422h-41v-422h-146v422zM416 622h-9q-18 0 -25 -10t-7 -34v-43h41v87z" />
    <glyph glyph-name="fj" unicode="fj" horiz-adv-x="398" 
d="M228 422h-41v-422h-146v422h-41v113h41v59q0 35 6.5 59t25 45t55.5 31.5t94 10.5h63v-124h-66q-18 0 -25 -8t-7 -30v-43h188v-566q0 -92 -34.5 -130.5t-114.5 -38.5h-39v122h15q26 0 26 30v470z" />
    <glyph glyph-name=".notdef" horiz-adv-x="780" 
d="M187 573v53l136 -9l-7 123h150l-8 -123l136 9v-53h52l-9 -136l123 7v-150l-123 8l9 -136h-52v-51l-136 8l8 -123h-150l7 123l-136 -8v51h-53l9 136l-123 -8v150l123 -7l-9 136h53zM530 510l-72 4v-77h76zM323 437v77l-73 -4l-4 -73h77zM458 302v-76l72 5l4 71h-76z
M250 231l73 -5v76h-77z" />
    <glyph glyph-name=".null" horiz-adv-x="0" 
 />
    <glyph glyph-name="nonmarkingreturn" horiz-adv-x="333" 
 />
    <glyph glyph-name="space" unicode=" " horiz-adv-x="138" 
 />
    <glyph glyph-name="exclam" unicode="!" horiz-adv-x="237" 
d="M47 194l-10 546h163l-10 -546h-143zM35 0v150h167v-150h-167z" />
    <glyph glyph-name="quotedbl" unicode="&#x22;" horiz-adv-x="361" 
d="M205 463l-9 226v51h148v-51l-9 -226h-130zM27 463l-10 226v51h149v-51l-9 -226h-130z" />
    <glyph glyph-name="numbersign" unicode="#" horiz-adv-x="450" 
d="M29 0l23 204h-52v123h67l10 86h-53v123h68l23 204h133l-23 -204h40l23 204h133l-23 -204h52v-123h-67l-10 -86h53v-123h-68l-22 -204h-134l23 204h-39l-23 -204h-134zM196 318h47l12 104h-48z" />
    <glyph glyph-name="dollar" unicode="$" horiz-adv-x="391" 
d="M136 732v87h128v-90q104 -38 110 -223l-142 -12q-1 51 -6.5 77t-12 32t-18.5 6q-21 0 -21 -36q0 -62 75 -144q3 -3 26 -27.5t28.5 -31.5t23.5 -29t24.5 -35t16.5 -34t13.5 -41.5t3.5 -43.5q0 -149 -121 -179v-101h-128v102q-38 11 -64 36.5t-39 61.5t-19 70t-8 78l143 10
q4 -81 16.5 -110t33.5 -29q29 0 29 31q0 24 -14 51t-28.5 45t-44.5 50q-39 43 -60 69t-42.5 75t-21.5 99q0 72 30 121t89 65z" />
    <glyph glyph-name="percent" unicode="%" horiz-adv-x="703" 
d="M158 312q-142 0 -142 215q0 220 143 220q142 0 142 -216q0 -219 -143 -219zM173 0l243 740h113l-243 -740h-113zM544 -7q-142 0 -142 215q0 220 143 220q142 0 142 -216q0 -219 -143 -219zM159 413q10 0 13 20.5t3 95.5q0 73 -3 92.5t-14 19.5t-13.5 -18t-2.5 -92
q0 -76 3 -97t14 -21zM545 94q10 0 13 20.5t3 95.5q0 41 -0.5 62.5t-3 33t-5 14t-8.5 2.5q-11 0 -13.5 -18t-2.5 -92q0 -41 0.5 -63.5t2.5 -35.5t5 -16t9 -3z" />
    <glyph glyph-name="ampersand" unicode="&#x26;" horiz-adv-x="469" 
d="M194 -7q-92 0 -143 48.5t-51 133.5q0 124 104 216q-43 99 -43 173q0 52 17 90t44 57.5t54 28t55 8.5q151 0 151 -157q0 -70 -35 -122t-93 -98q9 -18 15 -28q24 -43 52 -78q9 48 14 129h123q-10 -137 -40 -226q28 -21 47 -28v-143q-59 6 -122 49q-58 -53 -149 -53z
M213 469q43 53 43 111q0 43 -27 43q-33 0 -33 -53q0 -48 17 -101zM211 113q23 0 44 13q-40 45 -77 107q-14 23 -17 32q-15 -35 -15 -80q0 -28 15.5 -50t49.5 -22z" />
    <glyph glyph-name="quotesingle" unicode="'" horiz-adv-x="188" 
d="M27 463l-10 226v51h154v-51l-9 -226h-135z" />
    <glyph glyph-name="parenleft" unicode="(" horiz-adv-x="285" 
d="M163 -205q-136 209 -136 495t136 495l114 -35q-93 -214 -93 -460q0 -266 93 -460z" />
    <glyph glyph-name="parenright" unicode=")" horiz-adv-x="285" 
d="M122 -205l-114 35q93 214 93 460q0 266 -93 460l114 35q136 -209 136 -495t-136 -495z" />
    <glyph glyph-name="asterisk" unicode="*" horiz-adv-x="499" 
d="M206 312l-122 71l98 106l-147 -32v141l156 -36l-112 114l127 71l44 -143l46 143l127 -70l-106 -112l147 33v-141l-144 32l102 -106l-124 -71l-48 139z" />
    <glyph glyph-name="plus" unicode="+" horiz-adv-x="417" 
d="M136 122v165h-116v134h116v165h145v-165h116v-134h-116v-165h-145z" />
    <glyph glyph-name="comma" unicode="," horiz-adv-x="215" 
d="M58 -127l39 127h-73v170h167v-164l-71 -133h-62z" />
    <glyph glyph-name="hyphen" unicode="-" horiz-adv-x="259" 
d="M15 240v128h229v-128h-229z" />
    <glyph glyph-name="period" unicode="." horiz-adv-x="215" 
d="M24 0v170h167v-170h-167z" />
    <glyph glyph-name="slash" unicode="/" horiz-adv-x="336" 
d="M-17 0l236 740h134l-237 -740h-133z" />
    <glyph glyph-name="zero" unicode="0" horiz-adv-x="401" 
d="M201 -7q-67 0 -106.5 30t-61.5 114t-22 233t22 233t61.5 114t106.5 30t106 -30t61 -113.5t22 -233.5t-22 -233.5t-61 -113.5t-106 -30zM201 122q22 0 27 41.5t5 206.5q0 164 -4.5 203.5t-27.5 39.5t-28 -40.5t-5 -202.5q0 -163 5 -205.5t28 -42.5z" />
    <glyph glyph-name="one" unicode="1" horiz-adv-x="314" 
d="M10 0v131h78v462q-36 -34 -77 -34v133q53 3 79 48h155v-609h63v-131h-298z" />
    <glyph glyph-name="two" unicode="2" horiz-adv-x="396" 
d="M10 0v16q0 74 12 134t31 99t42 71.5t45.5 58.5t41.5 51.5t31 59.5t12 75q0 48 -24 48q-10 0 -16 -7t-12 -37t-10 -87l-145 9q4 60 13 102t28.5 79t55.5 56t88 19q174 0 174 -185q0 -54 -21 -107.5t-51.5 -95.5t-61 -80.5t-52 -77t-22.5 -70.5h210v-131h-369z" />
    <glyph glyph-name="three" unicode="3" horiz-adv-x="392" 
d="M193 -7q-26 0 -47.5 4.5t-37 10.5t-28.5 19.5t-21.5 23t-16 30t-11 31.5t-7 36t-4.5 35t-4 37l144 13q4 -51 9 -76.5t10.5 -32.5t16.5 -7q31 0 31 85q0 62 -10 91t-29 36.5t-62 7.5h-14v114h18q61 0 75 17.5t14 96.5q0 30 -5 41.5t-19 11.5q-13 0 -20 -20t-11 -78
l-142 15q20 212 179 212q93 0 129.5 -49t36.5 -135q0 -146 -98 -169q58 -17 82 -59.5t24 -130.5q0 -211 -182 -211z" />
    <glyph glyph-name="four" unicode="4" horiz-adv-x="412" 
d="M194 0v150h-189v115l175 475h168v-465h49v-125h-49v-150h-154zM137 275h67v197h-1z" />
    <glyph glyph-name="five" unicode="5" horiz-adv-x="401" 
d="M189 -7q-32 0 -57 7.5t-42 17.5t-29.5 30.5t-19.5 35t-12.5 44t-7.5 44.5t-5 48l144 13q6 -73 13 -94.5t22 -21.5q19 0 25.5 26t6.5 105q0 49 -3 75.5t-8.5 35t-15.5 8.5q-22 0 -39 -53l-134 9l15 417h318l-8 -136h-174l-8 -165q25 62 96 62q58 0 86.5 -57.5t28.5 -192.5
q0 -140 -43.5 -199t-148.5 -59z" />
    <glyph glyph-name="six" unicode="6" horiz-adv-x="388" 
d="M196 -7q-98 0 -141.5 85.5t-43.5 278.5q0 72 3.5 124t15.5 105t33 86.5t56.5 54t84.5 20.5q69 0 105.5 -38t55.5 -145l-129 -25q-6 41 -12 56t-22 15q-25 0 -31 -33.5t-8 -141.5q34 47 88 47q38 0 64.5 -20.5t39.5 -58.5t18 -79t5 -94q0 -108 -44.5 -172.5t-137.5 -64.5z
M201 112q17 0 23.5 23t6.5 85q0 60 -7 84t-23 24q-21 0 -38 -16q1 -117 9 -158.5t29 -41.5z" />
    <glyph glyph-name="seven" unicode="7" horiz-adv-x="343" 
d="M31 0l147 604h-178v136h335v-133l-145 -607h-159z" />
    <glyph glyph-name="eight" unicode="8" horiz-adv-x="402" 
d="M201 -12q-100 0 -145.5 53.5t-45.5 134.5q0 104 97 203q-3 3 -8 9q-23 26 -35 43t-24.5 54t-12.5 83q0 84 47 134t127 50q83 0 128.5 -50t45.5 -134q0 -98 -82 -186q33 -31 50 -51t33 -61.5t16 -93.5q0 -82 -50.5 -135t-140.5 -53zM206 474q28 46 28 95q0 54 -29 54
q-30 0 -30 -51q0 -54 31 -98zM198 112q37 0 37 61q0 54 -36 110q-38 -52 -38 -110q0 -61 37 -61z" />
    <glyph glyph-name="nine" unicode="9" horiz-adv-x="388" 
d="M189 -7q-70 0 -109.5 39t-54.5 143l129 25q8 -85 35 -85q22 0 28 39t8 151q-34 -47 -88 -47q-38 0 -64.5 20.5t-39.5 58.5t-18 79t-5 94q0 108 44.5 172.5t137.5 64.5q98 0 141.5 -85.5t43.5 -278.5q0 -71 -3.5 -123.5t-15.5 -105.5t-32 -86.5t-54.5 -54t-82.5 -20.5z
M187 403q22 0 38 18q-1 117 -8.5 154.5t-29.5 37.5q-17 0 -23.5 -17t-6.5 -76q0 -68 5.5 -92.5t24.5 -24.5z" />
    <glyph glyph-name="colon" unicode=":" horiz-adv-x="215" 
d="M26 367v168h163v-168h-163zM26 0v168h163v-168h-163z" />
    <glyph glyph-name="semicolon" unicode=";" horiz-adv-x="215" 
d="M26 367v168h163v-168h-163zM58 -127l39 127h-71v168h163v-162l-69 -133h-62z" />
    <glyph glyph-name="less" unicode="&#x3c;" horiz-adv-x="417" 
d="M356 72l-296 190v125l296 190v-147l-167 -106l167 -105v-147z" />
    <glyph glyph-name="equal" unicode="=" horiz-adv-x="417" 
d="M25 355v126h367v-126h-367zM25 167v126h367v-126h-367z" />
    <glyph glyph-name="greater" unicode="&#x3e;" horiz-adv-x="417" 
d="M61 72v147l167 106l-167 105v147l296 -190v-125z" />
    <glyph glyph-name="question" unicode="?" horiz-adv-x="339" 
d="M83 194q0 61 10.5 107.5t19 63t29.5 50.5q15 25 23 40.5t15 45.5t7 67q0 44 -18 44q-15 0 -22 -22t-10 -83l-147 13q9 123 55 175t134 52q79 0 120 -46t41 -118q0 -39 -8 -73.5t-16 -51.5t-26.5 -48t-24.5 -43q-41 -73 -41 -173h-141zM70 0v150h167v-150h-167z" />
    <glyph glyph-name="at" unicode="@" horiz-adv-x="562" 
d="M281 -14q-137 0 -201.5 93t-64.5 291q0 192 71.5 288t194.5 96q121 0 193.5 -97.5t72.5 -276.5q0 -120 -34 -171.5t-114 -51.5q-84 0 -104 71q-23 -71 -79 -71q-100 0 -86 212q8 115 34.5 168.5t79.5 53.5q24 0 42 -15t22 -41l4 47h106l-18 -294q-3 -38 1.5 -49t19.5 -11
q14 0 22 3.5t17 17.5t13.5 47.5t4.5 87.5q0 314 -199 314q-46 0 -80.5 -15t-62 -50.5t-42 -100.5t-14.5 -158q0 -181 51.5 -253t147.5 -72q40 0 90 9t74 24l24 -57q-25 -17 -84 -28t-102 -11zM263 261q9 0 19 3l18 221q-6 6 -18 6q-9 0 -15 -7.5t-11 -32t-9 -70.5
q-10 -120 16 -120z" />
    <glyph glyph-name="A" unicode="A" horiz-adv-x="388" 
d="M-8 0l120 743h165l119 -743h-159l-15 138h-68l-14 -138h-148zM162 243h53q-3 26 -9 90t-9 90q-3 22 -7 72h-2q-1 -10 -3.5 -34t-3.5 -38q-14 -142 -19 -180z" />
    <glyph glyph-name="B" unicode="B" horiz-adv-x="399" 
d="M24 0v740h162q84 0 136.5 -43.5t52.5 -143.5q0 -82 -22 -119t-63 -52v-2q31 -9 51 -26t34.5 -56t14.5 -98q0 -107 -53 -153.5t-139 -46.5h-174zM177 433h11q10 0 17 5t12.5 26t5.5 58t-5.5 57t-12 24t-17.5 4h-11v-174zM177 118h14q43 0 43 104q0 106 -46 106h-11v-210z
" />
    <glyph glyph-name="C" unicode="C" horiz-adv-x="389" 
d="M202 -7q-100 0 -145.5 86.5t-45.5 290.5t45.5 290.5t145.5 86.5q68 0 105.5 -25t56 -91t18.5 -188l-149 -6q0 103 -6 134t-25 31q-22 0 -26 -42t-4 -190t5 -192.5t26 -44.5q11 0 16.5 4.5t9.5 22t5.5 47.5t2.5 85l149 -6q-2 -55 -6.5 -92t-16 -78.5t-30.5 -65.5
t-52 -40.5t-79 -16.5z" />
    <glyph glyph-name="D" unicode="D" horiz-adv-x="419" 
d="M24 0v740h143q50 0 83 -6.5t65.5 -28.5t51 -62t30 -108t11.5 -165q0 -96 -11.5 -164t-30.5 -108t-51.5 -62t-65.5 -29t-82 -7h-143zM182 131h11q13 0 21.5 3.5t14.5 15.5t9.5 27t5.5 45.5t2.5 62t0.5 85.5q0 55 -0.5 87t-2.5 61.5t-5.5 43.5t-10 25t-15 14t-21.5 3h-10
v-473z" />
    <glyph glyph-name="E" unicode="E" horiz-adv-x="318" 
d="M24 0v740h286v-136h-128v-148h91v-126h-91v-199h130v-131h-288z" />
    <glyph glyph-name="F" unicode="F" horiz-adv-x="318" 
d="M24 0v740h292v-136h-134v-158h102v-126h-102v-320h-158z" />
    <glyph glyph-name="G" unicode="G" horiz-adv-x="402" 
d="M177 -5q-91 0 -128.5 85.5t-37.5 289.5q0 201 46 289t145 88q94 0 131 -68.5t45 -235.5l-145 -6q0 103 -6.5 134t-24.5 31q-22 0 -27 -45.5t-5 -186.5v-31q0 -126 6 -167.5t34 -41.5q23 0 31 24.5t10 94.5h-48v121h181v-370h-85l-3 86h-1q-8 -39 -40 -65t-78 -26z" />
    <glyph glyph-name="H" unicode="H" horiz-adv-x="418" 
d="M24 0v740h158v-285h54v285h158v-740h-158v329h-54v-329h-158z" />
    <glyph glyph-name="I" unicode="I" horiz-adv-x="216" 
d="M29 0v740h158v-740h-158z" />
    <glyph glyph-name="J" unicode="J" horiz-adv-x="310" 
d="M-7 17l34 122q36 -12 66 -12q21 0 29 13.5t8 46.5v553h158v-565q0 -104 -41 -142t-121 -38q-67 0 -133 22z" />
    <glyph glyph-name="K" unicode="K" horiz-adv-x="381" 
d="M24 0v740h153v-290q17 88 37 156l38 134h133l-93 -286l105 -454h-157l-55 284l-8 -34v-250h-153z" />
    <glyph glyph-name="L" unicode="L" horiz-adv-x="307" 
d="M24 0v740h158v-609h123v-131h-281z" />
    <glyph glyph-name="M" unicode="M" horiz-adv-x="505" 
d="M24 0v740h186l42 -394h1l42 394h185v-740h-148v262q0 32 0.5 89.5t0.5 76.5h-2q-9 -114 -16 -165l-36 -263h-75l-36 263q-6 41 -16 163h-2q1 -22 1 -164v-262h-127z" />
    <glyph glyph-name="N" unicode="N" horiz-adv-x="404" 
d="M24 0v740h146l31 -135q34 -148 49 -232h2q-7 115 -7 222v145h135v-740h-128l-37 129q-4 12 -16.5 55.5t-18 62.5t-13.5 52t-13 62h-2q7 -67 7 -225v-136h-135z" />
    <glyph glyph-name="O" unicode="O" horiz-adv-x="410" 
d="M205 -7q-100 0 -147 87t-47 290t47 290t147 87t147 -87t47 -290t-47 -290t-147 -87zM205 133q22 0 27 43t5 194q0 149 -5 190.5t-27 41.5t-27 -41.5t-5 -190.5q0 -151 5 -194t27 -43z" />
    <glyph glyph-name="P" unicode="P" horiz-adv-x="396" 
d="M24 0v740h165q41 0 72.5 -9.5t62 -34.5t47 -77.5t16.5 -130.5q0 -71 -13 -122t-31 -77.5t-47.5 -41t-53 -18t-57.5 -3.5h-6v-226h-155zM179 357h8q15 0 23 5.5t15.5 35.5t7.5 88q0 54 -7.5 81.5t-15.5 32t-24 4.5h-7v-247z" />
    <glyph glyph-name="Q" unicode="Q" horiz-adv-x="411" 
d="M315 -203q-47 0 -80 12t-50.5 29.5t-27 47t-12 54.5t-2.5 63q-68 23 -100 112.5t-32 254.5q0 203 47 290t147 87t147.5 -87.5t47.5 -289.5q0 -163 -35 -256t-100 -111q0 -41 16 -55.5t55 -14.5h18v-136h-39zM205 126q22 0 27 46t5 198q0 149 -5 190.5t-27 41.5t-27 -41.5
t-5 -190.5q0 -152 5 -198t27 -46z" />
    <glyph glyph-name="R" unicode="R" horiz-adv-x="399" 
d="M24 0v740h167q87 0 141 -60.5t54 -186.5q0 -137 -62 -192l73 -301h-154l-55 247h-11v-247h-153zM177 362h13q39 0 39 129q0 48 -6 74t-13.5 32.5t-20.5 6.5h-12v-242z" />
    <glyph glyph-name="S" unicode="S" horiz-adv-x="392" 
d="M195 -7q-47 0 -81 13t-53.5 33.5t-31.5 55t-16.5 67t-6.5 81.5l146 10q5 -81 13 -105.5t31 -24.5q32 0 32 51q0 12 -2 22.5t-8 22t-10.5 19.5t-15.5 20t-16.5 18.5t-20 21l-20.5 20.5q-30 31 -43.5 47.5t-35 48t-30.5 65.5t-9 75q0 91 44.5 142t130.5 51q100 0 140 -57.5
t44 -179.5l-147 -12q-1 53 -6 78.5t-10.5 30.5t-17.5 5q-23 0 -23 -41q0 -43 20 -73.5t60 -69.5q2 -1 3 -2l2.5 -2.5l2.5 -2.5l11 -11q28 -27 42 -43.5t33.5 -45.5t28 -63t8.5 -75q0 -92 -48 -141t-140 -49z" />
    <glyph glyph-name="T" unicode="T" horiz-adv-x="342" 
d="M92 0v604h-92v136h342v-136h-92v-604h-158z" />
    <glyph glyph-name="U" unicode="U" horiz-adv-x="405" 
d="M201 -7q-95 0 -137 50t-42 156v541h157v-534q0 -52 6.5 -67.5t20.5 -15.5t20.5 15t6.5 66v536h150v-538q0 -106 -43.5 -157.5t-138.5 -51.5z" />
    <glyph glyph-name="V" unicode="V" horiz-adv-x="378" 
d="M106 -3l-114 743h159l26 -308q8 -83 17 -212h2q4 70 17 213l25 307h148l-115 -743h-165z" />
    <glyph glyph-name="W" unicode="W" horiz-adv-x="543" 
d="M87 -3l-89 743h154l20 -302q6 -93 8 -159h1l14 159l34 302h107l26 -299q9 -90 12 -162h1q3 70 9 161l19 300h142l-90 -743h-145l-38 410h-2l-38 -410h-145z" />
    <glyph glyph-name="X" unicode="X" horiz-adv-x="379" 
d="M-10 0l115 398l-101 342h154l45 -189l43 189h127l-101 -353l116 -387h-154l-59 236l-58 -236h-127z" />
    <glyph glyph-name="Y" unicode="Y" horiz-adv-x="361" 
d="M101 0v231l-115 509h158l28 -174q10 -62 18 -137h2q3 35 19 138l27 173h137l-116 -509v-231h-158z" />
    <glyph glyph-name="Z" unicode="Z" horiz-adv-x="341" 
d="M0 0v122l175 485h-159v133h318v-127l-175 -485h175v-128h-334z" />
    <glyph glyph-name="bracketleft" unicode="[" horiz-adv-x="264" 
d="M21 -200v940h238v-116h-81v-713h81v-111h-238z" />
    <glyph glyph-name="backslash" unicode="\" horiz-adv-x="335" 
d="M219 0l-236 740h133l237 -740h-134z" />
    <glyph glyph-name="bracketright" unicode="]" horiz-adv-x="264" 
d="M5 -200v111h81v713h-81v116h238v-940h-238z" />
    <glyph glyph-name="asciicircum" unicode="^" 
d="M56 577l71 156h102l70 -156h-88l-34 49l-34 -49h-87z" />
    <glyph glyph-name="underscore" unicode="_" horiz-adv-x="325" 
d="M-30 -149v114h385v-114h-385z" />
    <glyph glyph-name="grave" unicode="`" 
d="M105 582l-76 151h135l52 -151h-111z" />
    <glyph glyph-name="a" unicode="a" 
d="M105 -4q-44 0 -71 34t-27 110q0 164 187 211v33q0 25 -3 32.5t-14 7.5q-10 0 -15 -9t-9 -37l-130 16q17 85 59 116.5t112 31.5q74 0 107 -36t33 -116v-260q0 -94 8 -130h-141q-7 20 -7 63q-31 -67 -89 -67zM170 126q12 0 24 8v118q-46 -24 -46 -91q0 -35 22 -35z" />
    <glyph glyph-name="b" unicode="b" horiz-adv-x="375" 
d="M255 -5q-57 0 -87 66v-61h-147v740h147v-261q33 63 88 63q109 0 109 -274q0 -273 -110 -273zM192 125q9 0 13 8.5t6.5 39t2.5 94.5q0 48 -1 75t-4 41.5t-6.5 18t-11.5 3.5q-13 0 -23 -8v-266q12 -6 24 -6z" />
    <glyph glyph-name="c" unicode="c" horiz-adv-x="351" 
d="M181 -7q-84 0 -128.5 69.5t-44.5 204.5q0 275 173 275q81 0 119.5 -53t45.5 -157l-143 -7q-2 76 -10 86q-6 6 -12 6q-10 0 -15 -8.5t-8 -41.5t-3 -99q0 -64 2.5 -98t8 -46t15.5 -12q14 0 19 22.5t5 81.5l141 -4q-8 -219 -165 -219z" />
    <glyph glyph-name="d" unicode="d" horiz-adv-x="375" 
d="M119 -5q-109 0 -109 272q0 275 110 275q57 0 87 -66v264h147v-610q0 -95 9 -130h-150l-6 58q-33 -63 -88 -63zM184 127q13 0 23 8v265q-14 7 -24 7q-9 0 -13 -7.5t-6.5 -37.5t-2.5 -94q0 -48 1 -75.5t4 -42.5t7 -19t11 -4z" />
    <glyph glyph-name="e" unicode="e" horiz-adv-x="352" 
d="M180 -7q-84 0 -128 69.5t-44 204.5q0 275 172 275q44 0 75 -17t48 -41.5t26.5 -63.5t12 -71.5t2.5 -76.5v-57h-193q0 -104 30 -104q14 0 20.5 15t7.5 56l136 -4q-11 -90 -48.5 -137.5t-116.5 -47.5zM151 305h53q-1 72 -5 93t-19 21q-29 0 -29 -114z" />
    <glyph glyph-name="f" unicode="f" horiz-adv-x="237" 
d="M41 0v422h-41v113h41v59q0 73 29 109.5t119 36.5h48v-124h-18q-19 0 -25.5 -8t-6.5 -30v-43h50v-113h-50v-422h-146z" />
    <glyph glyph-name="g" unicode="g" horiz-adv-x="358" 
d="M155 -200q-83 0 -122.5 29.5t-39.5 75.5q0 33 21 62t52 43q-55 20 -55 83q0 22 14.5 48.5t40.5 46.5q-58 50 -58 157q0 99 46.5 148t117.5 49q68 0 110 -41q15 19 37 34.5t39 19.5v-152h-27q5 -30 5 -58q0 -101 -45.5 -147.5t-118.5 -46.5q-23 0 -39 4q-4 -5 -4 -12
q0 -10 5 -14.5t20 -6.5l50 -7q85 -12 117 -45t32 -106q0 -71 -54.5 -117.5t-143.5 -46.5zM172 257q14 0 18.5 17.5t4.5 70.5q0 55 -4.5 70.5t-18.5 15.5t-18.5 -16.5t-4.5 -69.5t4.5 -70.5t18.5 -17.5zM170 -115q47 0 47 60q0 24 -10 36.5t-38 15.5l-21 2q-20 -29 -20 -63
q0 -51 42 -51z" />
    <glyph glyph-name="h" unicode="h" horiz-adv-x="377" 
d="M21 0v740h147v-261q18 24 50.5 43.5t60.5 19.5q40 0 59 -21t19 -84v-437h-147v381q0 24 -13 24q-9 0 -29 -10v-395h-147z" />
    <glyph glyph-name="i" unicode="i" horiz-adv-x="193" 
d="M22 579v141h149v-141h-149zM23 0v535h147v-535h-147z" />
    <glyph glyph-name="j" unicode="j" horiz-adv-x="193" 
d="M22 579v141h149v-141h-149zM-18 -200v122h15q26 0 26 30v583h147v-566q0 -92 -34.5 -130.5t-114.5 -38.5h-39z" />
    <glyph glyph-name="k" unicode="k" horiz-adv-x="341" 
d="M21 0v740h138v-420q13 70 27 128l22 87h127l-68 -199l80 -336h-140l-34 197l-14 -57v-140h-138z" />
    <glyph glyph-name="l" unicode="l" horiz-adv-x="193" 
d="M23 0v740h147v-740h-147z" />
    <glyph glyph-name="m" unicode="m" horiz-adv-x="566" 
d="M21 0v535h147v-56q18 24 50.5 43.5t60.5 19.5q33 0 51 -13.5t24 -50.5q20 25 54 44.5t60 19.5q40 0 59 -21t19 -84v-437h-147v381q0 24 -13 24q-12 0 -29 -10v-395h-147v381q0 24 -13 24q-9 0 -29 -10v-395h-147z" />
    <glyph glyph-name="n" unicode="n" horiz-adv-x="377" 
d="M21 0v535h147v-56q18 24 50.5 43.5t60.5 19.5q40 0 59 -21t19 -84v-437h-147v381q0 24 -13 24q-9 0 -29 -10v-395h-147z" />
    <glyph glyph-name="o" unicode="o" horiz-adv-x="362" 
d="M181 -7q-84 0 -128.5 69.5t-44.5 204.5q0 275 173 275q84 0 128.5 -69.5t44.5 -205.5q0 -135 -44.5 -204.5t-128.5 -69.5zM181 112q8 0 12 4.5t7.5 21t4.5 47t1 83.5q0 94 -5 121.5t-20 27.5q-10 0 -15 -8t-8 -41t-3 -100q0 -64 2.5 -98t8 -46t15.5 -12z" />
    <glyph glyph-name="p" unicode="p" horiz-adv-x="375" 
d="M21 -200v735h147v-56q33 63 88 63q109 0 109 -274q0 -273 -110 -273q-57 0 -87 66v-261h-147zM192 125q9 0 13 8.5t6.5 39t2.5 94.5q0 48 -1 75t-4 41.5t-6.5 18t-11.5 3.5q-13 0 -23 -8v-266q12 -6 24 -6z" />
    <glyph glyph-name="q" unicode="q" horiz-adv-x="375" 
d="M207 -200v258q-33 -63 -88 -63q-109 0 -109 272q0 275 110 275q57 0 87 -66v60h147v-736h-147zM184 127q13 0 23 8v265q-14 7 -24 7q-9 0 -13 -7.5t-6.5 -37.5t-2.5 -94q0 -48 1 -75.5t4 -42.5t7 -19t11 -4z" />
    <glyph glyph-name="r" unicode="r" horiz-adv-x="275" 
d="M21 0v535h147v-84h1q14 40 37 65.5t52 25.5l17 -2v-143h-14q-63 0 -93 -17v-380h-147z" />
    <glyph glyph-name="s" unicode="s" horiz-adv-x="343" 
d="M171 -9q-88 0 -123.5 44t-44.5 129l128 16q10 -77 37 -77q22 0 22 23q0 12 -6.5 22.5t-14 16.5t-24.5 18t-26 20q-31 25 -50.5 46t-37.5 60t-18 84q0 80 47 116.5t102 36.5q76 0 117 -37.5t49 -125.5l-126 -20q-4 40 -10.5 52.5t-21.5 12.5q-17 0 -17 -21q0 -16 11 -32
t20 -23.5t35 -27.5q1 -1 15 -12t16.5 -13.5t15 -13t16 -15t13 -15t13 -17.5l9.5 -19t8.5 -22.5t4.5 -23.5t2 -27q0 -71 -42.5 -113t-118.5 -42z" />
    <glyph glyph-name="t" unicode="t" horiz-adv-x="263" 
d="M171 -5q-64 0 -97.5 22t-33.5 82v323h-40v113h40v181h146v-181h67v-113h-67v-268q0 -34 7 -43t28 -9q18 0 32 4v-105q-18 -6 -82 -6z" />
    <glyph glyph-name="u" unicode="u" horiz-adv-x="377" 
d="M98 -7q-40 0 -59 21t-19 84v437h147v-385q0 -24 13 -24q19 0 29 5v404h147v-535h-147v56q-18 -24 -50.5 -43.5t-60.5 -19.5z" />
    <glyph glyph-name="v" unicode="v" horiz-adv-x="347" 
d="M82 -3l-84 538h146l18 -200q3 -24 16 -160h2q2 16 7.5 72t8.5 89l17 199h136l-83 -538h-184z" />
    <glyph glyph-name="w" unicode="w" horiz-adv-x="491" 
d="M68 -3l-70 538h146l17 -217q0 -1 4 -111h2q5 69 11 111l33 217h79l33 -217q7 -51 11 -111h2q2 77 4 111l17 217h136l-70 -538h-142l-35 254h-2l-35 -254h-141z" />
    <glyph glyph-name="x" unicode="x" horiz-adv-x="332" 
d="M-6 0l101 269l-92 266h144l32 -107l33 107h118l-92 -248l100 -287h-144l-40 123l-42 -123h-118z" />
    <glyph glyph-name="y" unicode="y" horiz-adv-x="335" 
d="M68 -200q-60 0 -90 9l21 123q19 -3 33 -3q29 0 41.5 6.5t16.5 26.5l3 15l-105 558h159l16 -227q2 -20 4 -63.5t3 -59.5h2q4 68 9 122l23 228h144l-112 -571q-16 -82 -54 -123t-114 -41z" />
    <glyph glyph-name="z" unicode="z" horiz-adv-x="309" 
d="M5 0v98l137 325h-122v112h279v-103l-138 -325h144v-107h-300z" />
    <glyph glyph-name="braceleft" unicode="{" horiz-adv-x="296" 
d="M211 -200q-144 0 -144 133v198q0 54 -12.5 67t-48.5 13v118q35 0 48 14.5t13 65.5v198q0 68 35.5 100.5t125.5 32.5h63v-116h-24q-26 0 -34.5 -13.5t-8.5 -48.5v-152q0 -70 -17 -97.5t-60 -41.5v-2q43 -14 60 -41.5t17 -97.5v-168q0 -30 9 -40.5t34 -10.5h24v-111h-80z
" />
    <glyph glyph-name="bar" unicode="|" horiz-adv-x="233" 
d="M49 -200v940h135v-940h-135z" />
    <glyph glyph-name="braceright" unicode="}" horiz-adv-x="296" 
d="M5 -200v111h24q25 0 34 10.5t9 40.5v168q0 70 17 97.5t60 41.5v2q-43 14 -60 41.5t-17 97.5v152q0 35 -8.5 48.5t-34.5 13.5h-24v116h63q90 0 125.5 -32.5t35.5 -100.5v-198q0 -51 13 -65.5t48 -14.5v-118q-36 0 -48.5 -13t-12.5 -67v-198q0 -133 -144 -133h-80z" />
    <glyph glyph-name="asciitilde" unicode="~" 
d="M234 353q-30 0 -59.5 28t-39.5 28q-24 0 -24 -54h-76q0 95 21 137t68 42q30 0 59.5 -28t39.5 -28q24 0 24 54h76q0 -95 -21.5 -137t-67.5 -42z" />
    <glyph glyph-name="nbspace" unicode="&#xa0;" horiz-adv-x="153" 
 />
    <glyph glyph-name="exclamdown" unicode="&#xa1;" horiz-adv-x="237" 
d="M35 590v150h167v-150h-167zM37 0l10 546h143l10 -546h-163z" />
    <glyph glyph-name="cent" unicode="&#xa2;" horiz-adv-x="347" 
d="M113 528v110h128v-107q91 -33 102 -195l-143 -7q-3 72 -11 83q-5 6 -11 6q-10 0 -15 -10t-8 -43t-3 -97q0 -90 5.5 -123t20.5 -33q24 0 24 100l141 -4q-6 -167 -102 -204v-134h-128v137q-108 48 -108 260q0 215 108 261z" />
    <glyph glyph-name="sterling" unicode="&#xa3;" horiz-adv-x="472" 
d="M115 -7q-54 0 -86.5 31t-32.5 93q0 51 31.5 82.5t81.5 31.5q49 0 75 -32q-4 50 -32 121h-111v115h63q-29 82 -29 128q0 89 41 136.5t119 47.5q82 0 123 -42t41 -161l-132 -11q-1 50 -6 68.5t-18 18.5q-22 0 -22 -50q0 -15 1.5 -28t5.5 -29t6 -23t9.5 -28t9.5 -27h111
v-115h-74q12 -53 12 -101t-18 -91q14 -7 22 -7q22 0 29.5 25t7.5 104h124q0 -100 -20 -158.5t-50 -78.5t-75 -20q-63 0 -102 43q-40 -43 -105 -43zM129 82q29 0 40 38q-19 30 -41 30q-12 0 -20.5 -9.5t-8.5 -24.5q0 -16 8.5 -25t21.5 -9z" />
    <glyph glyph-name="currency" unicode="&#xa4;" horiz-adv-x="433" 
d="M239 -7q-83 0 -128 58t-58 192h-44v115h39v25h-39v115h44q13 134 58 191.5t128 57.5q96 0 136 -65t46 -199l-136 -6q0 75 -9 100t-30 25q-18 0 -27 -22.5t-10 -81.5h64v-115h-64v-25h64v-115h-63q1 -65 9.5 -87.5t28.5 -22.5q23 0 31.5 23t9.5 106l134 -6
q-2 -44 -6 -76.5t-15.5 -70t-30.5 -61t-52.5 -39.5t-79.5 -16z" />
    <glyph glyph-name="yen" unicode="&#xa5;" horiz-adv-x="381" 
d="M111 0v67h-105v116h105v25h-105v115h84l-94 417h158l28 -174q10 -62 18 -137h2q3 35 19 138l27 173h137l-95 -417h84v-115h-105v-25h105v-116h-105v-67h-158z" />
    <glyph glyph-name="brokenbar" unicode="&#xa6;" horiz-adv-x="233" 
d="M49 331v409h135v-409h-135zM49 -200v409h135v-409h-135z" />
    <glyph glyph-name="section" unicode="&#xa7;" horiz-adv-x="424" 
d="M206 -212q-92 0 -131 51.5t-46 173.5l134 12q2 -48 8 -73.5t13 -32t19 -6.5q30 0 30 43q0 41 -21 70t-61 61q-31 25 -44 36.5t-36 37.5t-33.5 55t-13.5 66q-8 106 62 161q-40 54 -40 117q0 88 43 141.5t131 53.5q90 0 130 -55t47 -169l-137 -13q-2 47 -7.5 72t-12.5 32
t-18 7q-29 0 -29 -42q0 -22 5.5 -40.5t21 -36.5t24 -27t34 -29.5t32.5 -26.5q40 -35 64 -72.5t28 -93.5q9 -107 -61 -160q39 -57 39 -118q0 -88 -43 -141.5t-131 -53.5zM244 196q20 10 19 43q-1 35 -43 75q-6 7 -20.5 19.5t-16.5 14.5q-21 -12 -20 -45q1 -35 45 -77
q16 -15 36 -30z" />
    <glyph glyph-name="dieresis" unicode="&#xa8;" horiz-adv-x="354" 
d="M197 582v137h120v-137h-120zM37 582v137h120v-137h-120z" />
    <glyph glyph-name="copyright" unicode="&#xa9;" horiz-adv-x="474" 
d="M236 -14q-104 0 -163 107t-59 275t60.5 277t163.5 109q104 0 163 -107t59 -275t-60.5 -277t-163.5 -109zM236 36q84 0 128 94.5t44 241.5q0 96 -17 168.5t-56 118t-97 45.5q-84 0 -128 -94.5t-44 -241.5q0 -96 17 -168.5t56 -118t97 -45.5zM238 155q-50 0 -77 57t-27 163
q0 221 106 221q49 0 69.5 -40t26.5 -115l-78 -5q-1 4 -1.5 10.5t-1 10.5t-1 9.5t-1 8.5t-1.5 6.5t-2.5 5.5l-3 4t-3.5 3t-5 1q-17 0 -17 -120q0 -117 17 -117q16 0 20 58l79 -4q-7 -75 -29 -116t-70 -41z" />
    <glyph glyph-name="ordfeminine" unicode="&#xaa;" horiz-adv-x="304" 
d="M99 354q-71 0 -71 102q0 116 131 153v22q0 25 -9 25q-6 0 -8.5 -6t-5.5 -27l-93 15q11 63 40.5 86t79.5 23q53 0 77.5 -26t24.5 -83v-185q0 -63 7 -94h-108q-5 20 -5 34q-22 -39 -60 -39zM145 449q4 0 14 2v82q-27 -16 -27 -62q0 -22 13 -22z" />
    <glyph glyph-name="guillemotleft" unicode="&#xab;" horiz-adv-x="394" 
d="M251 0l-71 269l71 266h132l-71 -267l71 -268h-132zM79 0l-72 269l72 266h132l-71 -267l71 -268h-132z" />
    <glyph glyph-name="registered" unicode="&#xae;" horiz-adv-x="474" 
d="M236 -14q-104 0 -163 107t-59 275t60.5 277t163.5 109q104 0 163 -107t59 -275t-60.5 -277t-163.5 -109zM236 36q84 0 128 94.5t44 241.5q0 96 -17 168.5t-56 118t-97 45.5q-84 0 -128 -94.5t-44 -241.5q0 -96 17 -168.5t56 -118t97 -45.5zM143 171v415h92
q107 0 107 -141q0 -88 -31 -124l35 -150h-84l-29 134h-6v-134h-84zM227 390h4q14 0 20 11.5t6 41.5t-6 40.5t-20 10.5h-4v-104z" />
    <glyph glyph-name="macron" unicode="&#xaf;" 
d="M38 592v117h279v-117h-279z" />
    <glyph glyph-name="degree" unicode="&#xb0;" horiz-adv-x="220" 
d="M110 478q-47 0 -73.5 37t-26.5 98t26.5 98t73.5 37t73.5 -37t26.5 -98t-26.5 -98t-73.5 -37zM110 548q13 0 13 65q0 66 -13 66t-13 -66q0 -65 13 -65z" />
    <glyph glyph-name="twosuperior" unicode="&#xb2;" horiz-adv-x="287" 
d="M28 273v20q0 60 13.5 105.5t32.5 71t37.5 46.5t32 45.5t13.5 54.5q0 29 -10 29q-8 0 -11.5 -15t-4.5 -63l-99 6q5 82 32 127.5t91 45.5q58 0 85.5 -32t27.5 -99q0 -44 -28.5 -89.5t-60 -86t-35.5 -67.5h125v-99h-241z" />
    <glyph glyph-name="threesuperior" unicode="&#xb3;" horiz-adv-x="283" 
d="M145 264q-29 0 -50 9t-32.5 21.5t-19 36t-9.5 41t-5 48.5l95 9q3 -71 17 -71q11 0 11 48q0 46 -10.5 57.5t-50.5 11.5h-19v88h21q38 0 46.5 9.5t8.5 43.5q0 31 -7 31q-11 0 -16 -59l-94 12q15 145 119 145q61 0 85 -32t24 -89q0 -41 -14 -70.5t-39 -34.5q26 -7 42 -39
t16 -79q0 -137 -119 -137z" />
    <glyph glyph-name="acute" unicode="&#xb4;" 
d="M111 582l52 151h135l-76 -151h-111z" />
    <glyph glyph-name="mu" unicode="&#xb5;" horiz-adv-x="377" 
d="M20 -200v735h147v-394q0 -24 13 -24q19 0 29 5v413h147v-535h-147v52q-11 -15 -33 -32l-9 -6v-214h-147z" />
    <glyph glyph-name="paragraph" unicode="&#xb6;" horiz-adv-x="512" 
d="M159 -200v543q-62 0 -105.5 52.5t-43.5 144.5q0 84 43.5 142t99.5 58h322v-940h-146v804h-24v-804h-146z" />
    <glyph glyph-name="periodcentered" unicode="&#xb7;" horiz-adv-x="265" 
d="M49 234v170h167v-170h-167z" />
    <glyph glyph-name="cedilla" unicode="&#xb8;" 
d="M160 -200q-55 0 -120 25l24 64q61 -23 94 -23q23 0 23 22q0 19 -16 19q-11 0 -21 -14l-48 20l27 88h66l-13 -43q10 14 38 14q27 0 44 -20t17 -57q0 -39 -27 -67t-88 -28z" />
    <glyph glyph-name="onesuperior" unicode="&#xb9;" horiz-adv-x="253" 
d="M27 276v98h47v248q-20 -11 -46 -11v99q35 3 51 30h109v-366h38v-98h-199z" />
    <glyph glyph-name="ordmasculine" unicode="&#xba;" horiz-adv-x="296" 
d="M148 351q-60 0 -92 51t-32 147q0 97 32 147.5t92 50.5t92 -51t32 -147t-32.5 -147t-91.5 -51zM148 446q10 0 12 17t2 86q0 67 -2 83.5t-12 16.5t-12.5 -17t-2.5 -83q0 -65 2.5 -84t12.5 -19z" />
    <glyph glyph-name="guillemotright" unicode="&#xbb;" horiz-adv-x="394" 
d="M183 0l71 268l-71 267h132l72 -266l-72 -269h-132zM11 0l71 268l-71 267h132l71 -266l-71 -269h-132z" />
    <glyph glyph-name="onequarter" unicode="&#xbc;" horiz-adv-x="675" 
d="M27 276v98h47v248q-20 -11 -46 -11v99q35 3 51 30h109v-366h38v-98h-199zM183 0l194 740h127l-193 -740h-128zM533 0v90h-123v81l109 293h116v-279h30v-95h-30v-90h-102zM506 185h33v100z" />
    <glyph glyph-name="onehalf" unicode="&#xbd;" horiz-adv-x="691" 
d="M27 276v98h47v248q-20 -11 -46 -11v99q35 3 51 30h109v-366h38v-98h-199zM183 0l194 740h127l-193 -740h-128zM432 0v20q0 60 13.5 105.5t32 71t37.5 46.5t32.5 45.5t13.5 54.5q0 29 -10 29q-8 0 -11.5 -15t-4.5 -63l-99 6q5 82 32 127.5t91 45.5q58 0 85.5 -32t27.5 -99
q0 -44 -28.5 -89.5t-60 -86t-35.5 -67.5h125v-99h-241z" />
    <glyph glyph-name="threequarters" unicode="&#xbe;" horiz-adv-x="714" 
d="M145 264q-29 0 -50 9t-32.5 21.5t-19 36t-9.5 41t-5 48.5l95 9q3 -71 17 -71q11 0 11 48q0 46 -10.5 57.5t-50.5 11.5h-19v88h21q38 0 46.5 9.5t8.5 43.5q0 31 -7 31q-11 0 -16 -59l-94 12q15 145 119 145q61 0 85 -32t24 -89q0 -41 -14 -70.5t-39 -34.5q26 -7 42 -39
t16 -79q0 -137 -119 -137zM212 0l194 740h127l-193 -740h-128zM562 0v90h-123v81l109 293h116v-279h30v-95h-30v-90h-102zM535 185h33v100z" />
    <glyph glyph-name="questiondown" unicode="&#xbf;" horiz-adv-x="344" 
d="M102 590v150h167v-150h-167zM160 -7q-79 0 -120 46t-41 118q0 39 8 73.5t16 51.5t26.5 48t24.5 43q41 73 41 173h141q0 -61 -10.5 -107.5t-19 -63t-29.5 -50.5q-15 -25 -23 -40.5t-15 -45.5t-7 -67q0 -44 18 -44q15 0 22 22t10 83l147 -13q-9 -123 -55 -175t-134 -52z
" />
    <glyph glyph-name="Agrave" unicode="&#xc0;" horiz-adv-x="388" 
d="M-8 0l120 743h165l119 -743h-159l-15 138h-68l-14 -138h-148zM162 243h53q-3 26 -9 90t-9 90q-3 22 -7 72h-2q-1 -10 -3.5 -34t-3.5 -38q-14 -142 -19 -180zM138 787l-76 151h135l52 -151h-111z" />
    <glyph glyph-name="Aacute" unicode="&#xc1;" horiz-adv-x="388" 
d="M-8 0l120 743h165l119 -743h-159l-15 138h-68l-14 -138h-148zM162 243h53q-3 26 -9 90t-9 90q-3 22 -7 72h-2q-1 -10 -3.5 -34t-3.5 -38q-14 -142 -19 -180zM137 787l52 151h135l-76 -151h-111z" />
    <glyph glyph-name="Acircumflex" unicode="&#xc2;" horiz-adv-x="388" 
d="M-8 0l120 743h165l119 -743h-159l-15 138h-68l-14 -138h-148zM162 243h53q-3 26 -9 90t-9 90q-3 22 -7 72h-2q-1 -10 -3.5 -34t-3.5 -38q-14 -142 -19 -180zM72 782l71 156h102l70 -156h-88l-34 54l-34 -54h-87z" />
    <glyph glyph-name="Atilde" unicode="&#xc3;" horiz-adv-x="388" 
d="M-8 0l120 743h165l119 -743h-159l-15 138h-68l-14 -138h-148zM162 243h53q-3 26 -9 90t-9 90q-3 22 -7 72h-2q-1 -10 -3.5 -34t-3.5 -38q-14 -142 -19 -180zM256 765q-30 0 -59.5 28t-39.5 28q-24 0 -24 -54h-76q0 95 21 137t68 42q30 0 59.5 -28t39.5 -28q24 0 24 54h76
q0 -95 -21.5 -137t-67.5 -42z" />
    <glyph glyph-name="Adieresis" unicode="&#xc4;" horiz-adv-x="388" 
d="M-8 0l120 743h165l119 -743h-159l-15 138h-68l-14 -138h-148zM162 243h53q-3 26 -9 90t-9 90q-3 22 -7 72h-2q-1 -10 -3.5 -34t-3.5 -38q-14 -142 -19 -180zM209 787v137h120v-137h-120zM49 787v137h120v-137h-120z" />
    <glyph glyph-name="Aring" unicode="&#xc5;" horiz-adv-x="388" 
d="M113 745q-13 29 -13 64q0 52 25.5 83.5t68.5 31.5q40 0 67 -32t27 -83q0 -37 -12 -62l120 -747h-159l-15 138h-68l-14 -138h-148zM194 759q26 0 26 47q0 46 -26 46t-26 -46q0 -47 26 -47zM164 243h49q-3 26 -8 80t-8 80q-3 22 -7 72h-2q-1 -10 -3.5 -34t-3.5 -38
q-12 -119 -17 -160z" />
    <glyph glyph-name="AE" unicode="&#xc6;" horiz-adv-x="537" 
d="M0 0l164 740h365v-136h-128v-148h91v-126h-91v-199h130v-131h-288v138h-75l-28 -138h-140zM190 243h53v299z" />
    <glyph glyph-name="Ccedilla" unicode="&#xc7;" horiz-adv-x="389" 
d="M196 -193q-55 0 -120 25l24 64q61 -23 94 -23q23 0 23 22q0 19 -16 19q-11 0 -21 -14l-48 20l24 78q-75 19 -110 106.5t-35 265.5q0 204 45.5 290.5t145.5 86.5q68 0 105.5 -25t56 -91t18.5 -188l-149 -6q0 103 -6 134t-25 31q-22 0 -26 -42t-4 -190t5 -192.5t26 -44.5
q11 0 16.5 4.5t9.5 22t5.5 47.5t2.5 85l149 -6q-2 -53 -6 -88t-14.5 -75.5t-27.5 -65t-46.5 -42.5t-70.5 -21l-9 -29q10 14 38 14q27 0 44 -20t17 -57q0 -39 -27 -67t-88 -28z" />
    <glyph glyph-name="Egrave" unicode="&#xc8;" horiz-adv-x="318" 
d="M24 0v740h286v-136h-128v-148h91v-126h-91v-199h130v-131h-288zM122 787l-76 151h135l52 -151h-111z" />
    <glyph glyph-name="Eacute" unicode="&#xc9;" horiz-adv-x="318" 
d="M24 0v740h286v-136h-128v-148h91v-126h-91v-199h130v-131h-288zM105 787l52 151h135l-76 -151h-111z" />
    <glyph glyph-name="Ecircumflex" unicode="&#xca;" horiz-adv-x="318" 
d="M24 0v740h286v-136h-128v-148h91v-126h-91v-199h130v-131h-288zM45 782l71 156h102l70 -156h-88l-34 54l-34 -54h-87z" />
    <glyph glyph-name="Edieresis" unicode="&#xcb;" horiz-adv-x="318" 
d="M24 0v740h286v-136h-128v-148h91v-126h-91v-199h130v-131h-288zM187 787v137h120v-137h-120zM27 787v137h120v-137h-120z" />
    <glyph glyph-name="Igrave" unicode="&#xcc;" horiz-adv-x="216" 
d="M29 0v740h158v-740h-158zM52 787l-76 151h135l52 -151h-111z" />
    <glyph glyph-name="Iacute" unicode="&#xcd;" horiz-adv-x="216" 
d="M29 0v740h158v-740h-158zM53 787l52 151h135l-76 -151h-111z" />
    <glyph glyph-name="Icircumflex" unicode="&#xce;" horiz-adv-x="216" 
d="M29 0v740h158v-740h-158zM-17 782l71 156h102l70 -156h-88l-34 54l-34 -54h-87z" />
    <glyph glyph-name="Idieresis" unicode="&#xcf;" horiz-adv-x="216" 
d="M29 0v740h158v-740h-158zM130 787v137h120v-137h-120zM-30 787v137h120v-137h-120z" />
    <glyph glyph-name="Eth" unicode="&#xd0;" horiz-adv-x="419" 
d="M24 0v330h-25v126h25v284h143q50 0 83 -6.5t65.5 -28.5t51 -62t30 -108t11.5 -165q0 -96 -11.5 -164t-30.5 -108t-51.5 -62t-65.5 -29t-82 -7h-143zM182 131h11q13 0 21.5 3.5t14.5 15.5t9.5 27t5.5 45.5t2.5 62t0.5 85.5q0 55 -0.5 87t-2.5 61.5t-5.5 43.5t-10 25
t-15 14t-21.5 3h-10v-148h28v-126h-28v-199z" />
    <glyph glyph-name="Ntilde" unicode="&#xd1;" horiz-adv-x="404" 
d="M24 0v740h146l31 -135q34 -148 49 -232h2q-7 115 -7 222v145h135v-740h-128l-37 129q-4 12 -16.5 55.5t-18 62.5t-13.5 52t-13 62h-2q7 -67 7 -225v-136h-135zM267 765q-30 0 -59.5 28t-39.5 28q-24 0 -24 -54h-76q0 95 21 137t68 42q30 0 59.5 -28t39.5 -28q24 0 24 54
h76q0 -95 -21.5 -137t-67.5 -42z" />
    <glyph glyph-name="Ograve" unicode="&#xd2;" horiz-adv-x="410" 
d="M205 -7q-100 0 -147 87t-47 290t47 290t147 87t147 -87t47 -290t-47 -290t-147 -87zM205 133q22 0 27 43t5 194q0 149 -5 190.5t-27 41.5t-27 -41.5t-5 -190.5q0 -151 5 -194t27 -43zM155 787l-76 151h135l52 -151h-111z" />
    <glyph glyph-name="Oacute" unicode="&#xd3;" horiz-adv-x="410" 
d="M205 -7q-100 0 -147 87t-47 290t47 290t147 87t147 -87t47 -290t-47 -290t-147 -87zM205 133q22 0 27 43t5 194q0 149 -5 190.5t-27 41.5t-27 -41.5t-5 -190.5q0 -151 5 -194t27 -43zM144 787l52 151h135l-76 -151h-111z" />
    <glyph glyph-name="Ocircumflex" unicode="&#xd4;" horiz-adv-x="410" 
d="M205 -7q-100 0 -147 87t-47 290t47 290t147 87t147 -87t47 -290t-47 -290t-147 -87zM205 133q22 0 27 43t5 194q0 149 -5 190.5t-27 41.5t-27 -41.5t-5 -190.5q0 -151 5 -194t27 -43zM84 782l71 156h102l70 -156h-88l-34 54l-34 -54h-87z" />
    <glyph glyph-name="Otilde" unicode="&#xd5;" horiz-adv-x="410" 
d="M205 -7q-100 0 -147 87t-47 290t47 290t147 87t147 -87t47 -290t-47 -290t-147 -87zM205 133q22 0 27 43t5 194q0 149 -5 190.5t-27 41.5t-27 -41.5t-5 -190.5q0 -151 5 -194t27 -43zM264 765q-30 0 -59.5 28t-39.5 28q-24 0 -24 -54h-76q0 95 21 137t68 42
q30 0 59.5 -28t39.5 -28q24 0 24 54h76q0 -95 -21.5 -137t-67.5 -42z" />
    <glyph glyph-name="Odieresis" unicode="&#xd6;" horiz-adv-x="410" 
d="M205 -7q-100 0 -147 87t-47 290t47 290t147 87t147 -87t47 -290t-47 -290t-147 -87zM205 133q22 0 27 43t5 194q0 149 -5 190.5t-27 41.5t-27 -41.5t-5 -190.5q0 -151 5 -194t27 -43zM226 787v137h120v-137h-120zM66 787v137h120v-137h-120z" />
    <glyph glyph-name="multiply" unicode="&#xd7;" horiz-adv-x="417" 
d="M113 145l-84 84l96 95l-97 96l85 85l95 -99l97 99l84 -84l-99 -97l99 -95l-85 -85l-96 97z" />
    <glyph glyph-name="Oslash" unicode="&#xd8;" horiz-adv-x="410" 
d="M368 622q31 -87 31 -252q0 -203 -47 -290t-147 -87q-59 0 -96 27l-33 -76l-93 44l57 133q-29 90 -29 249q0 203 47 290t147 87q56 0 94 -26l32 75l93 -44zM167 416l64 158q-7 28 -26 28q-22 0 -29.5 -40t-8.5 -146zM242 330l-66 -161q9 -36 29 -36q22 0 29 42.5t8 154.5z
" />
    <glyph glyph-name="Ugrave" unicode="&#xd9;" horiz-adv-x="405" 
d="M201 -7q-95 0 -137 50t-42 156v541h157v-534q0 -52 6.5 -67.5t20.5 -15.5t20.5 15t6.5 66v536h150v-538q0 -106 -43.5 -157.5t-138.5 -51.5zM150 787l-76 151h135l52 -151h-111z" />
    <glyph glyph-name="Uacute" unicode="&#xda;" horiz-adv-x="405" 
d="M201 -7q-95 0 -137 50t-42 156v541h157v-534q0 -52 6.5 -67.5t20.5 -15.5t20.5 15t6.5 66v536h150v-538q0 -106 -43.5 -157.5t-138.5 -51.5zM148 787l52 151h135l-76 -151h-111z" />
    <glyph glyph-name="Ucircumflex" unicode="&#xdb;" horiz-adv-x="405" 
d="M201 -7q-95 0 -137 50t-42 156v541h157v-534q0 -52 6.5 -67.5t20.5 -15.5t20.5 15t6.5 66v536h150v-538q0 -106 -43.5 -157.5t-138.5 -51.5zM85 782l71 156h102l70 -156h-88l-34 54l-34 -54h-87z" />
    <glyph glyph-name="Udieresis" unicode="&#xdc;" horiz-adv-x="405" 
d="M201 -7q-95 0 -137 50t-42 156v541h157v-534q0 -52 6.5 -67.5t20.5 -15.5t20.5 15t6.5 66v536h150v-538q0 -106 -43.5 -157.5t-138.5 -51.5zM225 787v137h120v-137h-120zM65 787v137h120v-137h-120z" />
    <glyph glyph-name="Yacute" unicode="&#xdd;" horiz-adv-x="361" 
d="M101 0v231l-115 509h158l28 -174q10 -62 18 -137h2q3 35 19 138l27 173h137l-116 -509v-231h-158zM135 787l52 151h135l-76 -151h-111z" />
    <glyph glyph-name="Thorn" unicode="&#xde;" horiz-adv-x="396" 
d="M24 0v740h155v-90h10q41 0 72.5 -9.5t62 -34.5t47 -77.5t16.5 -130.5q0 -71 -13 -122t-31 -77.5t-47.5 -41t-53 -18t-57.5 -3.5h-6v-136h-155zM179 267h8q15 0 22.5 5.5t13.5 35t6 88.5q0 55 -6.5 82t-13.5 31.5t-23 4.5h-7v-247z" />
    <glyph glyph-name="germandbls" unicode="&#xdf;" horiz-adv-x="415" 
d="M264 -11q-44 0 -66 18l17 122q4 -2 12 -2q30 0 30 97q0 71 -16 110.5t-42 42.5v90q8 2 13 5t13 12t12 29t4 49q0 73 -26 73q-28 0 -28 -109v-526h-149v522q0 108 38 163t134 55q81 0 123.5 -40.5t42.5 -119.5q0 -122 -73 -156q97 -32 97 -227q0 -90 -36.5 -149t-99.5 -59
z" />
    <glyph glyph-name="agrave" unicode="&#xe0;" 
d="M105 -4q-44 0 -71 34t-27 110q0 164 187 211v33q0 25 -3 32.5t-14 7.5q-10 0 -15 -9t-9 -37l-130 16q17 85 59 116.5t112 31.5q74 0 107 -36t33 -116v-260q0 -94 8 -130h-141q-7 20 -7 63q-31 -67 -89 -67zM170 126q12 0 24 8v118q-46 -24 -46 -91q0 -35 22 -35zM150 582
l-76 151h135l52 -151h-111z" />
    <glyph glyph-name="aacute" unicode="&#xe1;" 
d="M105 -4q-44 0 -71 34t-27 110q0 164 187 211v33q0 25 -3 32.5t-14 7.5q-10 0 -15 -9t-9 -37l-130 16q17 85 59 116.5t112 31.5q74 0 107 -36t33 -116v-260q0 -94 8 -130h-141q-7 20 -7 63q-31 -67 -89 -67zM170 126q12 0 24 8v118q-46 -24 -46 -91q0 -35 22 -35zM118 582
l52 151h135l-76 -151h-111z" />
    <glyph glyph-name="acircumflex" unicode="&#xe2;" 
d="M105 -4q-44 0 -71 34t-27 110q0 164 187 211v33q0 25 -3 32.5t-14 7.5q-10 0 -15 -9t-9 -37l-130 16q17 85 59 116.5t112 31.5q74 0 107 -36t33 -116v-260q0 -94 8 -130h-141q-7 20 -7 63q-31 -67 -89 -67zM170 126q12 0 24 8v118q-46 -24 -46 -91q0 -35 22 -35zM64 577
l71 156h102l70 -156h-88l-34 54l-34 -54h-87z" />
    <glyph glyph-name="atilde" unicode="&#xe3;" 
d="M105 -4q-44 0 -71 34t-27 110q0 164 187 211v33q0 25 -3 32.5t-14 7.5q-10 0 -15 -9t-9 -37l-130 16q17 85 59 116.5t112 31.5q74 0 107 -36t33 -116v-260q0 -94 8 -130h-141q-7 20 -7 63q-31 -67 -89 -67zM170 126q12 0 24 8v118q-46 -24 -46 -91q0 -35 22 -35zM242 560
q-30 0 -59.5 28t-39.5 28q-24 0 -24 -54h-76q0 95 21 137t68 42q30 0 59.5 -28t39.5 -28q24 0 24 54h76q0 -95 -21.5 -137t-67.5 -42z" />
    <glyph glyph-name="adieresis" unicode="&#xe4;" 
d="M105 -4q-44 0 -71 34t-27 110q0 164 187 211v33q0 25 -3 32.5t-14 7.5q-10 0 -15 -9t-9 -37l-130 16q17 85 59 116.5t112 31.5q74 0 107 -36t33 -116v-260q0 -94 8 -130h-141q-7 20 -7 63q-31 -67 -89 -67zM170 126q12 0 24 8v118q-46 -24 -46 -91q0 -35 22 -35zM205 582
v137h120v-137h-120zM45 582v137h120v-137h-120z" />
    <glyph glyph-name="aring" unicode="&#xe5;" 
d="M105 -4q-44 0 -71 34t-27 110q0 164 187 211v33q0 25 -3 32.5t-14 7.5q-10 0 -15 -9t-9 -37l-130 16q17 85 59 116.5t112 31.5q74 0 107 -36t33 -116v-260q0 -94 8 -130h-141q-7 20 -7 63q-31 -67 -89 -67zM170 126q12 0 24 8v118q-46 -24 -46 -91q0 -35 22 -35zM193 570
q-43 0 -68.5 32t-25.5 84t25.5 83.5t68.5 31.5q40 0 67 -32t27 -83q0 -52 -25.5 -84t-68.5 -32zM193 636q26 0 26 47q0 46 -26 46t-26 -46q0 -47 26 -47z" />
    <glyph glyph-name="ae" unicode="&#xe6;" horiz-adv-x="527" 
d="M224 76q-13 -34 -43.5 -56.5t-76.5 -22.5q-97 0 -97 143q0 164 187 211v33q0 25 -3 32.5t-14 7.5q-10 0 -15 -9t-9 -37l-130 16q17 85 58.5 116.5t111.5 31.5q60 0 83 -32q32 32 84 32q42 0 72.5 -17t47 -41.5t25.5 -63.5t11.5 -71.5t2.5 -76.5v-57h-193q0 -104 30 -104
q14 0 20.5 15t7.5 56l136 -4q-11 -90 -48.5 -137.5t-116.5 -47.5q-93 0 -131 83zM326 305h53q-1 72 -5 93t-19 21q-29 0 -29 -114zM193 252q-45 -25 -45 -91q0 -35 22 -35q23 0 35 12q-11 49 -12 105v9z" />
    <glyph glyph-name="ccedilla" unicode="&#xe7;" horiz-adv-x="351" 
d="M174 -196q-55 0 -120 25l24 64q61 -23 94 -23q23 0 23 22q0 19 -16 19q-11 0 -21 -14l-48 20l25 82q-127 37 -127 268q0 275 173 275q81 0 119.5 -53t45.5 -157l-143 -7q-3 75 -11 86q-4 6 -11 6q-10 0 -15 -9.5t-8 -42.5t-3 -97q0 -90 5.5 -123t20.5 -33q14 0 19 22.5
t5 81.5l141 -4q-4 -104 -39 -157.5t-107 -60.5l-10 -32q10 14 38 14q27 0 44 -20t17 -57q0 -39 -27 -67t-88 -28z" />
    <glyph glyph-name="egrave" unicode="&#xe8;" horiz-adv-x="352" 
d="M180 -7q-84 0 -128 69.5t-44 204.5q0 275 172 275q44 0 75 -17t48 -41.5t26.5 -63.5t12 -71.5t2.5 -76.5v-57h-193q0 -104 30 -104q14 0 20.5 15t7.5 56l136 -4q-11 -90 -48.5 -137.5t-116.5 -47.5zM151 305h53q-1 72 -5 93t-19 21q-29 0 -29 -114zM132 582l-76 151h135
l52 -151h-111z" />
    <glyph glyph-name="eacute" unicode="&#xe9;" horiz-adv-x="352" 
d="M180 -7q-84 0 -128 69.5t-44 204.5q0 275 172 275q44 0 75 -17t48 -41.5t26.5 -63.5t12 -71.5t2.5 -76.5v-57h-193q0 -104 30 -104q14 0 20.5 15t7.5 56l136 -4q-11 -90 -48.5 -137.5t-116.5 -47.5zM151 305h53q-1 72 -5 93t-19 21q-29 0 -29 -114zM111 582l52 151h135
l-76 -151h-111z" />
    <glyph glyph-name="ecircumflex" unicode="&#xea;" horiz-adv-x="352" 
d="M180 -7q-84 0 -128 69.5t-44 204.5q0 275 172 275q44 0 75 -17t48 -41.5t26.5 -63.5t12 -71.5t2.5 -76.5v-57h-193q0 -104 30 -104q14 0 20.5 15t7.5 56l136 -4q-11 -90 -48.5 -137.5t-116.5 -47.5zM151 305h53q-1 72 -5 93t-19 21q-29 0 -29 -114zM60 577l71 156h102
l70 -156h-88l-34 54l-34 -54h-87z" />
    <glyph glyph-name="edieresis" unicode="&#xeb;" horiz-adv-x="352" 
d="M180 -7q-84 0 -128 69.5t-44 204.5q0 275 172 275q44 0 75 -17t48 -41.5t26.5 -63.5t12 -71.5t2.5 -76.5v-57h-193q0 -104 30 -104q14 0 20.5 15t7.5 56l136 -4q-11 -90 -48.5 -137.5t-116.5 -47.5zM151 305h53q-1 72 -5 93t-19 21q-29 0 -29 -114zM199 582v137h120v-137
h-120zM39 582v137h120v-137h-120z" />
    <glyph glyph-name="igrave" unicode="&#xec;" horiz-adv-x="193" 
d="M23 0v535h147v-535h-147zM42 582l-76 151h135l52 -151h-111z" />
    <glyph glyph-name="iacute" unicode="&#xed;" horiz-adv-x="193" 
d="M23 0v535h147v-535h-147zM43 582l52 151h135l-76 -151h-111z" />
    <glyph glyph-name="icircumflex" unicode="&#xee;" horiz-adv-x="193" 
d="M23 0v535h147v-535h-147zM-25 577l71 156h102l70 -156h-88l-34 54l-34 -54h-87z" />
    <glyph glyph-name="idieresis" unicode="&#xef;" horiz-adv-x="193" 
d="M23 0v535h147v-535h-147zM116 582v137h120v-137h-120zM-44 582v137h120v-137h-120z" />
    <glyph glyph-name="eth" unicode="&#xf0;" horiz-adv-x="364" 
d="M187 -7q-90 0 -134.5 70t-44.5 199q0 128 31.5 196t91.5 68q36 0 59 -20.5t29 -48.5q-8 49 -35 120l-52 -19l-25 67l47 17q-15 31 -39 68l114 38q27 -35 44 -62l52 19l24 -68l-43 -16q50 -120 50 -339q0 -144 -39.5 -216.5t-129.5 -72.5zM183 125q13 0 19 6.5t9.5 36.5
t3.5 95q0 58 -3.5 86.5t-9.5 36.5t-19 8t-19 -7t-10 -36t-4 -88q0 -61 3.5 -91t10 -38.5t19.5 -8.5z" />
    <glyph glyph-name="ntilde" unicode="&#xf1;" horiz-adv-x="377" 
d="M21 0v535h147v-56q18 24 50.5 43.5t60.5 19.5q40 0 59 -21t19 -84v-437h-147v381q0 24 -13 24q-9 0 -29 -10v-395h-147zM254 560q-30 0 -59.5 28t-39.5 28q-24 0 -24 -54h-76q0 95 21 137t68 42q30 0 59.5 -28t39.5 -28q24 0 24 54h76q0 -95 -21.5 -137t-67.5 -42z" />
    <glyph glyph-name="ograve" unicode="&#xf2;" horiz-adv-x="362" 
d="M181 -7q-84 0 -128.5 69.5t-44.5 204.5q0 275 173 275q84 0 128.5 -69.5t44.5 -205.5q0 -135 -44.5 -204.5t-128.5 -69.5zM181 112q8 0 12 4.5t7.5 21t4.5 47t1 83.5q0 94 -5 121.5t-20 27.5q-10 0 -15 -8t-8 -41t-3 -100q0 -64 2.5 -98t8 -46t15.5 -12zM132 582l-76 151
h135l52 -151h-111z" />
    <glyph glyph-name="oacute" unicode="&#xf3;" horiz-adv-x="362" 
d="M181 -7q-84 0 -128.5 69.5t-44.5 204.5q0 275 173 275q84 0 128.5 -69.5t44.5 -205.5q0 -135 -44.5 -204.5t-128.5 -69.5zM181 112q8 0 12 4.5t7.5 21t4.5 47t1 83.5q0 94 -5 121.5t-20 27.5q-10 0 -15 -8t-8 -41t-3 -100q0 -64 2.5 -98t8 -46t15.5 -12zM116 582l52 151
h135l-76 -151h-111z" />
    <glyph glyph-name="ocircumflex" unicode="&#xf4;" horiz-adv-x="362" 
d="M181 -7q-84 0 -128.5 69.5t-44.5 204.5q0 275 173 275q84 0 128.5 -69.5t44.5 -205.5q0 -135 -44.5 -204.5t-128.5 -69.5zM181 112q8 0 12 4.5t7.5 21t4.5 47t1 83.5q0 94 -5 121.5t-20 27.5q-10 0 -15 -8t-8 -41t-3 -100q0 -64 2.5 -98t8 -46t15.5 -12zM60 577l71 156
h102l70 -156h-88l-34 54l-34 -54h-87z" />
    <glyph glyph-name="otilde" unicode="&#xf5;" horiz-adv-x="362" 
d="M181 -7q-84 0 -128.5 69.5t-44.5 204.5q0 275 173 275q84 0 128.5 -69.5t44.5 -205.5q0 -135 -44.5 -204.5t-128.5 -69.5zM181 112q8 0 12 4.5t7.5 21t4.5 47t1 83.5q0 94 -5 121.5t-20 27.5q-10 0 -15 -8t-8 -41t-3 -100q0 -64 2.5 -98t8 -46t15.5 -12zM237 560
q-30 0 -59.5 28t-39.5 28q-24 0 -24 -54h-76q0 95 21 137t68 42q30 0 59.5 -28t39.5 -28q24 0 24 54h76q0 -95 -21.5 -137t-67.5 -42z" />
    <glyph glyph-name="odieresis" unicode="&#xf6;" horiz-adv-x="362" 
d="M181 -7q-84 0 -128.5 69.5t-44.5 204.5q0 275 173 275q84 0 128.5 -69.5t44.5 -205.5q0 -135 -44.5 -204.5t-128.5 -69.5zM181 112q8 0 12 4.5t7.5 21t4.5 47t1 83.5q0 94 -5 121.5t-20 27.5q-10 0 -15 -8t-8 -41t-3 -100q0 -64 2.5 -98t8 -46t15.5 -12zM201 582v137h120
v-137h-120zM41 582v137h120v-137h-120z" />
    <glyph glyph-name="divide" unicode="&#xf7;" horiz-adv-x="417" 
d="M146 431v145h125v-145h-125zM20 257v134h377v-134h-377zM146 72v145h125v-145h-125z" />
    <glyph glyph-name="oslash" unicode="&#xf8;" horiz-adv-x="362" 
d="M315 463q39 -68 39 -196q0 -135 -44.5 -204.5t-128.5 -69.5q-33 0 -61 11l-29 -67l-84 33l42 98q-41 70 -41 199q0 275 173 275q35 0 64 -12l25 60l85 -33zM148 263l54 142q-7 12 -21 12q-13 0 -19 -8t-10 -41t-4 -100v-5zM213 262l-53 -136q6 -14 21 -14q11 0 16.5 4.5
t9.5 20.5t5 44.5t1 80.5z" />
    <glyph glyph-name="ugrave" unicode="&#xf9;" horiz-adv-x="377" 
d="M98 -7q-40 0 -59 21t-19 84v437h147v-385q0 -24 13 -24q19 0 29 5v404h147v-535h-147v56q-18 -24 -50.5 -43.5t-60.5 -19.5zM131 582l-76 151h135l52 -151h-111z" />
    <glyph glyph-name="uacute" unicode="&#xfa;" horiz-adv-x="377" 
d="M98 -7q-40 0 -59 21t-19 84v437h147v-385q0 -24 13 -24q19 0 29 5v404h147v-535h-147v56q-18 -24 -50.5 -43.5t-60.5 -19.5zM132 582l52 151h135l-76 -151h-111z" />
    <glyph glyph-name="ucircumflex" unicode="&#xfb;" horiz-adv-x="377" 
d="M98 -7q-40 0 -59 21t-19 84v437h147v-385q0 -24 13 -24q19 0 29 5v404h147v-535h-147v56q-18 -24 -50.5 -43.5t-60.5 -19.5zM66 577l71 156h102l70 -156h-88l-34 54l-34 -54h-87z" />
    <glyph glyph-name="udieresis" unicode="&#xfc;" horiz-adv-x="377" 
d="M98 -7q-40 0 -59 21t-19 84v437h147v-385q0 -24 13 -24q19 0 29 5v404h147v-535h-147v56q-18 -24 -50.5 -43.5t-60.5 -19.5zM207 582v137h120v-137h-120zM47 582v137h120v-137h-120z" />
    <glyph glyph-name="yacute" unicode="&#xfd;" horiz-adv-x="335" 
d="M68 -200q-60 0 -90 9l21 123q19 -3 33 -3q29 0 41.5 6.5t16.5 26.5l3 15l-105 558h159l16 -227q2 -20 4 -63.5t3 -59.5h2q4 68 9 122l23 228h144l-112 -571q-16 -82 -54 -123t-114 -41zM119 582l52 151h135l-76 -151h-111z" />
    <glyph glyph-name="thorn" unicode="&#xfe;" horiz-adv-x="375" 
d="M21 -200v940h147v-257q33 63 88 63q109 0 109 -278q0 -277 -110 -277q-57 0 -87 66v-257h-147zM192 121q9 0 13 9.5t6.5 41t2.5 95.5q0 48 -1 75.5t-4 43t-7 19.5t-11 4q-13 0 -23 -8v-274q12 -6 24 -6z" />
    <glyph glyph-name="ydieresis" unicode="&#xff;" horiz-adv-x="335" 
d="M68 -200q-60 0 -90 9l21 123q19 -3 33 -3q29 0 41.5 6.5t16.5 26.5l3 15l-105 558h159l16 -227q2 -20 4 -63.5t3 -59.5h2q4 68 9 122l23 228h144l-112 -571q-16 -82 -54 -123t-114 -41zM195 582v137h120v-137h-120zM35 582v137h120v-137h-120z" />
    <glyph glyph-name="dotlessi" unicode="&#x131;" horiz-adv-x="193" 
d="M23 0v535h147v-535h-147z" />
    <glyph glyph-name="Lslash" unicode="&#x141;" horiz-adv-x="307" 
d="M24 0v300l-25 -10v136l25 10v304h158v-240l25 10v-136l-25 -10v-233h123v-131h-281z" />
    <glyph glyph-name="lslash" unicode="&#x142;" horiz-adv-x="205" 
d="M29 0v301l-20 -7v122l20 7v317h147v-266l21 7v-122l-21 -7v-352h-147z" />
    <glyph glyph-name="OE" unicode="&#x152;" horiz-adv-x="529" 
d="M256 740h265v-136h-128v-148h91v-126h-91v-199h130v-131h-267q-21 -7 -51 -7q-100 0 -147 87t-47 290t47 290t147 87q30 0 51 -7zM205 133q22 0 27 43t5 194q0 149 -5 190.5t-27 41.5t-27 -41.5t-5 -190.5q0 -151 5 -194t27 -43z" />
    <glyph glyph-name="oe" unicode="&#x153;" horiz-adv-x="550" 
d="M181 -7q-84 0 -128.5 69.5t-44.5 204.5q0 275 173 275q60 0 98 -35q38 35 99 35q44 0 75 -17t48 -41.5t26.5 -63.5t12 -71.5t2.5 -76.5v-57h-193q0 -104 30 -104q14 0 20.5 15t7.5 56l136 -4q-11 -90 -48.5 -137.5t-116.5 -47.5q-58 0 -98 35q-40 -35 -99 -35zM349 305
h53q-1 72 -5 93t-19 21q-29 0 -29 -114zM181 112q8 0 12 4.5t7.5 21t4.5 47t1 83.5q0 94 -5 121.5t-20 27.5q-10 0 -15 -8t-8 -41t-3 -100q0 -64 2.5 -98t8 -46t15.5 -12z" />
    <glyph glyph-name="Scaron" unicode="&#x160;" horiz-adv-x="392" 
d="M195 -7q-47 0 -81 13t-53.5 33.5t-31.5 55t-16.5 67t-6.5 81.5l146 10q5 -81 13 -105.5t31 -24.5q32 0 32 51q0 12 -2 22.5t-8 22t-10.5 19.5t-15.5 20t-16.5 18.5t-20 21l-20.5 20.5q-30 31 -43.5 47.5t-35 48t-30.5 65.5t-9 75q0 91 44.5 142t130.5 51q100 0 140 -57.5
t44 -179.5l-147 -12q-1 53 -6 78.5t-10.5 30.5t-17.5 5q-23 0 -23 -41q0 -43 20 -73.5t60 -69.5q2 -1 3 -2l2.5 -2.5l2.5 -2.5l11 -11q28 -27 42 -43.5t33.5 -45.5t28 -63t8.5 -75q0 -92 -48 -141t-140 -49zM141 782l-71 156h87l34 -54l34 54h88l-70 -156h-102z" />
    <glyph glyph-name="scaron" unicode="&#x161;" horiz-adv-x="343" 
d="M171 -9q-88 0 -123.5 44t-44.5 129l128 16q10 -77 37 -77q22 0 22 23q0 12 -6.5 22.5t-14 16.5t-24.5 18t-26 20q-31 25 -50.5 46t-37.5 60t-18 84q0 80 47 116.5t102 36.5q76 0 117 -37.5t49 -125.5l-126 -20q-4 40 -10.5 52.5t-21.5 12.5q-17 0 -17 -21q0 -16 11 -32
t20 -23.5t35 -27.5q1 -1 15 -12t16.5 -13.5t15 -13t16 -15t13 -15t13 -17.5l9.5 -19t8.5 -22.5t4.5 -23.5t2 -27q0 -71 -42.5 -113t-118.5 -42zM119 577l-71 156h87l34 -54l34 54h88l-70 -156h-102z" />
    <glyph glyph-name="Ydieresis" unicode="&#x178;" horiz-adv-x="361" 
d="M101 0v231l-115 509h158l28 -174q10 -62 18 -137h2q3 35 19 138l27 173h137l-116 -509v-231h-158zM208 787v137h120v-137h-120zM48 787v137h120v-137h-120z" />
    <glyph glyph-name="Zcaron" unicode="&#x17d;" horiz-adv-x="341" 
d="M0 0v122l175 485h-159v133h318v-127l-175 -485h175v-128h-334zM121 782l-71 156h87l34 -54l34 54h88l-70 -156h-102z" />
    <glyph glyph-name="zcaron" unicode="&#x17e;" horiz-adv-x="309" 
d="M5 0v98l137 325h-122v112h279v-103l-138 -325h144v-107h-300zM108 577l-71 156h87l34 -54l34 54h88l-70 -156h-102z" />
    <glyph glyph-name="florin" unicode="&#x192;" horiz-adv-x="299" 
d="M-50 -200l17 124h18q19 0 27 8t11 30l50 348h-41l15 113h41l24 171q12 88 48 117t142 29h26l-17 -124h-18q-19 0 -27 -8t-11 -30l-21 -155h50l-15 -113h-50l-53 -364q-13 -94 -42.5 -120t-119.5 -26h-54z" />
    <glyph glyph-name="circumflex" unicode="&#x2c6;" 
d="M56 577l71 156h102l70 -156h-88l-34 54l-34 -54h-87z" />
    <glyph glyph-name="caron" unicode="&#x2c7;" 
d="M127 577l-71 156h87l34 -54l34 54h88l-70 -156h-102z" />
    <glyph glyph-name="breve" unicode="&#x2d8;" 
d="M178 579q-59 0 -83 37t-28 122h88q0 -5 0.5 -13t1 -13t1 -11.5t1.5 -10.5t2 -8.5t2.5 -7.5t3.5 -5.5t5 -3.5t6 -1t6 1t5 3.5t3.5 5.5t2.5 7.5t2 8.5t1.5 10.5t1 11.5t1 13t0.5 13h88q-4 -85 -28 -122t-83 -37z" />
    <glyph glyph-name="dotaccent" unicode="&#x2d9;" 
d="M63 579v141h149v-141h-149z" />
    <glyph glyph-name="ring" unicode="&#x2da;" 
d="M178 550q-43 0 -68.5 32t-25.5 84t25.5 83.5t68.5 31.5q40 0 67 -32t27 -83q0 -52 -25.5 -84t-68.5 -32zM178 616q26 0 26 47q0 46 -26 46t-26 -46q0 -47 26 -47z" />
    <glyph glyph-name="ogonek" unicode="&#x2db;" 
d="M139 -200q-40 0 -59 23t-19 57q0 33 16 67t39 53h62q-12 -10 -24 -37t-12 -52q0 -18 8 -27.5t18 -9.5q25 0 50 29l42 -33q-53 -70 -121 -70z" />
    <glyph glyph-name="tilde" unicode="&#x2dc;" 
d="M234 560q-30 0 -59.5 28t-39.5 28q-24 0 -24 -54h-76q0 95 21 137t68 42q30 0 59.5 -28t39.5 -28q24 0 24 54h76q0 -95 -21.5 -137t-67.5 -42z" />
    <glyph glyph-name="hungarumlaut" unicode="&#x2dd;" 
d="M164 582l51 151h139l-76 -151h-114zM0 582l51 151h138l-75 -151h-114z" />
    <glyph glyph-name="endash" unicode="&#x2013;" horiz-adv-x="389" 
d="M25 240v128h339v-128h-339z" />
    <glyph glyph-name="emdash" unicode="&#x2014;" horiz-adv-x="501" 
d="M25 240v128h451v-128h-451z" />
    <glyph glyph-name="quoteleft" unicode="&#x2018;" horiz-adv-x="215" 
d="M24 423v154l71 163h62l-39 -147h73v-170h-167z" />
    <glyph glyph-name="quoteright" unicode="&#x2019;" horiz-adv-x="215" 
d="M58 423l39 147h-73v170h167v-154l-71 -163h-62z" />
    <glyph glyph-name="quotesinglbase" unicode="&#x201a;" horiz-adv-x="215" 
d="M58 -147l39 147h-73v170h167v-154l-71 -163h-62z" />
    <glyph glyph-name="quotedblleft" unicode="&#x201c;" horiz-adv-x="407" 
d="M221 433v149l69 158h60l-38 -142h71v-165h-162zM24 433v149l69 158h60l-38 -142h71v-165h-162z" />
    <glyph glyph-name="quotedblright" unicode="&#x201d;" horiz-adv-x="407" 
d="M254 433l38 142h-71v165h162v-149l-69 -158h-60zM57 433l38 142h-71v165h162v-149l-69 -158h-60z" />
    <glyph glyph-name="quotedblbase" unicode="&#x201e;" horiz-adv-x="407" 
d="M254 -142l38 142h-71v165h162v-149l-69 -158h-60zM57 -142l38 142h-71v165h162v-149l-69 -158h-60z" />
    <glyph glyph-name="dagger" unicode="&#x2020;" horiz-adv-x="379" 
d="M114 -200l19 576l-114 -9v129l114 -10l-19 254h150l-18 -254l114 10v-129l-114 9l18 -576h-150z" />
    <glyph glyph-name="daggerdbl" unicode="&#x2021;" horiz-adv-x="377" 
d="M114 -200l18 207l-113 -10v129l113 -9l-16 156l16 151l-113 -9v129l113 -10l-18 206h150l-19 -206l113 10v-129l-113 9l17 -151l-17 -156l113 9v-129l-113 10l19 -207h-150z" />
    <glyph glyph-name="bullet" unicode="&#x2022;" horiz-adv-x="463" 
d="M231 237q-49 0 -81 32t-32 81t32 81.5t81 32.5t81.5 -32t32.5 -82q0 -49 -32.5 -81t-81.5 -32z" />
    <glyph glyph-name="ellipsis" unicode="&#x2026;" horiz-adv-x="665" 
d="M474 0v170h167v-170h-167zM249 0v170h167v-170h-167zM24 0v170h167v-170h-167z" />
    <glyph glyph-name="perthousand" unicode="&#x2030;" horiz-adv-x="988" 
d="M148 312q-142 0 -142 215q0 220 143 220q142 0 142 -216q0 -219 -143 -219zM163 0l243 740h113l-243 -740h-113zM839 -7q-142 0 -142 215q0 220 143 220q142 0 142 -216q0 -219 -143 -219zM534 -7q-142 0 -142 215q0 220 143 220q142 0 142 -216q0 -219 -143 -219z
M149 413q10 0 13 20.5t3 95.5q0 73 -3 92.5t-14 19.5t-13.5 -18t-2.5 -92q0 -76 3 -97t14 -21zM840 94q10 0 13 20.5t3 95.5q0 41 -0.5 62.5t-3 33t-5 14t-8.5 2.5q-11 0 -13.5 -18t-2.5 -92q0 -41 0.5 -63.5t2.5 -35.5t5 -16t9 -3zM535 94q10 0 13 20.5t3 95.5
q0 41 -0.5 62.5t-3 33t-5 14t-8.5 2.5q-11 0 -13.5 -18t-2.5 -92q0 -41 0.5 -63.5t2.5 -35.5t5 -16t9 -3z" />
    <glyph glyph-name="guilsinglleft" unicode="&#x2039;" horiz-adv-x="222" 
d="M79 0l-72 269l72 266h132l-71 -267l71 -268h-132z" />
    <glyph glyph-name="guilsinglright" unicode="&#x203a;" horiz-adv-x="222" 
d="M11 0l71 268l-71 267h132l72 -266l-72 -269h-132z" />
    <glyph glyph-name="fraction" unicode="&#x2044;" horiz-adv-x="311" 
d="M-5 0l194 740h127l-193 -740h-128z" />
    <glyph glyph-name="Euro" unicode="&#x20ac;" horiz-adv-x="433" 
d="M239 -7q-83 0 -128 58t-58 192h-44v115h39v25h-39v115h44q13 134 58 191.5t128 57.5q96 0 136 -65t46 -199l-136 -6q0 75 -9 100t-30 25q-18 0 -27 -22.5t-10 -81.5h64v-115h-64v-25h64v-115h-63q1 -65 9.5 -87.5t28.5 -22.5q23 0 31.5 23t9.5 106l134 -6
q-2 -44 -6 -76.5t-15.5 -70t-30.5 -61t-52.5 -39.5t-79.5 -16z" />
    <glyph glyph-name="recordright" unicode="&#x2117;" horiz-adv-x="474" 
d="M236 -14q-104 0 -163 107t-59 275t60.5 277t163.5 109q104 0 163 -107t59 -275t-60.5 -277t-163.5 -109zM236 36q84 0 128 94.5t44 241.5q0 96 -17 168.5t-56 118t-97 45.5q-84 0 -128 -94.5t-44 -241.5q0 -96 17 -168.5t56 -118t97 -45.5zM152 167v415h93q54 0 81 -33
t27 -107q0 -143 -108 -143h-4v-132h-89zM241 388h5q8 0 12.5 2t8.5 14t4 35t-4.5 35t-8.5 13.5t-12 1.5h-5v-101z" />
    <glyph glyph-name="trademark" unicode="&#x2122;" horiz-adv-x="536" 
d="M224 317v423h121l26 -251l26 251h120v-423h-87v253l-27 -253h-69l-28 250v-250h-82zM62 317v316h-50v107h188v-107h-49v-316h-89z" />
    <glyph glyph-name="minus" unicode="&#x2212;" horiz-adv-x="417" 
d="M20 287v134h377v-134h-377z" />
    <glyph glyph-name="radical" unicode="&#x221a;" horiz-adv-x="385" 
d="M99 -2l-86 527h138l14 -182q10 -137 10 -146h2q1 6 4.5 59.5t7.5 87.5l45 395h139l-121 -741h-153z" />
    <glyph glyph-name="registered.alt" unicode="&#xe000;" horiz-adv-x="348" 
d="M174 294q-63 0 -98.5 64t-35.5 165t36.5 166t98.5 65t97.5 -64t35.5 -165t-36 -166t-98 -65zM174 324q50 0 76.5 56.5t26.5 144.5q0 89 -25.5 144t-76.5 55t-77 -56.5t-26 -144.5q0 -89 25.5 -144t76.5 -55zM118 405v249h55q64 0 64 -85q0 -53 -18 -74l21 -90h-51l-17 80
h-4v-80h-50zM168 536h3q15 0 15 32q0 30 -15 30h-3v-62z" />
    <glyph glyph-name="fl" unicode="&#xfb02;" horiz-adv-x="398" 
d="M228 422h-41v-422h-146v422h-41v113h41v59q0 35 6.5 59t25 45t55.5 31.5t94 10.5h153v-740h-147v422zM228 622h-9q-18 0 -25 -10t-7 -34v-43h41v87z" />
    </font>
</defs>
</svg>
