<?xml version="1.0" standalone="no"?>
<!DOCTYPE svg PUBLIC "-//W3C//DTD SVG 1.1//EN" "http://www.w3.org/Graphics/SVG/1.1/DTD/svg11.dtd" >
<svg xmlns="http://www.w3.org/2000/svg" xmlns:xlink="http://www.w3.org/1999/xlink" version="1.1">
<metadata>
Created by FontForge 20161003 at Sun Sep 22 16:56:31 2019
 By www-data
Copyright 2000-2003, The Font Bureau, Inc. Designed by Cyrus Highsmith, Tobias Frere-Jones, and Font Bureau. All rights reserved.
</metadata>
<defs>
<font id="BentonSansExtraCompBold" horiz-adv-x="334" >
  <font-face 
    font-family="BentonSansExtraCompBold"
    font-weight="400"
    font-stretch="normal"
    units-per-em="1000"
    panose-1="2 0 5 6 4 0 0 2 0 4"
    ascent="800"
    descent="-200"
    x-height="533"
    cap-height="740"
    bbox="-55 -210 907 938"
    underline-thickness="20"
    underline-position="-153"
    unicode-range="U+0020-FB0C"
  />
<missing-glyph horiz-adv-x="780" 
d="M203 558v58l132 -9l-6 133h124l-7 -133l133 9v-58h57l-9 -133l133 6v-124l-133 7l9 -132h-57v-57l-133 8l7 -133h-124l6 133l-132 -8v57h-59l9 132l-133 -7v124l133 -6l-9 133h59zM537 517l-91 6v-98h97zM335 425v98l-92 -6l-6 -92h98zM446 314v-97l91 6l6 91h-97z
M242 223l93 -6v97h-98z" />
    <glyph glyph-name="ff" unicode="ff" horiz-adv-x="412" 
d="M48 0v438h-43v95h43v71q0 68 35 102t125 34h6v-103h-9q-19 0 -27.5 -10t-8.5 -34v-60h65v71q0 68 34.5 102t125.5 34h15v-103h-18q-20 0 -28.5 -10t-8.5 -34v-60h54v-95h-54v-438h-120v438h-65v-438h-121z" />
    <glyph glyph-name="fi" unicode="fi" horiz-adv-x="385" 
d="M232 600v120h123v-120h-123zM48 0v438h-43v95h43v71q0 68 35 102t125 34h6v-103h-9q-19 0 -27.5 -10t-8.5 -34v-60h44v-95h-44v-438h-121zM233 0v533h121v-533h-121z" />
    <glyph glyph-name="ffi" unicode="ffi" horiz-adv-x="571" 
d="M417 600v120h124v-120h-124zM48 0v438h-43v95h43v71q0 68 35 102t125 34h6v-103h-9q-19 0 -27.5 -10t-8.5 -34v-60h65v71q0 68 35 102t125 34h6v-103h-9q-37 0 -37 -44v-60h45v-95h-45v-438h-120v438h-65v-438h-121zM418 0v533h122v-533h-122z" />
    <glyph glyph-name="ffl" unicode="ffl" horiz-adv-x="571" 
d="M418 0v740h122v-740h-122zM48 0v438h-43v95h43v71q0 68 35 102t125 34h6v-103h-9q-19 0 -27.5 -10t-8.5 -34v-60h65v71q0 68 35 102t125 34h6v-103h-9q-37 0 -37 -44v-60h45v-95h-45v-438h-120v438h-65v-438h-121z" />
    <glyph glyph-name="fj" unicode="fj" horiz-adv-x="385" 
d="M232 600v120h123v-120h-123zM48 0v438h-43v95h43v71q0 68 35 102t125 34h6v-103h-9q-19 0 -27.5 -10t-8.5 -34v-60h44v-95h-44v-438h-121zM192 -200v101h15q26 0 26 37v595h121v-581q0 -84 -30 -118t-99 -34h-33z" />
    <glyph glyph-name=".notdef" horiz-adv-x="780" 
d="M203 558v58l132 -9l-6 133h124l-7 -133l133 9v-58h57l-9 -133l133 6v-124l-133 7l9 -132h-57v-57l-133 8l7 -133h-124l6 133l-132 -8v57h-59l9 132l-133 -7v124l133 -6l-9 133h59zM537 517l-91 6v-98h97zM335 425v98l-92 -6l-6 -92h98zM446 314v-97l91 6l6 91h-97z
M242 223l93 -6v97h-98z" />
    <glyph glyph-name=".null" horiz-adv-x="0" 
 />
    <glyph glyph-name="nonmarkingreturn" horiz-adv-x="333" 
 />
    <glyph glyph-name="space" unicode=" " horiz-adv-x="136" 
 />
    <glyph glyph-name="exclam" unicode="!" horiz-adv-x="224" 
d="M55 194l-10 546h134l-10 -546h-114zM43 0v132h138v-132h-138z" />
    <glyph glyph-name="quotedbl" unicode="&#x22;" 
d="M196 471l-9 218v51h122v-51l-9 -218h-104zM35 471l-10 218v51h123v-51l-9 -218h-104z" />
    <glyph glyph-name="numbersign" unicode="#" horiz-adv-x="432" 
d="M38 0l24 209h-55v103h67l14 116h-57v103h69l24 209h110l-24 -209h51l23 209h110l-24 -209h56v-103h-68l-14 -116h58v-103h-70l-23 -209h-111l24 209h-49l-24 -209h-111zM182 305h55l15 130h-56z" />
    <glyph glyph-name="dollar" unicode="$" horiz-adv-x="381" 
d="M141 735v84h106v-87q29 -10 50.5 -30t33.5 -48.5t18.5 -56.5t9.5 -64l-116 -13q-6 68 -18 90t-35 22q-37 0 -37 -54q0 -45 19 -80.5t58 -77.5q4 -4 26 -27t28.5 -31t24 -29t24.5 -34.5t17 -34t13.5 -41.5t3.5 -44q0 -146 -120 -174v-98h-106v99q-35 9 -60 31t-38.5 55
t-20.5 63t-11 71l117 11q8 -75 23 -104t41 -29q47 0 47 51q0 43 -21.5 79t-64.5 82q-32 34 -46.5 50.5t-38 50t-33.5 67t-10 72.5q0 70 29.5 117.5t86.5 61.5z" />
    <glyph glyph-name="percent" unicode="%" horiz-adv-x="654" 
d="M149 312q-128 0 -128 216q0 219 129 219q128 0 128 -216q0 -219 -129 -219zM158 0l243 740h95l-243 -740h-95zM504 -7q-128 0 -128 215q0 220 129 220q128 0 128 -216q0 -219 -129 -219zM150 398q15 0 19 26t4 105q0 77 -4.5 102.5t-19.5 25.5t-19 -24t-4 -102
q0 -80 4.5 -106.5t19.5 -26.5zM505 79q15 0 19 26t4 105q0 80 -4.5 104t-19.5 24t-19 -24.5t-4 -101.5q0 -81 4.5 -107t19.5 -26z" />
    <glyph glyph-name="ampersand" unicode="&#x26;" horiz-adv-x="450" 
d="M184 -6q-84 0 -131 47t-47 130q0 121 102 225q-41 102 -41 176q0 91 45.5 133.5t104.5 42.5q133 0 133 -148q0 -116 -117 -222q3 -7 6 -13.5t7.5 -15.5l7.5 -15q23 -46 55 -94q13 56 18 150h103q-10 -141 -41 -234q29 -34 56 -40v-118q-61 4 -118 55q-54 -59 -143 -59z
M199 463q46 63 46 127q0 54 -30 54q-36 0 -36 -65q0 -54 20 -116zM197 94q34 0 58 29q-38 49 -78 123q-18 33 -22 45q-28 -54 -28 -112q0 -35 16.5 -60t53.5 -25z" />
    <glyph glyph-name="quotesingle" unicode="'" horiz-adv-x="177" 
d="M35 471l-10 218v51h127v-51l-9 -218h-108z" />
    <glyph glyph-name="parenleft" unicode="(" horiz-adv-x="272" 
d="M169 -205q-137 211 -137 475t137 475l93 -31q-101 -210 -101 -444q0 -247 101 -444z" />
    <glyph glyph-name="parenright" unicode=")" horiz-adv-x="272" 
d="M103 -205l-93 32q101 209 101 443q0 247 -101 444l93 31q137 -211 137 -475t-137 -475z" />
    <glyph glyph-name="asterisk" unicode="*" horiz-adv-x="458" 
d="M182 350l-99 58l91 107l-143 -26v115l150 -29l-102 112l103 58l48 -136l49 136l103 -57l-98 -111l143 27v-115l-140 26l94 -107l-101 -58l-50 134z" />
    <glyph glyph-name="plus" unicode="+" horiz-adv-x="400" 
d="M140 122v169h-116v111h116v169h119v-169h116v-111h-116v-169h-119z" />
    <glyph glyph-name="comma" unicode="," horiz-adv-x="202" 
d="M58 -120l35 120h-61v147h138v-141l-60 -126h-52z" />
    <glyph glyph-name="hyphen" unicode="-" horiz-adv-x="248" 
d="M21 254v106h206v-106h-206z" />
    <glyph glyph-name="period" unicode="." horiz-adv-x="202" 
d="M32 0v147h138v-147h-138z" />
    <glyph glyph-name="slash" unicode="/" horiz-adv-x="328" 
d="M-9 0l236 740h110l-237 -740h-109z" />
    <glyph glyph-name="zero" unicode="0" horiz-adv-x="389" 
d="M195 -7q-63 0 -100.5 31.5t-58 115t-20.5 230.5t20.5 230.5t58 115t100.5 31.5t100 -31.5t57 -115t20 -230.5t-20 -230.5t-57 -115t-100 -31.5zM195 100q30 0 39 51t9 219q0 166 -9 216t-39 50q-16 0 -25 -10t-15 -40t-8 -80t-2 -136t2 -136.5t8 -81.5t15 -41.5t25 -10.5
z" />
    <glyph glyph-name="one" unicode="1" horiz-adv-x="299" 
d="M17 0v109h78v507q-36 -34 -77 -34v110q53 3 79 48h126v-631h65v-109h-271z" />
    <glyph glyph-name="two" unicode="2" horiz-adv-x="378" 
d="M15 0v16q0 70 12 127t31 95t41.5 70t45.5 59t42 54.5t31 64t12 79.5q0 71 -38 71q-21 0 -32 -25t-18 -105l-119 8q5 74 20.5 122.5t53 79.5t97.5 31q161 0 161 -184q0 -58 -21.5 -112.5t-52 -96.5t-61 -81t-52.5 -81.5t-23 -82.5h212v-109h-342z" />
    <glyph glyph-name="three" unicode="3" horiz-adv-x="374" 
d="M182 -7q-49 0 -81.5 16t-49 50t-23 63t-12.5 79l119 11q7 -71 18 -93t32 -22q45 0 45 105q0 91 -20.5 117.5t-84.5 26.5h-14v96h18q61 0 77 21t16 101q0 40 -8 58t-30 18q-18 0 -27.5 -21.5t-16.5 -78.5l-116 14q21 193 165 193q87 0 121 -49t34 -135q0 -145 -94 -169
q55 -17 78.5 -59.5t23.5 -130.5q0 -211 -170 -211z" />
    <glyph glyph-name="four" unicode="4" horiz-adv-x="392" 
d="M197 0v160h-189v95l178 485h137v-475h54v-105h-54v-160h-126zM119 265h85v246h-1z" />
    <glyph glyph-name="five" unicode="5" horiz-adv-x="379" 
d="M179 -7q-39 0 -67.5 12.5t-44 30t-26.5 49t-15 55t-8 62.5l119 11q7 -70 17 -93t30 -23q27 0 37 34t10 117q0 78 -9.5 108.5t-30.5 30.5q-17 0 -28 -15.5t-21 -47.5l-110 8l15 408h289l-6 -113h-171l-9 -190q23 62 92 62q57 0 86 -57t29 -191q0 -139 -41.5 -198.5
t-136.5 -59.5z" />
    <glyph glyph-name="six" unicode="6" horiz-adv-x="373" 
d="M190 -7q-91 0 -132.5 86t-41.5 278q0 92 7 156t25 120.5t55.5 85t93.5 28.5q63 0 97.5 -39t50.5 -130l-107 -21q-7 41 -15.5 59t-27.5 18q-31 0 -41.5 -44t-12.5 -165q36 51 91 51q51 0 80.5 -37t38 -87t8.5 -122q0 -108 -41 -172.5t-128 -64.5zM194 93q24 0 34 29
t10 100q0 69 -9.5 98.5t-33.5 29.5q-31 0 -54 -30q1 -125 12.5 -176t40.5 -51z" />
    <glyph glyph-name="seven" unicode="7" horiz-adv-x="333" 
d="M38 0l155 627h-185v113h313v-110l-152 -630h-131z" />
    <glyph glyph-name="eight" unicode="8" horiz-adv-x="383" 
d="M192 -12q-92 0 -135 52.5t-43 133.5q0 106 101 209q-46 50 -59 77q-25 48 -25 113q0 81 43 130t118 49q77 0 118.5 -49t41.5 -130q0 -98 -84 -188q25 -24 38.5 -39t30.5 -41t24.5 -58t7.5 -73q0 -81 -46.5 -133.5t-130.5 -52.5zM196 461q40 56 40 113q0 70 -41 70
q-43 0 -43 -67q0 -61 44 -116zM190 92q51 0 51 80q0 67 -51 133q-52 -65 -52 -133q0 -80 52 -80z" />
    <glyph glyph-name="nine" unicode="9" horiz-adv-x="373" 
d="M180 -7q-65 0 -101.5 39t-49.5 129l107 21q12 -87 44 -87q30 0 39.5 49t11.5 171q-36 -51 -91 -51q-51 0 -80.5 37t-38 87t-8.5 122q0 108 41 172.5t129 64.5q91 0 132 -86t41 -278q0 -92 -6.5 -156t-24.5 -120.5t-54.5 -85t-90.5 -28.5zM178 383q31 0 53 32
q-1 124 -12 172.5t-40 48.5q-24 0 -34 -24.5t-10 -93.5q0 -75 8.5 -105t34.5 -30z" />
    <glyph glyph-name="colon" unicode=":" horiz-adv-x="202" 
d="M33 387v146h136v-146h-136zM33 0v145h136v-145h-136z" />
    <glyph glyph-name="semicolon" unicode=";" horiz-adv-x="202" 
d="M33 387v146h136v-146h-136zM58 -120l35 120h-60v145h136v-139l-59 -126h-52z" />
    <glyph glyph-name="less" unicode="&#x3c;" horiz-adv-x="400" 
d="M339 83l-283 190v103l283 190v-122l-176 -120l176 -119v-122z" />
    <glyph glyph-name="equal" unicode="=" horiz-adv-x="400" 
d="M28 366v105h344v-105h-344zM28 178v105h344v-105h-344z" />
    <glyph glyph-name="greater" unicode="&#x3e;" horiz-adv-x="400" 
d="M61 83v122l176 120l-176 119v122l282 -190v-103z" />
    <glyph glyph-name="question" unicode="?" horiz-adv-x="326" 
d="M89 194q0 58 10 103.5t18.5 63t27.5 51.5q18 30 25 44.5t15.5 47t8.5 70.5q0 62 -30 62q-21 0 -31 -24t-15 -81l-120 12q10 106 52.5 155t120.5 49q75 0 112 -45.5t37 -116.5q0 -38 -8 -72.5t-15 -50t-26.5 -49t-24.5 -42.5q-41 -77 -41 -177h-116zM78 0v132h138v-132
h-138z" />
    <glyph glyph-name="at" unicode="@" horiz-adv-x="543" 
d="M272 -14q-128 0 -190 93t-62 291q0 192 67 288t185 96q115 0 183 -97.5t68 -276.5q0 -120 -31 -171.5t-103 -51.5q-78 0 -96 72q-10 -32 -30.5 -52t-48.5 -20q-96 0 -84 199q5 119 32.5 177t80.5 58q23 0 40.5 -15t22.5 -41l4 47h89l-19 -294q-4 -42 2 -55.5t24 -13.5
t28.5 9t19 47t8.5 108q0 166 -51 243.5t-141 77.5q-92 0 -142 -76t-50 -255q0 -180 50 -255.5t142 -75.5q38 0 82.5 9t68.5 24l22 -50q-25 -17 -77.5 -28t-93.5 -11zM249 244q13 0 33 20l18 222q-11 20 -29 20q-36 0 -44 -140q-6 -122 22 -122z" />
    <glyph glyph-name="A" unicode="A" horiz-adv-x="377" 
d="M0 0l122 743h134l121 -743h-131l-21 166h-82l-21 -166h-122zM150 255h68q-3 24 -12.5 103t-11.5 96q-2 12 -9 82h-1q-1 -10 -9 -82q-7 -61 -25 -199z" />
    <glyph glyph-name="B" unicode="B" horiz-adv-x="385" 
d="M32 0v740h144q179 0 179 -187q0 -81 -22 -118.5t-61 -52.5v-2q46 -15 72 -54.5t26 -125.5q0 -200 -182 -200h-156zM158 425h19q26 0 39.5 22t13.5 82t-12 80.5t-41 20.5h-19v-205zM158 99h25q30 0 44.5 27.5t14.5 89.5q0 66 -16.5 93t-48.5 27h-19v-237z" />
    <glyph glyph-name="C" unicode="C" horiz-adv-x="377" 
d="M198 -7q-95 0 -138 86t-43 291q0 204 43 290.5t137 86.5q90 0 128 -61.5t39 -222.5l-122 -5q-1 99 -11 134.5t-34 35.5q-31 0 -39.5 -54.5t-8.5 -203.5q0 -151 9 -206t40 -55q27 0 36.5 32.5t12.5 134.5l122 -5q-3 -65 -10.5 -109t-25 -85.5t-51 -62.5t-84.5 -21z" />
    <glyph glyph-name="D" unicode="D" horiz-adv-x="401" 
d="M32 0v740h127q59 0 97.5 -14t69 -52.5t44.5 -113t14 -190.5q0 -93 -10 -159t-27.5 -106.5t-47 -64t-62 -32t-78.5 -8.5h-127zM161 109h19q46 0 59 52t13 209q0 158 -13 207.5t-60 49.5h-18v-518z" />
    <glyph glyph-name="E" unicode="E" horiz-adv-x="310" 
d="M32 0v740h265v-113h-136v-181h95v-106h-95v-231h141v-109h-270z" />
    <glyph glyph-name="F" unicode="F" horiz-adv-x="307" 
d="M32 0v740h271v-113h-142v-189h105v-105h-105v-333h-129z" />
    <glyph glyph-name="G" unicode="G" horiz-adv-x="392" 
d="M178 -5q-87 0 -124 85t-37 290q0 203 43.5 290t136.5 87q86 0 121.5 -66t42.5 -218l-119 -5q-1 99 -11 134.5t-34 35.5q-31 0 -40 -56t-9 -202q0 -152 9.5 -207.5t46.5 -55.5q30 0 40.5 34t12.5 120h-58v102h167v-363h-73l-2 83h-1q-8 -37 -38 -62.5t-74 -25.5z" />
    <glyph glyph-name="H" unicode="H" horiz-adv-x="405" 
d="M32 0v740h129v-295h83v295h129v-740h-129v339h-83v-339h-129z" />
    <glyph glyph-name="I" unicode="I" horiz-adv-x="203" 
d="M37 0v740h129v-740h-129z" />
    <glyph glyph-name="J" unicode="J" horiz-adv-x="300" 
d="M-3 14l31 101q38 -15 70 -15q22 0 32 14.5t10 48.5v577h130v-586q0 -93 -38 -128t-109 -35q-64 0 -126 23z" />
    <glyph glyph-name="K" unicode="K" horiz-adv-x="363" 
d="M32 0v740h126v-313q20 87 43 158l50 155h111l-100 -288l115 -452h-129l-72 309l-18 -56v-253h-126z" />
    <glyph glyph-name="L" unicode="L" horiz-adv-x="299" 
d="M32 0v740h129v-631h134v-109h-263z" />
    <glyph glyph-name="M" unicode="M" horiz-adv-x="489" 
d="M32 0v740h153l59 -459h1l59 459h153v-740h-122v332q0 28 0.5 77t0.5 67h-2q-5 -64 -16 -154l-48 -322h-67l-49 321q-7 53 -16 154h-2q1 -21 1 -143v-332h-105z" />
    <glyph glyph-name="N" unicode="N" horiz-adv-x="393" 
d="M32 0v740h121l57 -226q31 -130 44 -205h2q-6 86 -6 203v228h111v-740h-106l-65 234q-44 159 -51 201h-2q6 -58 6 -201v-234h-111z" />
    <glyph glyph-name="O" unicode="O" horiz-adv-x="401" 
d="M200 -7q-94 0 -138.5 87.5t-44.5 289.5t44.5 289.5t138.5 87.5t138.5 -87.5t44.5 -289.5t-44.5 -289.5t-138.5 -87.5zM200 109q32 0 41.5 54.5t9.5 206.5t-9.5 205t-41.5 53q-31 0 -40.5 -53t-9.5 -205t9.5 -206.5t40.5 -54.5z" />
    <glyph glyph-name="P" unicode="P" horiz-adv-x="375" 
d="M32 0v740h150q38 0 68 -9.5t58 -34t43 -74t15 -121.5q0 -81 -16 -134t-46 -76.5t-58 -31t-68 -7.5h-19v-252h-127zM159 361h21q30 0 44.5 27t14.5 111q0 79 -14.5 103.5t-45.5 24.5h-20v-266z" />
    <glyph glyph-name="Q" unicode="Q" horiz-adv-x="402" 
d="M309 -198q-53 0 -86.5 14.5t-49 45t-20.5 61t-5 78.5q-66 21 -98.5 109.5t-32.5 259.5q0 202 44.5 289.5t138.5 87.5t139 -87.5t45 -289.5q0 -334 -133 -369q0 -51 16 -68.5t57 -17.5h21v-113h-36zM200 103q32 0 41.5 57t9.5 210q0 152 -9.5 205t-41.5 53
q-31 0 -40.5 -53t-9.5 -205q0 -153 9.5 -210t40.5 -57z" />
    <glyph glyph-name="R" unicode="R" horiz-adv-x="382" 
d="M32 0v740h152q82 0 131.5 -57t49.5 -178q0 -148 -70 -195l79 -310h-127l-65 268h-24v-268h-126zM158 364h24q28 0 41 30.5t13 108.5q0 73 -13 98.5t-42 25.5h-23v-263z" />
    <glyph glyph-name="S" unicode="S" horiz-adv-x="374" 
d="M187 -7q-52 0 -86 16.5t-52.5 50.5t-26.5 71.5t-12 95.5l120 9q8 -80 19.5 -107.5t38.5 -27.5q45 0 45 66q0 13 -2 25t-8.5 25.5t-10.5 21t-16.5 23t-16.5 20.5t-20.5 23.5t-20.5 22.5q-30 34 -43 50t-34 48.5t-30 66t-9 72.5q0 85 41.5 133.5t118.5 48.5q89 0 126.5 -53
t44.5 -166l-121 -11q-4 74 -14.5 96t-33.5 22q-34 0 -34 -57q0 -26 6 -47.5t23.5 -46t25.5 -34t36 -39.5q61 -66 80 -96q39 -62 39 -141q0 -88 -44.5 -134.5t-128.5 -46.5z" />
    <glyph glyph-name="T" unicode="T" horiz-adv-x="328" 
d="M99 0v627h-97v113h323v-113h-96v-627h-130z" />
    <glyph glyph-name="U" unicode="U" horiz-adv-x="394" 
d="M196 -7q-91 0 -128.5 53t-37.5 161v533h129v-525q0 -67 8 -90.5t33 -23.5t33 23t8 89v527h123v-530q0 -110 -38.5 -163.5t-129.5 -53.5z" />
    <glyph glyph-name="V" unicode="V" horiz-adv-x="367" 
d="M116 -3l-116 743h130l41 -366q5 -45 16 -187h2q6 88 16 187l40 366h122l-117 -743h-134z" />
    <glyph glyph-name="W" unicode="W" horiz-adv-x="531" 
d="M96 -2l-91 742h127l30 -352q8 -117 9 -156h1q8 96 14 156l42 352h92l36 -349q10 -89 13 -159h1q5 93 10 158l29 350h118l-93 -742h-119l-49 470h-1l-49 -470h-120z" />
    <glyph glyph-name="X" unicode="X" horiz-adv-x="365" 
d="M-3 0l116 399l-101 341h127l54 -210l51 210h107l-101 -350l117 -390h-127l-69 262l-68 -262h-106z" />
    <glyph glyph-name="Y" unicode="Y" horiz-adv-x="346" 
d="M107 0v244l-115 496h130l38 -198q18 -112 20 -132h2q2 29 21 132l36 198h114l-116 -496v-244h-130z" />
    <glyph glyph-name="Z" unicode="Z" horiz-adv-x="333" 
d="M6 0v100l183 530h-167v110h298v-104l-183 -530h183v-106h-314z" />
    <glyph glyph-name="bracketleft" unicode="[" horiz-adv-x="249" 
d="M29 -200v940h209v-97h-81v-750h81v-93h-209z" />
    <glyph glyph-name="backslash" unicode="\" horiz-adv-x="327" 
d="M227 0l-236 740h109l237 -740h-110z" />
    <glyph glyph-name="bracketright" unicode="]" horiz-adv-x="249" 
d="M11 -200v93h81v750h-81v97h210v-940h-210z" />
    <glyph glyph-name="asciicircum" unicode="^" 
d="M56 577l71 156h81l70 -156h-72l-39 58l-39 -58h-72z" />
    <glyph glyph-name="underscore" unicode="_" horiz-adv-x="312" 
d="M-22 -141v96h356v-96h-356z" />
    <glyph glyph-name="grave" unicode="`" 
d="M113 582l-76 151h114l52 -151h-90z" />
    <glyph glyph-name="a" unicode="a" horiz-adv-x="338" 
d="M107 -4q-95 0 -95 138q0 164 183 217v40q0 28 -5 39t-19 11q-15 0 -23 -12t-14 -42l-107 16q17 77 56 107t101 30q67 0 97 -35t30 -112v-263q0 -94 8 -130h-117q-7 21 -7 61q-32 -65 -88 -65zM157 104q20 0 38 22v140q-66 -31 -66 -117q0 -45 28 -45z" />
    <glyph glyph-name="b" unicode="b" horiz-adv-x="359" 
d="M234 -5q-56 0 -85 65v-60h-122v740h122v-263q33 63 86 63q109 0 109 -273q0 -272 -110 -272zM186 103q13 0 19.5 12t10 47t3.5 104q0 99 -7 129.5t-27 30.5q-18 0 -36 -23v-278q17 -22 37 -22z" />
    <glyph glyph-name="c" unicode="c" horiz-adv-x="331" 
d="M173 -7q-159 0 -159 273q0 274 159 274q73 0 107.5 -49.5t42.5 -146.5l-117 -7q-2 32 -3.5 44t-5 28.5t-9 21.5t-15.5 5q-22 0 -30 -35t-8 -134t7.5 -137t30.5 -38q18 0 25.5 24t9.5 85l115 -4q-11 -204 -150 -204z" />
    <glyph glyph-name="d" unicode="d" horiz-adv-x="359" 
d="M124 -5q-53 0 -81 62t-28 208q0 275 110 275q55 0 85 -66v266h122v-610q0 -95 9 -130h-125l-6 57q-32 -62 -86 -62zM175 104q19 0 35 23v276q-17 25 -36 25q-20 0 -27 -31.5t-7 -130.5t7 -130.5t28 -31.5z" />
    <glyph glyph-name="e" unicode="e" horiz-adv-x="338" 
d="M173 -7q-159 0 -159 273q0 274 159 274q40 0 68.5 -16.5t44.5 -41t24.5 -63t11 -71.5t2.5 -77v-44h-192q0 -69 9 -102t33 -33q19 0 27 17t11 64l112 -4q-10 -87 -45.5 -131.5t-105.5 -44.5zM132 304h76q-1 76 -8 104.5t-27 28.5q-21 0 -30.5 -29t-10.5 -104z" />
    <glyph glyph-name="f" unicode="f" horiz-adv-x="226" 
d="M48 0v438h-43v95h43v71q0 68 29.5 102t106.5 34h39v-103h-18q-20 0 -28 -9.5t-8 -34.5v-60h53v-95h-53v-438h-121z" />
    <glyph glyph-name="g" unicode="g" horiz-adv-x="343" 
d="M151 -200q-78 0 -115.5 30.5t-37.5 77.5q0 34 20 65.5t50 47.5q-49 21 -49 78q0 20 13 44.5t37 43.5q-55 49 -55 158q0 95 42 145t109 50q64 0 103 -44q14 19 35 33t37 18v-126q-27 0 -33 -4q8 -34 8 -72q0 -98 -41.5 -145t-108.5 -47q-24 0 -39 5q-9 -10 -9 -21
q0 -21 28 -26l54 -10q75 -12 105 -44t30 -99q0 -70 -51 -114t-132 -44zM165 243q19 0 26.5 23t7.5 79q0 59 -7 80t-27 21q-19 0 -26.5 -22t-7.5 -79q0 -56 7.5 -79t26.5 -23zM163 -126q28 0 43 18.5t15 50.5q0 26 -12 41t-41 19l-30 6q-28 -34 -28 -76q0 -27 14 -43t39 -16z
" />
    <glyph glyph-name="h" unicode="h" horiz-adv-x="361" 
d="M27 0v740h122v-265q18 25 49.5 45t59.5 20q40 0 58.5 -23t18.5 -88v-429h-121v386q0 40 -19 40q-23 0 -46 -25v-401h-122z" />
    <glyph glyph-name="i" unicode="i" horiz-adv-x="183" 
d="M30 600v120h123v-120h-123zM31 0v533h121v-533h-121z" />
    <glyph glyph-name="j" unicode="j" horiz-adv-x="183" 
d="M30 600v120h123v-120h-123zM-10 -200v101h15q26 0 26 37v595h121v-581q0 -84 -30 -118t-99 -34h-33z" />
    <glyph glyph-name="k" unicode="k" horiz-adv-x="326" 
d="M27 0v740h115v-438q12 57 30 120l36 111h105l-72 -200l85 -333h-116l-46 215l-22 -70v-145h-115z" />
    <glyph glyph-name="l" unicode="l" horiz-adv-x="183" 
d="M31 0v740h121v-740h-121z" />
    <glyph glyph-name="m" unicode="m" horiz-adv-x="544" 
d="M27 0v533h122v-58q18 25 48.5 45t59.5 20q32 0 49.5 -14.5t23.5 -51.5q20 26 52 46t59 20q40 0 58.5 -23t18.5 -88v-429h-121v386q0 40 -20 40q-19 0 -44 -25v-401h-121v386q0 40 -19 40q-21 0 -44 -25v-401h-122z" />
    <glyph glyph-name="n" unicode="n" horiz-adv-x="361" 
d="M27 0v533h122v-58q18 25 49.5 45t59.5 20q40 0 58.5 -23t18.5 -88v-429h-121v386q0 40 -19 40q-23 0 -46 -25v-401h-122z" />
    <glyph glyph-name="o" unicode="o" horiz-adv-x="347" 
d="M174 -7q-160 0 -160 273q0 274 160 274q159 0 159 -274q0 -273 -159 -273zM174 92q22 0 29.5 35t7.5 140q0 98 -7 133.5t-30 35.5t-31 -34t-8 -135q0 -99 8 -137t31 -38z" />
    <glyph glyph-name="p" unicode="p" horiz-adv-x="359" 
d="M27 -200v733h122v-56q33 63 86 63q109 0 109 -274q0 -271 -110 -271q-56 0 -85 65v-260h-122zM186 103q13 0 19.5 12t10 47t3.5 103q0 99 -7 130t-27 31q-18 0 -36 -23v-278q17 -22 37 -22z" />
    <glyph glyph-name="q" unicode="q" horiz-adv-x="359" 
d="M210 -200v257q-32 -62 -87 -62q-53 0 -80.5 62t-27.5 208q0 275 109 275q56 0 86 -66v59h121v-733h-121zM174 104q20 0 36 23v276q-18 25 -37 25q-20 0 -27 -31.5t-7 -130.5q0 -98 7.5 -130t27.5 -32z" />
    <glyph glyph-name="r" unicode="r" horiz-adv-x="260" 
d="M27 0v533h122v-82h1q14 39 38 64.5t53 25.5l15 -2l-1 -118h-13q-57 0 -93 -40v-381h-122z" />
    <glyph glyph-name="s" unicode="s" horiz-adv-x="325" 
d="M163 -9q-79 0 -112.5 39.5t-46.5 117.5l106 15q14 -78 50 -78q32 0 32 36q0 11 -3.5 20.5t-11.5 19.5t-14.5 16t-21 19t-21.5 19q-31 28 -49.5 48.5t-35.5 58t-17 79.5q0 72 42.5 107t95.5 35q67 0 104 -34.5t47 -112.5l-104 -19q-5 39 -14 53t-27 14q-12 0 -20 -9
t-8 -24q0 -18 11.5 -37t22 -29t36.5 -32q2 -2 14.5 -13.5t15.5 -14t14 -13.5t14.5 -15.5t12.5 -15.5t12 -18t9 -18.5t8 -21t4 -22t2 -25.5q0 -66 -39 -105.5t-108 -39.5z" />
    <glyph glyph-name="t" unicode="t" horiz-adv-x="250" 
d="M167 -5q-60 0 -90.5 22t-30.5 82v339h-42v95h42v183h121v-183h69v-95h-69v-296q0 -35 8 -46t30 -11q18 0 31 5v-89q-18 -6 -69 -6z" />
    <glyph glyph-name="u" unicode="u" horiz-adv-x="361" 
d="M103 -7q-40 0 -58.5 23t-18.5 88v429h121v-389q0 -40 20 -40q24 0 45 21v408h122v-533h-122v58q-18 -25 -49.5 -45t-59.5 -20z" />
    <glyph glyph-name="v" unicode="v" horiz-adv-x="329" 
d="M90 -3l-87 536h121l27 -228q13 -113 17 -153h1q3 32 9.5 82t8.5 72l25 227h114l-87 -536h-149z" />
    <glyph glyph-name="w" unicode="w" horiz-adv-x="470" 
d="M77 -2l-74 535h121l24 -243q1 -16 3 -49.5t3 -58.5h1q4 47 12 107l37 244h69l37 -243q9 -73 12 -108h1q3 71 7 109l23 242h113l-74 -535h-115l-42 299h-1l-43 -299h-114z" />
    <glyph glyph-name="x" unicode="x" horiz-adv-x="318" 
d="M0 0l100 271l-91 262h119l41 -131l42 131h98l-91 -251l99 -282h-118l-50 148l-50 -148h-99z" />
    <glyph glyph-name="y" unicode="y" horiz-adv-x="320" 
d="M62 -200q-47 0 -79 9l21 102q22 -4 31 -4q28 0 39.5 10t17.5 39l6 33l-103 544h130l26 -244q2 -17 4 -36.5t4 -45t3 -40.5h2q2 30 12 122l31 244h119l-115 -578q-16 -81 -49 -118t-100 -37z" />
    <glyph glyph-name="z" unicode="z" horiz-adv-x="295" 
d="M10 0v81l140 357h-125v95h254v-86l-141 -357h147v-90h-275z" />
    <glyph glyph-name="braceleft" unicode="{" horiz-adv-x="271" 
d="M201 -200q-68 0 -99 32t-31 98v208q0 56 -12 69.5t-49 13.5v98q36 0 48.5 14.5t12.5 68.5v208q0 68 31.5 99t110.5 31h53v-97h-23q-26 0 -35 -13.5t-9 -51.5v-175q0 -67 -15.5 -92.5t-54.5 -39.5v-2q39 -14 54.5 -39.5t15.5 -92.5v-187q0 -34 9 -45.5t35 -11.5h23v-93
h-65z" />
    <glyph glyph-name="bar" unicode="|" horiz-adv-x="225" 
d="M57 -200v940h111v-940h-111z" />
    <glyph glyph-name="braceright" unicode="}" horiz-adv-x="271" 
d="M5 -200v93h23q26 0 35 11.5t9 45.5v187q0 67 15.5 92.5t55.5 39.5v2q-40 14 -55.5 39.5t-15.5 92.5v175q0 38 -8.5 51.5t-35.5 13.5h-23v97h53q79 0 111 -31t32 -99v-208q0 -55 12.5 -69t48.5 -14v-98q-37 0 -49 -13.5t-12 -69.5v-208q0 -66 -31.5 -98t-98.5 -32h-66z
" />
    <glyph glyph-name="asciitilde" unicode="~" 
d="M221 359q-22 0 -40.5 14t-32.5 28t-24 14q-22 0 -22 -54h-67q0 84 19.5 121.5t61.5 37.5q28 0 57 -28t39 -28q23 0 23 54h67q0 -83 -20 -121t-61 -38z" />
    <glyph glyph-name="nbspace" unicode="&#xa0;" horiz-adv-x="68" 
 />
    <glyph glyph-name="exclamdown" unicode="&#xa1;" horiz-adv-x="224" 
d="M43 608v132h138v-132h-138zM45 0l10 546h114l10 -546h-134z" />
    <glyph glyph-name="cent" unicode="&#xa2;" horiz-adv-x="328" 
d="M117 530v108h106v-106q85 -28 98 -184l-118 -7q-2 30 -3 42t-4.5 28t-9.5 21.5t-15 5.5q-22 0 -30 -36.5t-8 -134.5q0 -97 8 -136.5t30 -39.5q18 0 25 24t9 82l116 -4q-9 -161 -98 -192v-131h-106v133q-106 42 -106 263q0 222 106 264z" />
    <glyph glyph-name="sterling" unicode="&#xa3;" horiz-adv-x="434" 
d="M106 -7q-49 0 -79.5 29t-30.5 86q0 49 29.5 79.5t76.5 30.5t72 -34q0 56 -31 149h-101v97h62q-29 91 -29 142q0 85 37 130t108 45q74 0 110.5 -44t36.5 -153l-109 -9q-2 57 -8 79t-25 22q-30 0 -30 -66q0 -13 1.5 -27t2.5 -22.5t5.5 -25t6 -21.5t8.5 -25.5t8 -24.5h101
v-97h-71q16 -68 16 -123q0 -52 -16 -94q15 -17 29 -17q22 0 30 27t8 106h103q0 -131 -33 -185t-97 -54q-57 0 -93 43q-37 -43 -98 -43zM117 69q31 0 44 41q-22 38 -45 38q-13 0 -22.5 -11t-9.5 -29q0 -19 9.5 -29t23.5 -10z" />
    <glyph glyph-name="currency" unicode="&#xa4;" horiz-adv-x="412" 
d="M228 -7q-79 0 -121.5 59.5t-54.5 197.5h-45v97h41q-1 9 -1 47h-40v97h45q12 138 54 197t121 59q85 0 122.5 -59t45.5 -185l-112 -6q-3 77 -14.5 104.5t-35.5 27.5q-26 0 -38.5 -32.5t-15.5 -105.5h73v-97h-73v-47h73v-97h-72q3 -80 15 -111t39 -31q28 0 40 27.5t15 108.5
l110 -5q-3 -53 -10 -91t-24.5 -76.5t-52 -58.5t-84.5 -20z" />
    <glyph glyph-name="yen" unicode="&#xa5;" horiz-adv-x="362" 
d="M116 0v85h-103v98h103v46h-103v96h85l-97 415h130l37 -197q17 -94 21 -130h1q4 34 21 130l37 197h113l-98 -415h85v-96h-102v-46h102v-98h-102v-85h-130z" />
    <glyph glyph-name="brokenbar" unicode="&#xa6;" horiz-adv-x="225" 
d="M57 331v409h111v-409h-111zM57 -200v409h111v-409h-111z" />
    <glyph glyph-name="section" unicode="&#xa7;" horiz-adv-x="395" 
d="M191 -210q-83 0 -118.5 49.5t-42.5 161.5l112 10q4 -68 14 -92.5t33 -24.5q37 0 37 57q0 43 -20.5 74t-59.5 66q-31 28 -42.5 39.5t-33.5 38.5t-31.5 55t-11.5 63q-6 101 64 160q-43 60 -43 126q0 84 39.5 133t117.5 49q81 0 117.5 -52.5t43.5 -158.5l-114 -11
q-4 67 -14 92t-32 25q-37 0 -37 -56q0 -18 5 -35.5t10.5 -29t19.5 -28t21 -23.5t26 -24.5t25 -22.5q42 -40 66 -79t27 -95q5 -102 -64 -159q43 -61 43 -127q0 -84 -40 -132.5t-117 -48.5zM226 178q28 22 27 63q0 43 -53 98q-9 9 -30 29q-28 -24 -27 -65q0 -44 54 -100
q9 -9 29 -25z" />
    <glyph glyph-name="dieresis" unicode="&#xa8;" 
d="M187 582v119h102v-119h-102zM44 582v119h102v-119h-102z" />
    <glyph glyph-name="copyright" unicode="&#xa9;" horiz-adv-x="456" 
d="M228 -14q-98 0 -154 107.5t-56 274.5t57 276.5t154 109.5t153 -107.5t56 -274.5t-57 -276.5t-153 -109.5zM228 32q79 0 121.5 96.5t42.5 243.5t-41.5 241.5t-121.5 94.5q-79 0 -121.5 -96.5t-42.5 -243.5t41.5 -241.5t121.5 -94.5zM230 155q-100 0 -100 220
q0 221 101 221q45 0 65.5 -39t25.5 -112l-67 -5q-4 37 -8.5 53t-16.5 16q-15 0 -20 -32.5t-5 -101.5t5 -100.5t20 -31.5q22 0 26 69l68 -4q-12 -153 -94 -153z" />
    <glyph glyph-name="ordfeminine" unicode="&#xaa;" horiz-adv-x="281" 
d="M94 356q-67 0 -67 98q0 56 33 97t95 60v27q0 32 -14 32q-9 0 -13.5 -8.5t-9.5 -30.5l-78 15q12 57 39.5 79t71.5 22q49 0 71 -25.5t22 -79.5v-188q0 -63 7 -94l-91 1q-4 18 -4 34q-24 -39 -62 -39zM131 436q10 0 24 12v96q-41 -21 -41 -79q0 -29 17 -29z" />
    <glyph glyph-name="guillemotleft" unicode="&#xab;" horiz-adv-x="353" 
d="M231 0l-69 268l69 265h109l-69 -266l69 -267h-109zM77 0l-70 268l70 265h109l-69 -266l69 -267h-109z" />
    <glyph glyph-name="registered" unicode="&#xae;" horiz-adv-x="456" 
d="M228 -14q-99 0 -154.5 107t-55.5 275t56.5 277t154.5 109q99 0 154 -107t55 -275t-56 -277t-154 -109zM228 32q80 0 122 96t42 244t-41 242t-122 94q-80 0 -122 -96t-42 -244t41 -242t122 -94zM140 170v417h85q102 0 102 -136q0 -91 -36 -122l40 -159h-72l-35 145h-12
v-145h-72zM212 388h10q18 0 25 13.5t7 47.5t-7 47t-25 13h-10v-121z" />
    <glyph glyph-name="macron" unicode="&#xaf;" 
d="M44 600v99h246v-99h-246z" />
    <glyph glyph-name="degree" unicode="&#xb0;" horiz-adv-x="220" 
d="M110 475q-45 0 -69.5 37.5t-24.5 98.5q0 62 24.5 99.5t69.5 37.5t69.5 -37.5t24.5 -99.5q0 -61 -24.5 -98.5t-69.5 -37.5zM110 537q19 0 19 74q0 76 -19 76t-19 -76q0 -74 19 -74z" />
    <glyph glyph-name="twosuperior" unicode="&#xb2;" horiz-adv-x="278" 
d="M31 275v19q0 57 13.5 100.5t32.5 69t37.5 47.5t32 48.5t13.5 59.5q0 42 -18 42q-11 0 -16 -16t-7 -62l-84 6q6 76 31.5 116.5t82.5 40.5q104 0 104 -127q0 -39 -18 -77t-40 -64t-42.5 -58.5t-24.5 -60.5h126v-84h-223z" />
    <glyph glyph-name="threesuperior" unicode="&#xb3;" horiz-adv-x="284" 
d="M144 266q-32 0 -53 10.5t-32 32.5t-15.5 43t-8.5 56l81 8q5 -70 25 -70q19 0 19 60q0 48 -11 62t-51 14h-17v76h20q37 0 46 12t9 49q0 43 -15 43t-23 -58l-79 11q17 130 110 130q57 0 79 -31.5t22 -88.5q0 -90 -53 -105q27 -7 42 -38.5t15 -79.5q0 -136 -110 -136z" />
    <glyph glyph-name="acute" unicode="&#xb4;" 
d="M111 582l52 151h114l-76 -151h-90z" />
    <glyph glyph-name="mu" unicode="&#xb5;" horiz-adv-x="362" 
d="M27 -200v733h121v-397q0 -41 19 -41q26 0 46 22v416h121v-533h-121v53q-22 -30 -51 -40q-7 -3 -14 -1v-212h-121z" />
    <glyph glyph-name="paragraph" unicode="&#xb6;" horiz-adv-x="465" 
d="M154 -200v543q-60 1 -99.5 52.5t-39.5 144.5q0 85 39 142.5t94 57.5h275v-940h-120v828h-29v-828h-120z" />
    <glyph glyph-name="periodcentered" unicode="&#xb7;" horiz-adv-x="239" 
d="M50 245v147h139v-147h-139z" />
    <glyph glyph-name="cedilla" unicode="&#xb8;" 
d="M159 -198q-53 0 -109 28l23 54q45 -24 85 -24q11 0 19 7.5t8 20.5q0 23 -18 23q-13 0 -23 -15l-43 18l24 87h58l-12 -46q11 14 36 14q24 0 41 -19t17 -56q0 -41 -26 -66.5t-80 -25.5z" />
    <glyph glyph-name="onesuperior" unicode="&#xb9;" horiz-adv-x="241" 
d="M33 279v84h44v276q-20 -12 -43 -12v84q32 3 48 29h91v-377h37v-84h-177z" />
    <glyph glyph-name="ordmasculine" unicode="&#xba;" horiz-adv-x="276" 
d="M138 353q-56 0 -85.5 50.5t-29.5 146.5q0 197 115 197t115 -197q0 -96 -29.5 -146.5t-85.5 -50.5zM138 433q15 0 19 23t4 94q0 68 -4 91t-19 23t-19 -22.5t-4 -91.5q0 -68 4 -92.5t19 -24.5z" />
    <glyph glyph-name="guillemotright" unicode="&#xbb;" horiz-adv-x="353" 
d="M167 0l69 267l-69 266h109l70 -266l-70 -267h-109zM12 0l70 267l-70 266h110l69 -266l-69 -267h-110z" />
    <glyph glyph-name="onequarter" unicode="&#xbc;" horiz-adv-x="633" 
d="M33 279v84h44v276q-20 -12 -43 -12v84q32 3 48 29h91v-377h37v-84h-177zM171 0l194 740h105l-193 -740h-106zM497 0v98h-120v67l110 299h96v-285h33v-81h-33v-98h-86zM459 179h42v123z" />
    <glyph glyph-name="onehalf" unicode="&#xbd;" horiz-adv-x="644" 
d="M33 279v84h44v276q-20 -12 -43 -12v84q32 3 48 29h91v-377h37v-84h-177zM169 0l194 740h105l-193 -740h-106zM401 0v19q0 57 13.5 100.5t32 69t37.5 47.5t32.5 48.5t13.5 59.5q0 42 -18 42q-11 0 -16 -16t-7 -62l-84 6q6 75 32 116t82 41q104 0 104 -127q0 -39 -18 -77
t-40 -64t-42.5 -58.5t-24.5 -60.5h126v-84h-223z" />
    <glyph glyph-name="threequarters" unicode="&#xbe;" horiz-adv-x="681" 
d="M144 266q-32 0 -53 10.5t-32 32.5t-15.5 43t-8.5 56l81 8q5 -70 25 -70q19 0 19 60q0 48 -11 62t-51 14h-17v76h20q37 0 46 12t9 49q0 43 -15 43t-23 -58l-79 11q17 130 110 130q57 0 79 -31.5t22 -88.5q0 -90 -53 -105q27 -7 42 -38.5t15 -79.5q0 -136 -110 -136zM207 0
l194 740h105l-193 -740h-106zM536 0v98h-120v67l110 299h97v-285h32v-81h-32v-98h-87zM499 179h42v123z" />
    <glyph glyph-name="questiondown" unicode="&#xbf;" horiz-adv-x="330" 
d="M110 608v132h138v-132h-138zM155 -7q-75 0 -112 45.5t-37 116.5q0 38 8 72.5t15 50t26.5 49t24.5 42.5q41 77 41 177h116q0 -58 -10 -103.5t-18.5 -63t-27.5 -51.5q-18 -30 -25 -44.5t-15.5 -47t-8.5 -70.5q0 -62 31 -62q20 0 30 24t15 81l120 -12q-10 -106 -52.5 -155
t-120.5 -49z" />
    <glyph glyph-name="Agrave" unicode="&#xc0;" horiz-adv-x="377" 
d="M0 0l122 743h134l121 -743h-131l-21 166h-82l-21 -166h-122zM150 255h68q-3 24 -12.5 103t-11.5 96q-2 12 -9 82h-1q-1 -10 -9 -82q-7 -61 -25 -199zM143 787l-76 151h114l52 -151h-90z" />
    <glyph glyph-name="Aacute" unicode="&#xc1;" horiz-adv-x="377" 
d="M0 0l122 743h134l121 -743h-131l-21 166h-82l-21 -166h-122zM150 255h68q-3 24 -12.5 103t-11.5 96q-2 12 -9 82h-1q-1 -10 -9 -82q-7 -61 -25 -199zM141 787l52 151h114l-76 -151h-90z" />
    <glyph glyph-name="Acircumflex" unicode="&#xc2;" horiz-adv-x="377" 
d="M0 0l122 743h134l121 -743h-131l-21 166h-82l-21 -166h-122zM150 255h68q-3 24 -12.5 103t-11.5 96q-2 12 -9 82h-1q-1 -10 -9 -82q-7 -61 -25 -199zM76 776l71 156h83l70 -156h-74l-38 63l-39 -63h-73z" />
    <glyph glyph-name="Atilde" unicode="&#xc3;" horiz-adv-x="377" 
d="M0 0l122 743h134l121 -743h-131l-21 166h-82l-21 -166h-122zM150 255h68q-3 24 -12.5 103t-11.5 96q-2 12 -9 82h-1q-1 -10 -9 -82q-7 -61 -25 -199zM247 770q-22 0 -40.5 14t-32.5 28t-24 14q-22 0 -22 -54h-67q0 84 19.5 121.5t61.5 37.5q28 0 57 -28t39 -28
q23 0 23 54h67q0 -83 -20 -121t-61 -38z" />
    <glyph glyph-name="Adieresis" unicode="&#xc4;" horiz-adv-x="377" 
d="M0 0l122 743h134l121 -743h-131l-21 166h-82l-21 -166h-122zM150 255h68q-3 24 -12.5 103t-11.5 96q-2 12 -9 82h-1q-1 -10 -9 -82q-7 -61 -25 -199zM205 787v119h102v-119h-102zM62 787v119h102v-119h-102z" />
    <glyph glyph-name="Aring" unicode="&#xc5;" horiz-adv-x="377" 
d="M121 732q-19 28 -19 74q0 51 23.5 80.5t62.5 29.5q38 0 62 -30t24 -80q0 -45 -18 -72l121 -734h-131l-21 166h-82l-21 -166h-122zM188 752q27 0 27 52q0 50 -27 50q-26 0 -26 -50q0 -52 26 -52zM152 255h64q-2 26 -11.5 99.5t-10.5 82.5q-2 14 -9 81h-1l-9 -81
q-2 -18 -11 -88.5t-12 -93.5z" />
    <glyph glyph-name="AE" unicode="&#xc6;" horiz-adv-x="514" 
d="M2 0l167 740h332v-113h-136v-181h95v-106h-95v-231h140v-109h-270v166h-81l-36 -166h-116zM173 255h62v326z" />
    <glyph glyph-name="Ccedilla" unicode="&#xc7;" horiz-adv-x="377" 
d="M195 -193q-52 0 -110 28l24 54q43 -24 85 -24q11 0 19 7.5t8 20.5q0 24 -19 24q-12 0 -23 -15l-42 17l21 78q-73 18 -107 104t-34 269q0 204 43 290.5t137 86.5q90 0 128 -61.5t39 -222.5l-122 -5q-1 99 -11 134.5t-34 35.5q-31 0 -39.5 -54.5t-8.5 -203.5q0 -151 9 -206
t40 -55q27 0 36.5 32.5t12.5 134.5l122 -5q-2 -50 -6.5 -85.5t-15 -72.5t-26.5 -60.5t-43 -39.5t-63 -19l-9 -34q9 14 36 14q25 0 42 -19t17 -55q0 -41 -26.5 -67t-79.5 -26z" />
    <glyph glyph-name="Egrave" unicode="&#xc8;" horiz-adv-x="310" 
d="M32 0v740h265v-113h-136v-181h95v-106h-95v-231h141v-109h-270zM129 787l-76 151h114l52 -151h-90z" />
    <glyph glyph-name="Eacute" unicode="&#xc9;" horiz-adv-x="310" 
d="M32 0v740h265v-113h-136v-181h95v-106h-95v-231h141v-109h-270zM110 787l52 151h114l-76 -151h-90z" />
    <glyph glyph-name="Ecircumflex" unicode="&#xca;" horiz-adv-x="310" 
d="M32 0v740h265v-113h-136v-181h95v-106h-95v-231h141v-109h-270zM52 782l71 156h83l70 -156h-74l-38 63l-39 -63h-73z" />
    <glyph glyph-name="Edieresis" unicode="&#xcb;" horiz-adv-x="310" 
d="M32 0v740h265v-113h-136v-181h95v-106h-95v-231h141v-109h-270zM185 787v119h102v-119h-102zM42 787v119h102v-119h-102z" />
    <glyph glyph-name="Igrave" unicode="&#xcc;" horiz-adv-x="203" 
d="M37 0v740h129v-740h-129zM56 787l-76 151h114l52 -151h-90z" />
    <glyph glyph-name="Iacute" unicode="&#xcd;" horiz-adv-x="203" 
d="M37 0v740h129v-740h-129zM56 787l52 151h114l-76 -151h-90z" />
    <glyph glyph-name="Icircumflex" unicode="&#xce;" horiz-adv-x="203" 
d="M37 0v740h129v-740h-129zM-13 782l71 156h83l70 -156h-74l-38 63l-39 -63h-73z" />
    <glyph glyph-name="Idieresis" unicode="&#xcf;" horiz-adv-x="203" 
d="M37 0v740h129v-740h-129zM123 787v119h102v-119h-102zM-20 787v119h102v-119h-102z" />
    <glyph glyph-name="Eth" unicode="&#xd0;" horiz-adv-x="401" 
d="M32 0v340h-31v105h31v295h127q59 0 97.5 -14t69 -52.5t44.5 -113t14 -190.5q0 -93 -10 -159t-27.5 -106.5t-47 -64t-62 -32t-78.5 -8.5h-127zM161 109h19q46 0 59 52t13 209q0 158 -13 207.5t-60 49.5h-18v-182h39v-105h-39v-231z" />
    <glyph glyph-name="Ntilde" unicode="&#xd1;" horiz-adv-x="393" 
d="M32 0v740h121l57 -226q31 -130 44 -205h2q-6 86 -6 203v228h111v-740h-106l-65 234q-44 159 -51 201h-2q6 -58 6 -201v-234h-111zM257 770q-22 0 -40.5 14t-32.5 28t-24 14q-22 0 -22 -54h-67q0 84 19.5 121.5t61.5 37.5q28 0 57 -28t39 -28q23 0 23 54h67
q0 -83 -20 -121t-61 -38z" />
    <glyph glyph-name="Ograve" unicode="&#xd2;" horiz-adv-x="401" 
d="M200 -7q-94 0 -138.5 87.5t-44.5 289.5t44.5 289.5t138.5 87.5t138.5 -87.5t44.5 -289.5t-44.5 -289.5t-138.5 -87.5zM200 109q32 0 41.5 54.5t9.5 206.5t-9.5 205t-41.5 53q-31 0 -40.5 -53t-9.5 -205t9.5 -206.5t40.5 -54.5zM163 787l-76 151h114l52 -151h-90z" />
    <glyph glyph-name="Oacute" unicode="&#xd3;" horiz-adv-x="401" 
d="M200 -7q-94 0 -138.5 87.5t-44.5 289.5t44.5 289.5t138.5 87.5t138.5 -87.5t44.5 -289.5t-44.5 -289.5t-138.5 -87.5zM200 109q32 0 41.5 54.5t9.5 206.5t-9.5 205t-41.5 53q-31 0 -40.5 -53t-9.5 -205t9.5 -206.5t40.5 -54.5zM148 787l52 151h114l-76 -151h-90z" />
    <glyph glyph-name="Ocircumflex" unicode="&#xd4;" horiz-adv-x="401" 
d="M200 -7q-94 0 -138.5 87.5t-44.5 289.5t44.5 289.5t138.5 87.5t138.5 -87.5t44.5 -289.5t-44.5 -289.5t-138.5 -87.5zM200 109q32 0 41.5 54.5t9.5 206.5t-9.5 205t-41.5 53q-31 0 -40.5 -53t-9.5 -205t9.5 -206.5t40.5 -54.5zM88 782l71 156h83l70 -156h-74l-38 63
l-39 -63h-73z" />
    <glyph glyph-name="Otilde" unicode="&#xd5;" horiz-adv-x="401" 
d="M200 -7q-94 0 -138.5 87.5t-44.5 289.5t44.5 289.5t138.5 87.5t138.5 -87.5t44.5 -289.5t-44.5 -289.5t-138.5 -87.5zM200 109q32 0 41.5 54.5t9.5 206.5t-9.5 205t-41.5 53q-31 0 -40.5 -53t-9.5 -205t9.5 -206.5t40.5 -54.5zM256 770q-22 0 -40.5 14t-32.5 28t-24 14
q-22 0 -22 -54h-67q0 84 19.5 121.5t61.5 37.5q28 0 57 -28t39 -28q23 0 23 54h67q0 -83 -20 -121t-61 -38z" />
    <glyph glyph-name="Odieresis" unicode="&#xd6;" horiz-adv-x="401" 
d="M200 -7q-94 0 -138.5 87.5t-44.5 289.5t44.5 289.5t138.5 87.5t138.5 -87.5t44.5 -289.5t-44.5 -289.5t-138.5 -87.5zM200 109q32 0 41.5 54.5t9.5 206.5t-9.5 205t-41.5 53q-31 0 -40.5 -53t-9.5 -205t9.5 -206.5t40.5 -54.5zM221 787v119h102v-119h-102zM78 787v119
h102v-119h-102z" />
    <glyph glyph-name="multiply" unicode="&#xd7;" horiz-adv-x="400" 
d="M100 155l-69 70l100 99l-101 100l71 70l99 -102l100 102l69 -70l-101 -100l102 -99l-71 -70l-99 100z" />
    <glyph glyph-name="Oslash" unicode="&#xd8;" horiz-adv-x="401" 
d="M354 621q29 -90 29 -251q0 -202 -44.5 -289.5t-138.5 -87.5q-62 0 -101 36l-32 -74l-78 37l56 130q-28 87 -28 248q0 202 44.5 289.5t138.5 87.5q61 0 99 -34l32 74l78 -37zM145 351l96 232q-12 45 -41 45q-33 0 -44 -58t-11 -200v-19zM255 396l-97 -236q13 -51 42 -51
q33 0 44 58.5t11 202.5v26z" />
    <glyph glyph-name="Ugrave" unicode="&#xd9;" horiz-adv-x="394" 
d="M196 -7q-91 0 -128.5 53t-37.5 161v533h129v-525q0 -67 8 -90.5t33 -23.5t33 23t8 89v527h123v-530q0 -110 -38.5 -163.5t-129.5 -53.5zM158 787l-76 151h114l52 -151h-90z" />
    <glyph glyph-name="Uacute" unicode="&#xda;" horiz-adv-x="394" 
d="M196 -7q-91 0 -128.5 53t-37.5 161v533h129v-525q0 -67 8 -90.5t33 -23.5t33 23t8 89v527h123v-530q0 -110 -38.5 -163.5t-129.5 -53.5zM150 787l52 151h114l-76 -151h-90z" />
    <glyph glyph-name="Ucircumflex" unicode="&#xdb;" horiz-adv-x="394" 
d="M196 -7q-91 0 -128.5 53t-37.5 161v533h129v-525q0 -67 8 -90.5t33 -23.5t33 23t8 89v527h123v-530q0 -110 -38.5 -163.5t-129.5 -53.5zM88 782l71 156h83l70 -156h-74l-38 63l-39 -63h-73z" />
    <glyph glyph-name="Udieresis" unicode="&#xdc;" horiz-adv-x="394" 
d="M196 -7q-91 0 -128.5 53t-37.5 161v533h129v-525q0 -67 8 -90.5t33 -23.5t33 23t8 89v527h123v-530q0 -110 -38.5 -163.5t-129.5 -53.5zM219 787v119h102v-119h-102zM76 787v119h102v-119h-102z" />
    <glyph glyph-name="Yacute" unicode="&#xdd;" horiz-adv-x="346" 
d="M107 0v244l-115 496h130l38 -198q18 -112 20 -132h2q2 29 21 132l36 198h114l-116 -496v-244h-130zM133 787l52 151h114l-76 -151h-90z" />
    <glyph glyph-name="Thorn" unicode="&#xde;" horiz-adv-x="378" 
d="M32 0v740h127v-102h23q38 0 68 -10t58 -34t43 -73.5t15 -121.5q0 -66 -11.5 -113.5t-28.5 -73t-44 -40t-50 -18.5t-54 -4h-19v-150h-127zM159 259h21q20 0 31 8.5t18 40t7 89.5q0 55 -7.5 84t-18.5 36.5t-31 7.5h-20v-266z" />
    <glyph glyph-name="germandbls" unicode="&#xdf;" horiz-adv-x="388" 
d="M247 -10q-47 0 -71 24l21 98q9 -9 22 -9q37 0 37 116q0 156 -72 163v77q52 8 52 108q0 84 -36 84q-19 0 -28 -24.5t-9 -86.5v-540h-123v537q0 101 35.5 152t121.5 51q151 0 151 -159q0 -129 -75 -158q101 -30 101 -223q0 -95 -33 -152.5t-94 -57.5z" />
    <glyph glyph-name="agrave" unicode="&#xe0;" horiz-adv-x="338" 
d="M107 -4q-95 0 -95 138q0 164 183 217v40q0 28 -5 39t-19 11q-15 0 -23 -12t-14 -42l-107 16q17 77 56 107t101 30q67 0 97 -35t30 -112v-263q0 -94 8 -130h-117q-7 21 -7 61q-32 -65 -88 -65zM157 104q20 0 38 22v140q-66 -31 -66 -117q0 -45 28 -45zM148 582l-76 151
h114l52 -151h-90z" />
    <glyph glyph-name="aacute" unicode="&#xe1;" horiz-adv-x="338" 
d="M107 -4q-95 0 -95 138q0 164 183 217v40q0 28 -5 39t-19 11q-15 0 -23 -12t-14 -42l-107 16q17 77 56 107t101 30q67 0 97 -35t30 -112v-263q0 -94 8 -130h-117q-7 21 -7 61q-32 -65 -88 -65zM157 104q20 0 38 22v140q-66 -31 -66 -117q0 -45 28 -45zM118 582l52 151h114
l-76 -151h-90z" />
    <glyph glyph-name="acircumflex" unicode="&#xe2;" horiz-adv-x="338" 
d="M107 -4q-95 0 -95 138q0 164 183 217v40q0 28 -5 39t-19 11q-15 0 -23 -12t-14 -42l-107 16q17 77 56 107t101 30q67 0 97 -35t30 -112v-263q0 -94 8 -130h-117q-7 21 -7 61q-32 -65 -88 -65zM157 104q20 0 38 22v140q-66 -31 -66 -117q0 -45 28 -45zM63 577l71 156h83
l70 -156h-74l-38 63l-39 -63h-73z" />
    <glyph glyph-name="atilde" unicode="&#xe3;" horiz-adv-x="338" 
d="M107 -4q-95 0 -95 138q0 164 183 217v40q0 28 -5 39t-19 11q-15 0 -23 -12t-14 -42l-107 16q17 77 56 107t101 30q67 0 97 -35t30 -112v-263q0 -94 8 -130h-117q-7 21 -7 61q-32 -65 -88 -65zM157 104q20 0 38 22v140q-66 -31 -66 -117q0 -45 28 -45zM229 565
q-22 0 -40.5 14t-32.5 28t-24 14q-22 0 -22 -54h-67q0 84 19.5 121.5t61.5 37.5q28 0 57 -28t39 -28q23 0 23 54h67q0 -83 -20 -121t-61 -38z" />
    <glyph glyph-name="adieresis" unicode="&#xe4;" horiz-adv-x="338" 
d="M107 -4q-95 0 -95 138q0 164 183 217v40q0 28 -5 39t-19 11q-15 0 -23 -12t-14 -42l-107 16q17 77 56 107t101 30q67 0 97 -35t30 -112v-263q0 -94 8 -130h-117q-7 21 -7 61q-32 -65 -88 -65zM157 104q20 0 38 22v140q-66 -31 -66 -117q0 -45 28 -45zM195 582v119h102
v-119h-102zM52 582v119h102v-119h-102z" />
    <glyph glyph-name="aring" unicode="&#xe5;" horiz-adv-x="338" 
d="M107 -4q-95 0 -95 138q0 164 183 217v40q0 28 -5 39t-19 11q-15 0 -23 -12t-14 -42l-107 16q17 77 56 107t101 30q67 0 97 -35t30 -112v-263q0 -94 8 -130h-117q-7 21 -7 61q-32 -65 -88 -65zM157 104q20 0 38 22v140q-66 -31 -66 -117q0 -45 28 -45zM182 570
q-40 0 -63 30t-23 81t23 80.5t63 29.5q38 0 62 -30t24 -80q0 -51 -23.5 -81t-62.5 -30zM182 627q27 0 27 52q0 50 -27 50t-27 -50q0 -52 27 -52z" />
    <glyph glyph-name="ae" unicode="&#xe6;" horiz-adv-x="511" 
d="M223 75q-36 -78 -117 -78q-94 0 -94 137q0 164 183 217v40q0 28 -5 39t-19 11q-15 0 -23 -12t-14 -42l-107 16q17 77 55.5 107t100.5 30q61 0 82 -40q31 40 85 40q48 0 79 -23t45 -66t18.5 -83.5t4.5 -96.5v-44h-192q0 -69 9 -102t33 -33q19 0 27 17t11 64l112 -4
q-10 -87 -45.5 -131.5t-105.5 -44.5q-87 0 -123 82zM305 304h76q-1 75 -8 104t-27 29q-21 0 -30.5 -29.5t-10.5 -103.5zM195 266q-66 -32 -66 -117q0 -45 28 -45q29 0 49 28q-11 52 -12 116q0 12 1 18z" />
    <glyph glyph-name="ccedilla" unicode="&#xe7;" horiz-adv-x="331" 
d="M170 -194q-52 0 -110 28l24 54q43 -24 85 -24q11 0 19 7.5t8 20.5q0 23 -18 23q-14 0 -24 -15l-42 18l22 80q-120 32 -120 268q0 274 159 274q73 0 107.5 -49.5t42.5 -146.5l-117 -7q-7 77 -17 90q-6 9 -16 9q-22 0 -30 -35.5t-8 -133.5q0 -96 8 -135.5t30 -39.5
q18 0 25.5 24t9.5 85l115 -4q-5 -98 -37 -147.5t-96 -55.5l-9 -35q11 14 36 14t42 -19t17 -56q0 -40 -26.5 -66t-79.5 -26z" />
    <glyph glyph-name="egrave" unicode="&#xe8;" horiz-adv-x="338" 
d="M173 -7q-159 0 -159 273q0 274 159 274q40 0 68.5 -16.5t44.5 -41t24.5 -63t11 -71.5t2.5 -77v-44h-192q0 -69 9 -102t33 -33q19 0 27 17t11 64l112 -4q-10 -87 -45.5 -131.5t-105.5 -44.5zM132 304h76q-1 76 -8 104.5t-27 28.5q-21 0 -30.5 -29t-10.5 -104zM136 582
l-76 151h114l52 -151h-90z" />
    <glyph glyph-name="eacute" unicode="&#xe9;" horiz-adv-x="338" 
d="M173 -7q-159 0 -159 273q0 274 159 274q40 0 68.5 -16.5t44.5 -41t24.5 -63t11 -71.5t2.5 -77v-44h-192q0 -69 9 -102t33 -33q19 0 27 17t11 64l112 -4q-10 -87 -45.5 -131.5t-105.5 -44.5zM132 304h76q-1 76 -8 104.5t-27 28.5q-21 0 -30.5 -29t-10.5 -104zM114 582
l52 151h114l-76 -151h-90z" />
    <glyph glyph-name="ecircumflex" unicode="&#xea;" horiz-adv-x="338" 
d="M173 -7q-159 0 -159 273q0 274 159 274q40 0 68.5 -16.5t44.5 -41t24.5 -63t11 -71.5t2.5 -77v-44h-192q0 -69 9 -102t33 -33q19 0 27 17t11 64l112 -4q-10 -87 -45.5 -131.5t-105.5 -44.5zM132 304h76q-1 76 -8 104.5t-27 28.5q-21 0 -30.5 -29t-10.5 -104zM61 577
l71 156h83l70 -156h-74l-38 63l-39 -63h-73z" />
    <glyph glyph-name="edieresis" unicode="&#xeb;" horiz-adv-x="338" 
d="M173 -7q-159 0 -159 273q0 274 159 274q40 0 68.5 -16.5t44.5 -41t24.5 -63t11 -71.5t2.5 -77v-44h-192q0 -69 9 -102t33 -33q19 0 27 17t11 64l112 -4q-10 -87 -45.5 -131.5t-105.5 -44.5zM132 304h76q-1 76 -8 104.5t-27 28.5q-21 0 -30.5 -29t-10.5 -104zM191 582v119
h102v-119h-102zM48 582v119h102v-119h-102z" />
    <glyph glyph-name="igrave" unicode="&#xec;" horiz-adv-x="183" 
d="M31 0v533h121v-533h-121zM48 582l-76 151h114l52 -151h-90z" />
    <glyph glyph-name="iacute" unicode="&#xed;" horiz-adv-x="183" 
d="M31 0v533h121v-533h-121zM47 582l52 151h114l-76 -151h-90z" />
    <glyph glyph-name="icircumflex" unicode="&#xee;" horiz-adv-x="183" 
d="M31 0v533h121v-533h-121zM-21 577l71 156h83l70 -156h-74l-38 63l-39 -63h-73z" />
    <glyph glyph-name="idieresis" unicode="&#xef;" horiz-adv-x="183" 
d="M31 0v533h121v-533h-121zM111 582v119h102v-119h-102zM-32 582v119h102v-119h-102z" />
    <glyph glyph-name="eth" unicode="&#xf0;" horiz-adv-x="349" 
d="M178 -7q-164 0 -164 269q0 265 122 265q36 0 58 -20t29 -52q-12 70 -39 134l-50 -22l-24 58l47 21q-14 28 -40 66l93 35q28 -35 44 -62l52 22l23 -58l-45 -22q51 -114 51 -338q0 -152 -36.5 -224t-120.5 -72zM175 102q25 0 34 31.5t9 129.5q0 90 -9 122.5t-34 32.5
t-34.5 -32t-9.5 -123q0 -93 9 -127t35 -34z" />
    <glyph glyph-name="ntilde" unicode="&#xf1;" horiz-adv-x="361" 
d="M27 0v533h122v-58q18 25 49.5 45t59.5 20q40 0 58.5 -23t18.5 -88v-429h-121v386q0 40 -19 40q-23 0 -46 -25v-401h-122zM241 565q-22 0 -40.5 14t-32.5 28t-24 14q-22 0 -22 -54h-67q0 84 19.5 121.5t61.5 37.5q28 0 57 -28t39 -28q23 0 23 54h67q0 -83 -20 -121
t-61 -38z" />
    <glyph glyph-name="ograve" unicode="&#xf2;" horiz-adv-x="347" 
d="M174 -7q-160 0 -160 273q0 274 160 274q159 0 159 -274q0 -273 -159 -273zM174 92q22 0 29.5 35t7.5 140q0 98 -7 133.5t-30 35.5t-31 -34t-8 -135q0 -99 8 -137t31 -38zM137 582l-76 151h114l52 -151h-90z" />
    <glyph glyph-name="oacute" unicode="&#xf3;" horiz-adv-x="347" 
d="M174 -7q-160 0 -160 273q0 274 160 274q159 0 159 -274q0 -273 -159 -273zM174 92q22 0 29.5 35t7.5 140q0 98 -7 133.5t-30 35.5t-31 -34t-8 -135q0 -99 8 -137t31 -38zM119 582l52 151h114l-76 -151h-90z" />
    <glyph glyph-name="ocircumflex" unicode="&#xf4;" horiz-adv-x="347" 
d="M174 -7q-160 0 -160 273q0 274 160 274q159 0 159 -274q0 -273 -159 -273zM174 92q22 0 29.5 35t7.5 140q0 98 -7 133.5t-30 35.5t-31 -34t-8 -135q0 -99 8 -137t31 -38zM62 577l71 156h83l70 -156h-74l-38 63l-39 -63h-73z" />
    <glyph glyph-name="otilde" unicode="&#xf5;" horiz-adv-x="347" 
d="M174 -7q-160 0 -160 273q0 274 160 274q159 0 159 -274q0 -273 -159 -273zM174 92q22 0 29.5 35t7.5 140q0 98 -7 133.5t-30 35.5t-31 -34t-8 -135q0 -99 8 -137t31 -38zM227 565q-22 0 -40.5 14t-32.5 28t-24 14q-22 0 -22 -54h-67q0 84 19.5 121.5t61.5 37.5
q28 0 57 -28t39 -28q23 0 23 54h67q0 -83 -20 -121t-61 -38z" />
    <glyph glyph-name="odieresis" unicode="&#xf6;" horiz-adv-x="347" 
d="M174 -7q-160 0 -160 273q0 274 160 274q159 0 159 -274q0 -273 -159 -273zM174 92q22 0 29.5 35t7.5 140q0 98 -7 133.5t-30 35.5t-31 -34t-8 -135q0 -99 8 -137t31 -38zM194 582v119h102v-119h-102zM51 582v119h102v-119h-102z" />
    <glyph glyph-name="divide" unicode="&#xf7;" horiz-adv-x="400" 
d="M146 441v128h107v-128h-107zM24 269v110h351v-110h-351zM146 80v127h107v-127h-107z" />
    <glyph glyph-name="oslash" unicode="&#xf8;" horiz-adv-x="347" 
d="M299 459q34 -67 34 -193q0 -273 -159 -273q-39 0 -67 16l-27 -62l-71 29l40 94q-35 70 -35 196q0 274 160 274q37 0 68 -17l24 57l72 -29zM129 226l75 189q-10 21 -30 21q-26 0 -35.5 -34.5t-9.5 -134.5v-41zM217 298l-74 -183q10 -23 31 -23q26 0 34.5 35t8.5 140v31z
" />
    <glyph glyph-name="ugrave" unicode="&#xf9;" horiz-adv-x="361" 
d="M103 -7q-40 0 -58.5 23t-18.5 88v429h121v-389q0 -40 20 -40q24 0 45 21v408h122v-533h-122v58q-18 -25 -49.5 -45t-59.5 -20zM137 582l-76 151h114l52 -151h-90z" />
    <glyph glyph-name="uacute" unicode="&#xfa;" horiz-adv-x="361" 
d="M103 -7q-40 0 -58.5 23t-18.5 88v429h121v-389q0 -40 20 -40q24 0 45 21v408h122v-533h-122v58q-18 -25 -49.5 -45t-59.5 -20zM132 582l52 151h114l-76 -151h-90z" />
    <glyph glyph-name="ucircumflex" unicode="&#xfb;" horiz-adv-x="361" 
d="M103 -7q-40 0 -58.5 23t-18.5 88v429h121v-389q0 -40 20 -40q24 0 45 21v408h122v-533h-122v58q-18 -25 -49.5 -45t-59.5 -20zM68 577l71 156h83l70 -156h-74l-38 63l-39 -63h-73z" />
    <glyph glyph-name="udieresis" unicode="&#xfc;" horiz-adv-x="361" 
d="M103 -7q-40 0 -58.5 23t-18.5 88v429h121v-389q0 -40 20 -40q24 0 45 21v408h122v-533h-122v58q-18 -25 -49.5 -45t-59.5 -20zM200 582v119h102v-119h-102zM57 582v119h102v-119h-102z" />
    <glyph glyph-name="yacute" unicode="&#xfd;" horiz-adv-x="320" 
d="M62 -200q-47 0 -79 9l21 102q22 -4 31 -4q28 0 39.5 10t17.5 39l6 33l-103 544h130l26 -244q2 -17 4 -36.5t4 -45t3 -40.5h2q2 30 12 122l31 244h119l-115 -578q-16 -81 -49 -118t-100 -37zM118 582l52 151h114l-76 -151h-90z" />
    <glyph glyph-name="thorn" unicode="&#xfe;" horiz-adv-x="359" 
d="M27 -200v940h122v-260q33 63 86 63q109 0 109 -276q0 -275 -110 -275q-56 0 -85 65v-257h-122zM186 100q19 0 26 33t7 133q0 99 -7 131t-27 32q-18 0 -36 -23v-284q17 -22 37 -22z" />
    <glyph glyph-name="ydieresis" unicode="&#xff;" horiz-adv-x="320" 
d="M62 -200q-47 0 -79 9l21 102q22 -4 31 -4q28 0 39.5 10t17.5 39l6 33l-103 544h130l26 -244q2 -17 4 -36.5t4 -45t3 -40.5h2q2 30 12 122l31 244h119l-115 -578q-16 -81 -49 -118t-100 -37zM187 582v119h102v-119h-102zM44 582v119h102v-119h-102z" />
    <glyph glyph-name="dotlessi" unicode="&#x131;" horiz-adv-x="183" 
d="M31 0v533h121v-533h-121z" />
    <glyph glyph-name="Lslash" unicode="&#x141;" horiz-adv-x="299" 
d="M32 0v308l-31 -14v113l31 13v320h129v-266l37 17v-113l-37 -16v-253h134v-109h-263z" />
    <glyph glyph-name="lslash" unicode="&#x142;" horiz-adv-x="202" 
d="M40 0v310l-29 -13v102l29 13v328h122v-284l30 13v-102l-30 -13v-354h-122z" />
    <glyph glyph-name="OE" unicode="&#x152;" horiz-adv-x="528" 
d="M255 738v2h260v-113h-136v-181h95v-106h-95v-231h140v-109h-264v2q-24 -9 -55 -9q-94 0 -138.5 87.5t-44.5 289.5t44.5 289.5t138.5 87.5q31 0 55 -9zM200 109q32 0 41.5 54.5t9.5 206.5t-9.5 205t-41.5 53q-31 0 -40.5 -53t-9.5 -205t9.5 -206.5t40.5 -54.5z" />
    <glyph glyph-name="oe" unicode="&#x153;" horiz-adv-x="535" 
d="M174 -7q-160 0 -160 273q0 274 160 274q62 0 97 -47q35 47 99 47q40 0 68.5 -16.5t44.5 -41t24.5 -63t11 -71.5t2.5 -77v-44h-192q0 -69 9 -102t33 -33q19 0 27 17t11 64l112 -4q-10 -87 -45.5 -131.5t-105.5 -44.5q-63 0 -98 47q-35 -47 -98 -47zM329 304h76
q-1 75 -8 104t-27 29q-21 0 -30.5 -29.5t-10.5 -103.5zM174 92q22 0 29.5 35t7.5 140q0 98 -7 133.5t-30 35.5t-31 -34t-8 -135q0 -99 8 -137t31 -38z" />
    <glyph glyph-name="Scaron" unicode="&#x160;" horiz-adv-x="374" 
d="M187 -7q-52 0 -86 16.5t-52.5 50.5t-26.5 71.5t-12 95.5l120 9q8 -80 19.5 -107.5t38.5 -27.5q45 0 45 66q0 13 -2 25t-8.5 25.5t-10.5 21t-16.5 23t-16.5 20.5t-20.5 23.5t-20.5 22.5q-30 34 -43 50t-34 48.5t-30 66t-9 72.5q0 85 41.5 133.5t118.5 48.5q89 0 126.5 -53
t44.5 -166l-121 -11q-4 74 -14.5 96t-33.5 22q-34 0 -34 -57q0 -26 6 -47.5t23.5 -46t25.5 -34t36 -39.5q61 -66 80 -96q39 -62 39 -141q0 -88 -44.5 -134.5t-128.5 -46.5zM142 782l-71 156h74l38 -63l38 63h74l-70 -156h-83z" />
    <glyph glyph-name="scaron" unicode="&#x161;" horiz-adv-x="325" 
d="M163 -9q-79 0 -112.5 39.5t-46.5 117.5l106 15q14 -78 50 -78q32 0 32 36q0 11 -3.5 20.5t-11.5 19.5t-14.5 16t-21 19t-21.5 19q-31 28 -49.5 48.5t-35.5 58t-17 79.5q0 72 42.5 107t95.5 35q67 0 104 -34.5t47 -112.5l-104 -19q-5 39 -14 53t-27 14q-12 0 -20 -9
t-8 -24q0 -18 11.5 -37t22 -29t36.5 -32q2 -2 14.5 -13.5t15.5 -14t14 -13.5t14.5 -15.5t12.5 -15.5t12 -18t9 -18.5t8 -21t4 -22t2 -25.5q0 -66 -39 -105.5t-108 -39.5zM120 577l-71 156h74l38 -63l38 63h74l-70 -156h-83z" />
    <glyph glyph-name="Ydieresis" unicode="&#x178;" horiz-adv-x="346" 
d="M107 0v244l-115 496h130l38 -198q18 -112 20 -132h2q2 29 21 132l36 198h114l-116 -496v-244h-130zM200 787v119h102v-119h-102zM57 787v119h102v-119h-102z" />
    <glyph glyph-name="Zcaron" unicode="&#x17d;" horiz-adv-x="333" 
d="M6 0v100l183 530h-167v110h298v-104l-183 -530h183v-106h-314zM126 782l-71 156h74l38 -63l38 63h74l-70 -156h-83z" />
    <glyph glyph-name="zcaron" unicode="&#x17e;" horiz-adv-x="295" 
d="M10 0v81l140 357h-125v95h254v-86l-141 -357h147v-90h-275zM109 577l-71 156h74l38 -63l38 63h74l-70 -156h-83z" />
    <glyph glyph-name="florin" unicode="&#x192;" horiz-adv-x="278" 
d="M-55 -200l14 104h18q20 0 29.5 9t13.5 34l53 373h-44l13 95h44l26 189q11 82 45 109t124 27h24l-14 -104h-18q-20 0 -29.5 -9t-13.5 -34l-24 -178h53l-13 -95h-53l-55 -384q-12 -86 -41 -111t-107 -25h-45z" />
    <glyph glyph-name="circumflex" unicode="&#x2c6;" 
d="M55 577l71 156h83l70 -156h-74l-38 63l-39 -63h-73z" />
    <glyph glyph-name="caron" unicode="&#x2c7;" 
d="M126 577l-71 156h74l38 -63l38 63h74l-70 -156h-83z" />
    <glyph glyph-name="breve" unicode="&#x2d8;" 
d="M168 579q-54 0 -77 36t-26 117h75q1 -24 2.5 -35t4 -23t8 -16.5t13.5 -4.5q15 0 19.5 17t7.5 62h75q-3 -82 -25.5 -117.5t-76.5 -35.5z" />
    <glyph glyph-name="dotaccent" unicode="&#x2d9;" 
d="M75 580v122h125v-122h-125z" />
    <glyph glyph-name="ring" unicode="&#x2da;" horiz-adv-x="340" 
d="M172 555q-40 0 -63 30t-23 81t23 80.5t63 29.5q38 0 62 -30t24 -80q0 -51 -23.5 -81t-62.5 -30zM172 612q27 0 27 52q0 50 -27 50t-27 -50q0 -52 27 -52z" />
    <glyph glyph-name="ogonek" unicode="&#x2db;" 
d="M140 -197q-38 0 -56.5 22.5t-18.5 56.5q0 32 16 65.5t38 52.5h53q-14 -14 -25.5 -40.5t-11.5 -51.5q0 -41 29 -41q24 0 49 27l35 -30q-49 -61 -108 -61z" />
    <glyph glyph-name="tilde" unicode="&#x2dc;" 
d="M221 565q-22 0 -40.5 14t-32.5 28t-24 14q-22 0 -22 -54h-67q0 84 19.5 121.5t61.5 37.5q28 0 57 -28t39 -28q23 0 23 54h67q0 -83 -20 -121t-61 -38z" />
    <glyph glyph-name="hungarumlaut" unicode="&#x2dd;" 
d="M154 582l51 151h118l-76 -151h-93zM10 582l51 151h118l-76 -151h-93z" />
    <glyph glyph-name="endash" unicode="&#x2013;" horiz-adv-x="385" 
d="M32 254v106h321v-106h-321z" />
    <glyph glyph-name="emdash" unicode="&#x2014;" horiz-adv-x="494" 
d="M32 254v106h430v-106h-430z" />
    <glyph glyph-name="quoteleft" unicode="&#x2018;" horiz-adv-x="202" 
d="M32 459v133l61 148h51l-34 -134h61v-147h-139z" />
    <glyph glyph-name="quoteright" unicode="&#x2019;" horiz-adv-x="202" 
d="M58 459l35 134h-61v147h138v-133l-60 -148h-52z" />
    <glyph glyph-name="quotesinglbase" unicode="&#x201a;" horiz-adv-x="202" 
d="M58 -134l35 134h-61v147h138v-133l-60 -148h-52z" />
    <glyph glyph-name="quotedblleft" unicode="&#x201c;" horiz-adv-x="373" 
d="M206 467v129l59 144h50l-33 -131h59v-142h-135zM32 467v129l59 144h50l-33 -131h59v-142h-135z" />
    <glyph glyph-name="quotedblright" unicode="&#x201d;" horiz-adv-x="373" 
d="M232 467l33 130h-59v143h135v-129l-59 -144h-50zM57 467l34 130h-59v143h135v-129l-59 -144h-51z" />
    <glyph glyph-name="quotedblbase" unicode="&#x201e;" horiz-adv-x="373" 
d="M234 -131l33 131h-59v143h135v-129l-59 -145h-50zM56 -131l33 131h-59v143h135v-129l-59 -145h-50z" />
    <glyph glyph-name="dagger" unicode="&#x2020;" horiz-adv-x="358" 
d="M116 -200l17 591l-112 -9v109l112 -10l-17 259h125l-16 -259l112 10v-109l-112 9l16 -591h-125z" />
    <glyph glyph-name="daggerdbl" unicode="&#x2021;" horiz-adv-x="356" 
d="M116 -200l16 217l-111 -10v109l111 -9l-14 166l14 161l-111 -9v109l111 -10l-16 216h125l-17 -216l111 10v-109l-111 9l15 -161l-15 -166l111 9v-109l-111 10l17 -217h-125z" />
    <glyph glyph-name="bullet" unicode="&#x2022;" horiz-adv-x="418" 
d="M209 237q-47 0 -77.5 32t-30.5 81t30.5 81.5t77.5 32.5t77.5 -32.5t30.5 -81.5t-30.5 -81t-77.5 -32z" />
    <glyph glyph-name="ellipsis" unicode="&#x2026;" horiz-adv-x="611" 
d="M441 0v147h138v-147h-138zM236 0v147h139v-147h-139zM32 0v147h138v-147h-138z" />
    <glyph glyph-name="perthousand" unicode="&#x2030;" horiz-adv-x="920" 
d="M142 312q-129 0 -129 216q0 219 129 219q128 0 128 -216q0 -219 -128 -219zM151 0l243 740h94l-243 -740h-94zM778 -7q-128 0 -128 215q0 220 129 220q128 0 128 -216q0 -219 -129 -219zM497 -7q-128 0 -128 215q0 220 129 220q128 0 128 -216q0 -219 -129 -219zM142 398
q15 0 19 26t4 105q0 77 -4 102.5t-19 25.5t-19 -24t-4 -102q0 -81 4 -107t19 -26zM779 79q15 0 19 26t4 105q0 80 -4.5 104t-19.5 24t-19 -24.5t-4 -101.5q0 -81 4.5 -107t19.5 -26zM498 79q15 0 19 26t4 105q0 80 -4.5 104t-19.5 24t-19 -24.5t-4 -101.5q0 -81 4.5 -107
t19.5 -26z" />
    <glyph glyph-name="guilsinglleft" unicode="&#x2039;" horiz-adv-x="199" 
d="M77 0l-70 268l70 265h109l-69 -266l69 -267h-109z" />
    <glyph glyph-name="guilsinglright" unicode="&#x203a;" horiz-adv-x="199" 
d="M12 0l70 267l-70 266h110l70 -266l-70 -267h-110z" />
    <glyph glyph-name="fraction" unicode="&#x2044;" horiz-adv-x="289" 
d="M-6 0l194 740h106l-193 -740h-107z" />
    <glyph glyph-name="Euro" unicode="&#x20ac;" horiz-adv-x="412" 
d="M228 -7q-79 0 -121.5 59.5t-54.5 197.5h-45v97h41q-1 9 -1 47h-40v97h45q12 138 54 197t121 59q85 0 122.5 -59t45.5 -185l-112 -6q-3 77 -14.5 104.5t-35.5 27.5q-26 0 -38.5 -32.5t-15.5 -105.5h73v-97h-73v-47h73v-97h-72q3 -80 15 -111t39 -31q28 0 40 27.5t15 108.5
l110 -5q-3 -53 -10 -91t-24.5 -76.5t-52 -58.5t-84.5 -20z" />
    <glyph glyph-name="recordright" unicode="&#x2117;" horiz-adv-x="456" 
d="M228 -14q-99 0 -154.5 107t-55.5 275t56.5 277t154.5 109q99 0 154 -107t55 -275t-56 -277t-154 -109zM228 32q80 0 122 96t42 244t-41 242t-122 94q-80 0 -122 -96t-42 -244t41 -242t122 -94zM148 167v417h86q53 0 78 -33t25 -103q0 -138 -104 -138h-9v-143h-76z
M224 386h11q16 0 23.5 11.5t7.5 48.5q0 34 -7.5 46.5t-24.5 12.5h-10v-119z" />
    <glyph glyph-name="trademark" unicode="&#x2122;" horiz-adv-x="514" 
d="M216 310v430h101l36 -281l36 281h100v-430h-75v263l-32 -263h-61l-34 262v-262h-71zM66 310v340h-54v90h184v-90h-53v-340h-77z" />
    <glyph glyph-name="minus" unicode="&#x2212;" horiz-adv-x="400" 
d="M24 291v111h351v-111h-351z" />
    <glyph glyph-name="radical" unicode="&#x221a;" horiz-adv-x="361" 
d="M99 -2l-86 527h115l23 -217q10 -108 12 -145h2q7 89 14 147l54 429h116l-121 -741h-129z" />
    <glyph glyph-name="registered.alt" unicode="&#xe000;" horiz-adv-x="331" 
d="M166 292q-60 0 -93.5 64.5t-33.5 165.5t34.5 166.5t93.5 65.5t92.5 -64.5t33.5 -165.5t-34 -166.5t-93 -65.5zM166 321q47 0 72 57.5t25 145.5q0 90 -24 145.5t-72 55.5q-49 0 -73.5 -57t-24.5 -146t24 -145t73 -56zM113 402v252h51q62 0 62 -82q0 -53 -21 -74l24 -96
l-45 1l-21 87h-6v-88h-44zM157 535h5q18 0 18 36q0 34 -18 34h-5v-70z" />
    <glyph glyph-name="fl" unicode="&#xfb02;" horiz-adv-x="385" 
d="M233 0v740h121v-740h-121zM48 0v438h-43v95h43v71q0 68 35 102t125 34h6v-103h-9q-19 0 -27.5 -10t-8.5 -34v-60h44v-95h-44v-438h-121z" />
    </font>
</defs>
</svg>
