<?xml version="1.0" standalone="no"?>
<!DOCTYPE svg PUBLIC "-//W3C//DTD SVG 1.1//EN" "http://www.w3.org/Graphics/SVG/1.1/DTD/svg11.dtd" >
<svg xmlns="http://www.w3.org/2000/svg" xmlns:xlink="http://www.w3.org/1999/xlink" version="1.1">
<metadata>
Created by FontForge 20161003 at Sun Sep 22 16:57:15 2019
 By www-data
Copyright 2000-2003, The Font Bureau, Inc. Designed by Cyrus Highsmith, Tobias Frere-Jones, and Font Bureau. All rights reserved.
</metadata>
<defs>
<font id="BentonSansExtraCompLight" horiz-adv-x="272" >
  <font-face 
    font-family="BentonSansExtraCompLight"
    font-weight="400"
    font-stretch="normal"
    units-per-em="1000"
    panose-1="2 0 5 8 2 0 0 2 0 4"
    ascent="800"
    descent="-200"
    x-height="525"
    cap-height="740"
    bbox="-72 -205 760 938"
    underline-thickness="20"
    underline-position="-153"
    unicode-range="U+0020-FB0C"
  />
<missing-glyph horiz-adv-x="780" 
d="M373 387v164l-123 -8v43l123 -9l-5 163h46l-5 -163l123 9v-43l-123 8v-164h162l-8 124h43l-10 -124l164 5v-46l-164 5l10 -122h-43l8 122h-162v-162l123 8v-43l-123 10l5 -164h-46l5 164l-123 -10v43l123 -8v162h-164l8 -122h-43l10 122l-164 -5v46l164 -5l-10 124h43
l-8 -124h164z" />
    <glyph glyph-name="ff" unicode="ff" horiz-adv-x="371" 
d="M70 0v485h-51v40h51v111q0 57 28 80.5t69 23.5h14v-40h-18q-50 0 -50 -60v-115h135v111q0 57 28 80.5t69 23.5h14v-40h-18q-50 0 -50 -60v-115h64v-40h-64v-485h-43v485h-135v-485h-43z" />
    <glyph glyph-name="fi" unicode="fi" horiz-adv-x="346" 
d="M247 662v58h45v-58h-45zM70 0v485h-51v40h51v111q0 57 28 80.5t69 23.5h14v-40h-18q-50 0 -50 -60v-115h64v-40h-64v-485h-43zM248 0v525h43v-525h-43z" />
    <glyph glyph-name="ffi" unicode="ffi" horiz-adv-x="524" 
d="M425 662v58h45v-58h-45zM70 0v485h-51v40h51v111q0 57 28 80.5t69 23.5h14v-40h-18q-50 0 -50 -60v-115h135v111q0 57 28 80.5t69 23.5h14v-40h-18q-50 0 -50 -60v-115h64v-40h-64v-485h-43v485h-135v-485h-43zM426 0v525h43v-525h-43z" />
    <glyph glyph-name="ffl" unicode="ffl" horiz-adv-x="524" 
d="M426 0v740h43v-740h-43zM70 0v485h-51v40h51v111q0 57 28 80.5t69 23.5h14v-40h-18q-50 0 -50 -60v-115h135v111q0 57 28 80.5t69 23.5h14v-40h-18q-50 0 -50 -60v-115h64v-40h-64v-485h-43v485h-135v-485h-43z" />
    <glyph glyph-name="fj" unicode="fj" horiz-adv-x="346" 
d="M247 662v58h45v-58h-45zM70 0v485h-51v40h51v111q0 57 28 80.5t69 23.5h14v-40h-18q-50 0 -50 -60v-115h64v-40h-64v-485h-43zM207 -200v39h15q17 0 21.5 12t4.5 44v630h43v-625q0 -60 -16.5 -80t-53.5 -20h-14z" />
    <glyph glyph-name=".notdef" horiz-adv-x="780" 
d="M373 387v164l-123 -8v43l123 -9l-5 163h46l-5 -163l123 9v-43l-123 8v-164h162l-8 124h43l-10 -124l164 5v-46l-164 5l10 -122h-43l8 122h-162v-162l123 8v-43l-123 10l5 -164h-46l5 164l-123 -10v43l123 -8v162h-164l8 -122h-43l10 122l-164 -5v46l164 -5l-10 124h43
l-8 -124h164z" />
    <glyph glyph-name=".null" horiz-adv-x="0" 
 />
    <glyph glyph-name="nonmarkingreturn" horiz-adv-x="333" 
 />
    <glyph glyph-name="space" unicode=" " horiz-adv-x="128" 
 />
    <glyph glyph-name="exclam" unicode="!" horiz-adv-x="185" 
d="M78 194l-10 546h49l-10 -546h-29zM66 0v77h53v-77h-53z" />
    <glyph glyph-name="quotedbl" unicode="&#x22;" horiz-adv-x="251" 
d="M167 494l-9 195v51h45v-51l-9 -195h-27zM58 494l-10 195v51h46v-51l-9 -195h-27z" />
    <glyph glyph-name="numbersign" unicode="#" horiz-adv-x="379" 
d="M66 0l27 225h-66v40h70l25 210h-71v40h75l26 225h40l-26 -225h81l26 225h40l-26 -225h65v-40h-70l-24 -210h70v-40h-75l-25 -225h-41l27 225h-81l-26 -225h-41zM138 265h80l25 210h-82z" />
    <glyph glyph-name="dollar" unicode="$" horiz-adv-x="351" 
d="M156 -1q-87 11 -129 140l37 14q19 -54 40 -81.5t54 -32.5v330q-35 35 -54.5 59t-37.5 67t-18 93q0 63 28 105.5t80 48.5v77h38v-78q82 -14 118 -125l-36 -17q-17 48 -35.5 72t-48.5 29v-308q31 -32 45 -49t36 -49t31.5 -66t9.5 -74q0 -69 -31 -109t-89 -46v-92h-38v92z
M158 701q-68 -12 -68 -108q0 -53 16.5 -90t51.5 -75v273zM192 39q38 4 59 28t21 82q0 62 -19.5 103t-60.5 83v-296z" />
    <glyph glyph-name="percent" unicode="%" horiz-adv-x="507" 
d="M122 313q-27 0 -45 16t-26.5 48.5t-11.5 67.5t-3 85t3 85t11.5 67.5t26.5 48.5t45 16t45 -16t26.5 -48.5t11.5 -67.5t3 -85t-3 -85t-11.5 -67.5t-26.5 -48.5t-45 -16zM113 0l243 740h39l-243 -740h-39zM385 -7q-27 0 -45 16t-26.5 48.5t-11.5 67.5t-3 85t3 85t11.5 67.5
t26.5 48.5t45 16t45 -16t26.5 -48.5t11.5 -67.5t3 -85t-3 -85t-11.5 -67.5t-26.5 -48.5t-45 -16zM122 353q28 0 36 43.5t8 133.5t-8 133.5t-36 43.5t-36 -43.5t-8 -133.5t8 -133.5t36 -43.5zM385 33q28 0 36 43.5t8 133.5t-8 133.5t-36 43.5t-36 -43.5t-8 -133.5t8 -133.5
t36 -43.5z" />
    <glyph glyph-name="ampersand" unicode="&#x26;" horiz-adv-x="391" 
d="M155 -4q-63 0 -96.5 42t-33.5 119q0 71 26 130.5t71 124.5q-38 107 -38 183q0 154 91 154q79 0 79 -123q0 -111 -86 -225q7 -19 21.5 -50.5t20.5 -45.5q27 -67 64 -141q23 77 30 212h42q-13 -171 -46 -258q46 -74 84 -74v-44q-58 0 -105 73q-46 -77 -124 -77zM155 444
q55 88 55 178q0 86 -36 86q-47 0 -47 -101q0 -69 28 -163zM156 38q65 0 100 74q-29 52 -82 173q-36 83 -37 86q-68 -113 -68 -211q0 -122 87 -122z" />
    <glyph glyph-name="quotesingle" unicode="'" horiz-adv-x="142" 
d="M58 494l-10 195v51h46v-51l-9 -195h-27z" />
    <glyph glyph-name="parenleft" unicode="(" horiz-adv-x="233" 
d="M186 -203q-138 210 -138 473t138 474l32 -19q-128 -198 -128 -455t128 -455z" />
    <glyph glyph-name="parenright" unicode=")" horiz-adv-x="233" 
d="M47 -203l-32 19q128 198 128 455t-128 455l32 18q138 -210 138 -473t-138 -474z" />
    <glyph glyph-name="asterisk" unicode="*" horiz-adv-x="336" 
d="M110 466l-32 18l73 109l-131 -8v36l131 -8l-73 109l32 18l58 -117l58 117l32 -18l-73 -109l131 8v-36l-130 8l72 -109l-32 -18l-58 117z" />
    <glyph glyph-name="plus" unicode="+" horiz-adv-x="347" 
d="M153 123v182h-116v39h116v182h41v-182h116v-39h-116v-182h-41z" />
    <glyph glyph-name="comma" unicode="," horiz-adv-x="164" 
d="M59 -97l20 97h-24v76h53v-70l-29 -103h-20z" />
    <glyph glyph-name="hyphen" unicode="-" horiz-adv-x="215" 
d="M40 298v39h135v-39h-135z" />
    <glyph glyph-name="period" unicode="." horiz-adv-x="164" 
d="M55 0v76h53v-76h-53z" />
    <glyph glyph-name="slash" unicode="/" horiz-adv-x="303" 
d="M14 0l236 740h39l-236 -740h-39z" />
    <glyph glyph-name="zero" unicode="0" horiz-adv-x="352" 
d="M176 -7q-78 0 -110.5 85t-32.5 292t32.5 292t110.5 85t110 -85t32 -292t-32 -292t-110 -85zM176 35q35 0 55.5 28.5t31.5 102.5t11 204t-11.5 205t-32 103.5t-54.5 28.5q-35 0 -56 -29t-32 -103.5t-11 -204.5q0 -129 11.5 -204t32.5 -103t55 -28z" />
    <glyph glyph-name="one" unicode="1" horiz-adv-x="252" 
d="M37 0v41h78v645q-35 -33 -77 -33v39q53 3 79 48h41v-699h70v-41h-191z" />
    <glyph glyph-name="two" unicode="2" horiz-adv-x="324" 
d="M30 0v16q0 66 16 121t40 90.5t52 73.5t52 71t40 83t16 109q0 141 -81 141q-37 0 -57 -28.5t-29 -96.5l-41 5q20 162 128 162q59 0 91.5 -46t32.5 -135q0 -71 -22 -129.5t-53 -99.5t-62.5 -81.5t-54.5 -95t-24 -118.5h216v-42h-260z" />
    <glyph glyph-name="three" unicode="3" horiz-adv-x="320" 
d="M150 -7q-113 0 -132 150l41 7q11 -65 32.5 -90t58.5 -25q88 0 88 167q0 95 -22 133t-96 38h-14v42h18q66 0 86 32t20 113q0 69 -16 107t-62 38q-34 0 -52.5 -24.5t-30.5 -78.5l-40 8q28 137 124 137q67 0 94 -48t27 -136q0 -75 -19.5 -113.5t-60.5 -53.5q48 -17 68 -60.5
t20 -131.5q0 -98 -32 -154.5t-100 -56.5z" />
    <glyph glyph-name="four" unicode="4" horiz-adv-x="332" 
d="M205 0v192h-186v31l185 517h43v-507h69v-41h-69v-192h-42zM64 233h141v394h-1z" />
    <glyph glyph-name="five" unicode="5" horiz-adv-x="314" 
d="M150 -7q-106 0 -124 155l41 6q9 -62 28.5 -90.5t54.5 -28.5q92 0 92 213q0 201 -78 201q-31 0 -48.5 -23.5t-31.5 -71.5l-37 7l15 379h203l-3 -42h-162l-12 -269q22 62 82 62q116 0 116 -240q0 -258 -136 -258z" />
    <glyph glyph-name="six" unicode="6" horiz-adv-x="326" 
d="M171 -7q-71 0 -105 87t-34 277q0 128 12 210.5t44 131t86 48.5q23 0 42 -10t29.5 -22t20 -32.5t13 -32.5t7.5 -30l-40 -9q-11 45 -27.5 69.5t-44.5 24.5q-53 0 -74 -73.5t-24 -236.5q42 64 99 64q39 0 65 -17.5t39 -50.5t18 -71t5 -90q0 -237 -131 -237zM172 35
q46 0 66 47.5t20 147.5q0 93 -16.5 140t-65.5 47q-61 0 -100 -73q2 -309 96 -309z" />
    <glyph glyph-name="seven" unicode="7" horiz-adv-x="301" 
d="M61 0l177 698h-205v42h247v-39l-176 -701h-43z" />
    <glyph glyph-name="eight" unicode="8" horiz-adv-x="326" 
d="M164 -10q-66 0 -102.5 49t-36.5 128q0 42 8.5 76t29 63.5t33.5 44.5t43 44q-32 31 -48.5 51.5t-32 58.5t-15.5 84q0 71 31 116t90 45q58 0 88.5 -45t30.5 -116q0 -64 -23.5 -106.5t-68.5 -86.5q28 -27 41.5 -43t33 -44.5t27.5 -63t8 -78.5q0 -77 -36 -127t-101 -50z
M166 422q37 39 56 75.5t19 91.5q0 119 -77 119q-41 0 -60.5 -32.5t-19.5 -83.5q0 -56 20.5 -92.5t61.5 -77.5zM164 31q46 0 71 36t25 103q0 48 -15 87.5t-32.5 60.5t-48.5 52q-33 -33 -49.5 -53.5t-32 -60t-15.5 -86.5q0 -66 25.5 -102.5t71.5 -36.5z" />
    <glyph glyph-name="nine" unicode="9" horiz-adv-x="326" 
d="M152 -7q-23 0 -42 10t-29.5 22t-20 32.5t-13 32.5t-7.5 30l40 9q11 -45 27.5 -69.5t44.5 -24.5q53 0 74 73.5t24 236.5q-42 -64 -99 -64q-39 0 -65 17.5t-39 50.5t-18 71t-5 90q0 237 131 237q71 0 105 -87t34 -277q0 -128 -12 -210.5t-44 -131t-86 -48.5zM150 323
q61 0 100 73q-2 309 -96 309q-46 0 -66 -47.5t-20 -147.5q0 -93 16.5 -140t65.5 -47z" />
    <glyph glyph-name="colon" unicode=":" horiz-adv-x="164" 
d="M55 448v77h53v-77h-53zM55 0v76h53v-76h-53z" />
    <glyph glyph-name="semicolon" unicode=";" horiz-adv-x="164" 
d="M55 448v77h53v-77h-53zM59 -97l20 97h-24v76h53v-70l-29 -103h-20z" />
    <glyph glyph-name="less" unicode="&#x3c;" horiz-adv-x="347" 
d="M286 118l-241 190v33l241 190v-45l-203 -161l203 -162v-45z" />
    <glyph glyph-name="equal" unicode="=" horiz-adv-x="347" 
d="M37 401v39h273v-39h-273zM37 212v39h273v-39h-273z" />
    <glyph glyph-name="greater" unicode="&#x3e;" horiz-adv-x="347" 
d="M61 118v45l203 161l-203 162v45l241 -190v-33z" />
    <glyph glyph-name="question" unicode="?" horiz-adv-x="287" 
d="M106 194q0 72 12.5 117t36.5 92q3 5 14 25.5t14.5 28t11 26.5t10.5 32.5t6 34.5t3 43q0 53 -13 83.5t-54 30.5q-60 0 -87 -105l-39 9q14 61 45.5 98.5t81.5 37.5q110 0 110 -154q0 -25 -3.5 -48.5t-6.5 -37.5t-13 -37t-12.5 -28.5t-17 -31t-15.5 -27.5q-22 -43 -33 -83.5
t-11 -105.5h-40zM101 0v77h53v-77h-53z" />
    <glyph glyph-name="at" unicode="@" horiz-adv-x="485" 
d="M243 -14q-209 0 -209 384q0 194 54 289t155 95q99 0 153.5 -96.5t54.5 -277.5q0 -118 -22.5 -170.5t-69.5 -52.5q-65 0 -71 76q-28 -76 -82 -76q-43 0 -60.5 41.5t-17.5 118.5q0 130 28.5 202t82.5 72q45 0 62 -56l4 47h36l-23 -294q-4 -57 5 -76.5t36 -19.5
q28 0 41.5 42.5t13.5 145.5q0 165 -44.5 253t-126.5 88q-171 0 -171 -351t171 -351q60 0 112 33l16 -27q-59 -39 -128 -39zM208 193q39 0 72 73l18 222q-22 65 -62 65q-29 0 -48.5 -60.5t-19.5 -172.5q0 -68 9 -97.5t31 -29.5z" />
    <glyph glyph-name="A" unicode="A" horiz-adv-x="342" 
d="M23 0l129 743h39l128 -743h-45l-41 251h-125l-41 -251h-44zM115 292h111l-41 256q-9 51 -14 111h-1q-4 -57 -14 -111z" />
    <glyph glyph-name="B" unicode="B" horiz-adv-x="341" 
d="M55 0v740h89q82 0 116 -43.5t34 -143.5q0 -81 -20.5 -118.5t-57.5 -52.5v-2q44 -15 68.5 -54.5t24.5 -125.5q0 -103 -37.5 -151.5t-115.5 -48.5h-101zM99 400h44q57 0 82 36.5t25 114.5q0 80 -21 113.5t-85 33.5h-45v-298zM99 42h60q60 0 83 37.5t23 119.5t-29 121.5
t-91 39.5h-46v-318z" />
    <glyph glyph-name="C" unicode="C" horiz-adv-x="339" 
d="M184 -7q-77 0 -112.5 84.5t-35.5 292.5q0 206 36.5 291.5t109.5 85.5q115 0 128 -223l-42 -4q-12 185 -85 185q-58 0 -80.5 -82.5t-22.5 -252.5t22.5 -252.5t81.5 -82.5q45 0 66 47.5t27 145.5l41 -3q-10 -232 -134 -232z" />
    <glyph glyph-name="D" unicode="D" horiz-adv-x="348" 
d="M55 0v740h81q99 0 138 -83.5t39 -286.5q0 -201 -39.5 -285.5t-137.5 -84.5h-81zM99 42h42q75 0 101.5 77.5t26.5 250.5q0 84 -5 140.5t-19 101t-40 65.5t-65 21h-41v-656z" />
    <glyph glyph-name="E" unicode="E" horiz-adv-x="287" 
d="M55 0v740h203v-42h-159v-284h106v-42h-106v-330h171v-42h-215z" />
    <glyph glyph-name="F" unicode="F" 
d="M55 0v740h209v-42h-165v-283h112v-42h-112v-373h-44z" />
    <glyph glyph-name="G" unicode="G" horiz-adv-x="362" 
d="M180 -4q-49 0 -80 33.5t-47.5 116.5t-16.5 224q0 206 36.5 291.5t110.5 85.5q115 0 128 -223l-43 -4q-12 185 -85 185q-58 0 -80.5 -82t-22.5 -253q0 -170 23 -252t81 -82q53 0 72.5 63t17.5 198h-89v43h128v-340h-39v74h-1q-6 -32 -30.5 -55t-62.5 -23z" />
    <glyph glyph-name="H" unicode="H" horiz-adv-x="366" 
d="M55 0v740h44v-327h168v327h44v-740h-44v371h-168v-371h-44z" />
    <glyph glyph-name="I" unicode="I" horiz-adv-x="164" 
d="M60 0v740h44v-740h-44z" />
    <glyph glyph-name="J" unicode="J" horiz-adv-x="269" 
d="M11 23l21 35q38 -24 80 -24q60 0 60 72v634h44v-634q0 -58 -29 -85.5t-75 -27.5q-55 0 -101 30z" />
    <glyph glyph-name="K" unicode="K" horiz-adv-x="308" 
d="M55 0v740h44v-384q31 88 63 167l86 217h43l-118 -295l142 -445h-44l-122 386l-50 -125v-261h-44z" />
    <glyph glyph-name="L" unicode="L" horiz-adv-x="273" 
d="M55 0v740h44v-697h164v-43h-208z" />
    <glyph glyph-name="M" unicode="M" horiz-adv-x="441" 
d="M55 0v740h54l111 -656h1l111 656h54v-740h-42v543q0 34 3 79h-2q-2 -18 -19 -124l-85 -498h-43l-85 497q-16 91 -18 125h-2q2 -32 2 -80v-542h-40z" />
    <glyph glyph-name="N" unicode="N" horiz-adv-x="359" 
d="M55 0v740h48l134 -500q22 -83 29 -123h1l-3 144v479h40v-740h-39l-149 551q-18 70 -23 105h-1l3 -126v-530h-40z" />
    <glyph glyph-name="O" unicode="O" horiz-adv-x="372" 
d="M186 -7q-76 0 -113 89t-37 288t37 288t113 89t113 -89t37 -288t-37 -288t-113 -89zM186 35q59 0 82.5 82.5t23.5 252.5t-23.5 252.5t-82.5 82.5q-58 0 -82 -83t-24 -252t24 -252t82 -83z" />
    <glyph glyph-name="P" unicode="P" horiz-adv-x="319" 
d="M55 0v740h106q64 0 102 -47.5t38 -152.5q0 -210 -144 -210h-58v-330h-44zM99 372h60q51 0 74.5 40.5t23.5 125.5q0 82 -23.5 121t-75.5 39h-59v-326z" />
    <glyph glyph-name="Q" unicode="Q" horiz-adv-x="373" 
d="M289 -182q-72 0 -99 41t-27 135q-61 14 -94 99t-33 277q0 199 37 288t113 89t113.5 -89t37.5 -288q0 -194 -33 -278.5t-97 -97.5q0 -81 17 -107.5t65 -26.5h29v-42h-29zM186 32q59 0 82.5 84t23.5 254t-23.5 252.5t-82.5 82.5q-58 0 -82 -83t-24 -252t24 -253.5t82 -84.5
z" />
    <glyph glyph-name="R" unicode="R" horiz-adv-x="332" 
d="M55 0v740h106q69 0 104.5 -46t35.5 -154q0 -175 -92 -204l96 -336h-45l-95 330h-66v-330h-44zM99 372h60q56 0 77 39t21 127q0 85 -21 122.5t-78 37.5h-59v-326z" />
    <glyph glyph-name="S" unicode="S" horiz-adv-x="318" 
d="M163 -7q-62 0 -93 45.5t-46 140.5l41 7q12 -79 35 -115t64 -36q84 0 84 111q0 39 -17.5 80.5t-31 61t-52.5 71.5q-2 3 -17.5 23.5t-18.5 25t-16 23t-16.5 26t-12.5 24.5t-12 28t-8 27t-6.5 31t-1.5 31q0 70 32 109.5t83 39.5q57 0 85 -40.5t46 -124.5l-42 -9
q-14 72 -34.5 102t-56.5 30q-69 0 -69 -105q0 -39 14.5 -78t30.5 -63t46 -64q7 -9 10 -13q64 -84 83 -123q26 -55 26 -113q0 -75 -35.5 -114t-93.5 -39z" />
    <glyph glyph-name="T" unicode="T" horiz-adv-x="284" 
d="M120 0v698h-110v42h264v-42h-110v-698h-44z" />
    <glyph glyph-name="U" unicode="U" horiz-adv-x="360" 
d="M179 -7q-34 0 -58 12t-37 30.5t-20 52t-9 64t-2 78.5v510h44v-498q0 -40 0.5 -60t3 -48.5t7.5 -43t14 -29t23.5 -20.5t34.5 -6t34.5 5.5t24 19.5t15 28.5t8 42t3 49.5t0.5 60v500h42v-507q0 -49 -2 -80.5t-9.5 -65t-21 -52t-37.5 -30.5t-58 -12z" />
    <glyph glyph-name="V" unicode="V" horiz-adv-x="332" 
d="M146 -3l-123 743h45l84 -542q10 -63 14 -112h1q9 82 14 112l84 542h44l-124 -743h-39z" />
    <glyph glyph-name="W" unicode="W" horiz-adv-x="498" 
d="M125 0l-99 740h45l61 -502q8 -60 13 -146h1q3 56 14 146l66 502h48l66 -500q10 -86 14 -150h1q3 68 13 150l61 500h43l-99 -740h-42l-81 650h-1l-82 -650h-42z" />
    <glyph glyph-name="X" unicode="X" horiz-adv-x="322" 
d="M19 0l119 404l-100 336h44l80 -274l77 274h44l-100 -339l120 -401h-44l-100 340l-97 -340h-43z" />
    <glyph glyph-name="Y" unicode="Y" horiz-adv-x="299" 
d="M127 0v283l-115 457h44l66 -272q27 -116 27 -117h1q0 1 27 117l66 272h44l-116 -457v-283h-44z" />
    <glyph glyph-name="Z" unicode="Z" horiz-adv-x="307" 
d="M26 0v35l205 663h-189v42h235v-36l-205 -663h205v-41h-251z" />
    <glyph glyph-name="bracketleft" unicode="[" horiz-adv-x="205" 
d="M52 -200v940h124v-39h-81v-862h81v-39h-124z" />
    <glyph glyph-name="backslash" unicode="\" horiz-adv-x="303" 
d="M250 0l-236 740h39l236 -740h-39z" />
    <glyph glyph-name="bracketright" unicode="]" horiz-adv-x="205" 
d="M29 -200v39h81v862h-81v39h124v-940h-124z" />
    <glyph glyph-name="asciicircum" unicode="^" 
d="M56 577l71 156h19l70 -156h-26l-55 85l-54 -85h-25z" />
    <glyph glyph-name="underscore" unicode="_" horiz-adv-x="273" 
d="M1 -118v41h271v-41h-271z" />
    <glyph glyph-name="grave" unicode="`" 
d="M136 582l-76 151h52l52 -151h-28z" />
    <glyph glyph-name="a" unicode="a" horiz-adv-x="288" 
d="M112 -4q-43 0 -63.5 32t-20.5 86q0 77 44 139.5t127 97.5v60q0 81 -48 81q-29 0 -46 -20t-30 -56l-37 13q20 54 48 78.5t68 24.5q47 0 67 -31t20 -97v-274q0 -94 8 -130h-43q-6 27 -6 55q-37 -59 -88 -59zM117 36q22 0 45 20.5t37 45.5v207q-63 -25 -96 -80.5t-33 -114.5
q0 -78 47 -78z" />
    <glyph glyph-name="b" unicode="b" horiz-adv-x="310" 
d="M172 -6q-54 0 -82 63v-57h-43v740h43v-271q33 63 83 63q53 0 79.5 -61t26.5 -209t-27 -208t-80 -60zM166 35q38 0 54 52t16 174q0 121 -16.5 175.5t-54.5 54.5t-75 -71v-312q40 -73 76 -73z" />
    <glyph glyph-name="c" unicode="c" horiz-adv-x="271" 
d="M149 -7q-61 0 -89.5 66t-28.5 203q0 139 28 204.5t91 65.5q47 0 70 -37t34 -116l-40 -7q-10 63 -22.5 91.5t-43.5 28.5q-42 0 -58 -59t-16 -170q0 -52 2.5 -88.5t10 -71.5t23.5 -52.5t40 -17.5q30 0 43.5 28.5t22.5 92.5l38 -4q-10 -81 -35.5 -119t-69.5 -38z" />
    <glyph glyph-name="d" unicode="d" horiz-adv-x="310" 
d="M138 -6q-53 0 -79.5 59t-26.5 207t27 210t80 62q52 0 82 -66v274h43v-610q0 -95 9 -130h-46l-6 54q-31 -60 -83 -60zM146 35q37 0 75 68v311q-41 77 -76 77q-38 0 -54 -53.5t-16 -176.5q0 -121 16 -173.5t55 -52.5z" />
    <glyph glyph-name="e" unicode="e" horiz-adv-x="294" 
d="M150 -7q-63 0 -91 64.5t-28 204.5q0 141 28 205.5t92 64.5q35 0 58.5 -22t34.5 -63t15 -82.5t4 -97.5v-5h-189q0 -118 16.5 -173.5t61.5 -55.5q33 0 46.5 24.5t22.5 86.5l38 -4q-17 -147 -109 -147zM74 300h145q-1 91 -15.5 141.5t-52.5 50.5q-40 0 -55.5 -43.5
t-21.5 -148.5z" />
    <glyph glyph-name="f" unicode="f" horiz-adv-x="193" 
d="M70 0v485h-51v40h51v111q0 57 28 80.5t69 23.5h14v-40h-18q-50 0 -50 -60v-115h64v-40h-64v-485h-43z" />
    <glyph glyph-name="g" unicode="g" horiz-adv-x="298" 
d="M140 -200q-62 0 -93.5 34.5t-31.5 84.5q0 38 16.5 75t43.5 59q-30 20 -30 63q0 35 32 69q-43 45 -43 159q0 87 27.5 137.5t81.5 50.5q55 0 82 -50q31 34 61 42v-48q-27 0 -51 -16q17 -44 17 -116q0 -88 -27.5 -136.5t-81.5 -48.5q-24 0 -40 8q-21 -22 -21 -49
q0 -30 34 -40l66 -19q47 -14 70 -42.5t23 -78.5q0 -63 -40 -100.5t-95 -37.5zM143 199q67 0 67 145q0 148 -67 148t-67 -148q0 -145 67 -145zM142 -160q41 0 66 27.5t25 67.5q0 68 -67 87l-60 17q-22 -18 -35.5 -50t-13.5 -64q0 -37 21.5 -61t63.5 -24z" />
    <glyph glyph-name="h" unicode="h" horiz-adv-x="313" 
d="M47 0v740h43v-277q51 69 106 69q38 0 55.5 -28.5t17.5 -97.5v-406h-43v402q0 49 -7 69t-32 20q-42 0 -97 -72v-419h-43z" />
    <glyph glyph-name="i" unicode="i" horiz-adv-x="153" 
d="M54 662v58h45v-58h-45zM55 0v525h43v-525h-43z" />
    <glyph glyph-name="j" unicode="j" horiz-adv-x="153" 
d="M54 662v58h45v-58h-45zM14 -200v39h15q17 0 21.5 12t4.5 44v630h43v-625q0 -60 -16.5 -80t-53.5 -20h-14z" />
    <glyph glyph-name="k" unicode="k" horiz-adv-x="282" 
d="M47 0v740h43v-494q26 67 39 97l77 182h41l-85 -200l102 -325h-43l-84 270l-47 -108v-162h-43z" />
    <glyph glyph-name="l" unicode="l" horiz-adv-x="153" 
d="M55 0v740h43v-740h-43z" />
    <glyph glyph-name="m" unicode="m" horiz-adv-x="477" 
d="M47 0v525h43v-62q15 20 25.5 32t31 24.5t42.5 12.5q56 0 68 -71q50 71 103 71q38 0 55.5 -28.5t17.5 -97.5v-406h-43v402q0 49 -7 69t-32 20q-36 0 -90 -72v-419h-43v402q0 49 -7 69t-32 20q-34 0 -89 -72v-419h-43z" />
    <glyph glyph-name="n" unicode="n" horiz-adv-x="313" 
d="M47 0v525h43v-62q51 69 106 69q38 0 55.5 -28.5t17.5 -97.5v-406h-43v402q0 49 -7 69t-32 20q-42 0 -97 -72v-419h-43z" />
    <glyph glyph-name="o" unicode="o" horiz-adv-x="302" 
d="M151 -7q-63 0 -91.5 66t-28.5 203q0 139 28 204.5t92 65.5t92 -65.5t28 -204.5q0 -137 -28.5 -203t-91.5 -66zM151 33q44 0 60 58.5t16 171.5q0 109 -15 169t-61 60q-45 0 -61 -59t-16 -170q0 -110 15.5 -170t61.5 -60z" />
    <glyph glyph-name="p" unicode="p" horiz-adv-x="310" 
d="M47 -200v725h43v-56q33 63 83 63q53 0 79.5 -61.5t26.5 -209.5q0 -100 -13 -160.5t-36 -83.5t-58 -23q-54 0 -82 63v-257h-43zM166 35q38 0 54 51.5t16 173.5q0 121 -16.5 176t-54.5 55t-75 -71v-312q40 -73 76 -73z" />
    <glyph glyph-name="q" unicode="q" horiz-adv-x="310" 
d="M220 -200v254q-31 -60 -83 -60q-53 0 -79.5 59t-26.5 207t27 210t80 62q52 0 82 -66v59h43v-725h-43zM145 35q37 0 75 68v311q-41 77 -76 77q-38 0 -54 -53.5t-16 -176.5q0 -121 16 -173.5t55 -52.5z" />
    <glyph glyph-name="r" unicode="r" horiz-adv-x="213" 
d="M47 0v525h43v-75h1q15 37 41.5 61.5t57.5 24.5h7l-4 -42h-10q-29 0 -55 -33.5t-38 -74.5v-386h-43z" />
    <glyph glyph-name="s" unicode="s" 
d="M137 -9q-47 0 -77.5 26t-51.5 81l38 14q30 -81 91 -81q62 0 62 76q0 25 -12 52t-24.5 43.5t-38.5 47.5q-30 37 -44.5 56t-30 53t-15.5 66q0 48 28.5 78.5t73.5 30.5q41 0 66 -24.5t43 -74.5l-38 -14q-13 36 -29 54.5t-42 18.5t-42 -19.5t-16 -49.5q0 -27 14.5 -56.5
t24.5 -42.5t40 -48q28 -34 43.5 -56t29 -53.5t13.5 -61.5q0 -52 -27.5 -84t-78.5 -32z" />
    <glyph glyph-name="t" unicode="t" horiz-adv-x="211" 
d="M155 -5q-47 0 -68 21.5t-21 82.5v386h-51v40h51v191h42v-191h76v-40h-76v-381q0 -38 10.5 -53.5t36.5 -15.5q13 0 30 5v-40q-15 -5 -30 -5z" />
    <glyph glyph-name="u" unicode="u" horiz-adv-x="313" 
d="M117 -5q-38 0 -55.5 28.5t-17.5 97.5v404h43v-400q0 -49 7 -69t32 -20q42 0 97 72v417h43v-525h-43v63q-50 -68 -106 -68z" />
    <glyph glyph-name="v" unicode="v" horiz-adv-x="274" 
d="M116 -3l-97 528h45l52 -311q15 -82 20 -132h1q8 67 21 132l52 311h45l-98 -528h-41z" />
    <glyph glyph-name="w" unicode="w" horiz-adv-x="410" 
d="M107 0l-85 525h44l44 -321q9 -58 12 -96h1q4 38 14 95l50 322h37l49 -321q14 -93 14 -96h1q3 34 13 100l44 317h43l-85 -525h-35l-62 435h-1l-64 -435h-34z" />
    <glyph glyph-name="x" unicode="x" horiz-adv-x="275" 
d="M20 0l95 278l-87 247h41l70 -202l68 202h40l-88 -258l95 -267h-41l-78 223l-75 -223h-40z" />
    <glyph glyph-name="y" unicode="y" horiz-adv-x="276" 
d="M43 -200q-19 0 -43 11l19 38q12 -7 25 -7q23 0 31.5 17t21.5 80l18 88l-100 498h45l55 -293q12 -63 21 -121h2q2 13 5.5 32.5t9 47t8.5 45.5l56 289h44l-124 -597q-16 -78 -35 -103t-59 -25z" />
    <glyph glyph-name="z" unicode="z" horiz-adv-x="253" 
d="M25 0v31l151 454h-136v40h180v-31l-151 -454h157v-40h-201z" />
    <glyph glyph-name="braceleft" unicode="{" horiz-adv-x="197" 
d="M169 -200q-47 0 -67 27.5t-20 92.5v241q0 63 -10.5 77.5t-50.5 14.5v34q40 0 50.5 14.5t10.5 77.5v241q0 65 20 92.5t67 27.5h22v-39h-19q-28 0 -38 -14.5t-10 -60.5v-246q0 -57 -11.5 -78t-38.5 -31v-2q27 -10 38.5 -31t11.5 -78v-246q0 -46 10 -60.5t38 -14.5h19v-39
h-22z" />
    <glyph glyph-name="bar" unicode="|" horiz-adv-x="201" 
d="M80 -200v940h41v-940h-41z" />
    <glyph glyph-name="braceright" unicode="}" horiz-adv-x="197" 
d="M6 -200v39h19q28 0 38 14.5t10 60.5v246q0 57 11.5 78t38.5 31v2q-27 10 -38.5 31t-11.5 78v246q0 46 -10 60.5t-38 14.5h-19v39h22q47 0 67 -27.5t20 -92.5v-241q0 -63 10.5 -77.5t50.5 -14.5v-34q-40 0 -50.5 -14.5t-10.5 -77.5v-241q0 -65 -20 -92.5t-67 -27.5h-22z
" />
    <glyph glyph-name="asciitilde" unicode="~" 
d="M181 377q-23 0 -52.5 28t-36.5 28q-19 0 -19 -54h-38q0 96 56 96q21 0 50 -28t39 -28q11 0 15 10.5t4 43.5h38q0 -96 -56 -96z" />
    <glyph glyph-name="nbspace" unicode="&#xa0;" horiz-adv-x="64" 
 />
    <glyph glyph-name="exclamdown" unicode="&#xa1;" horiz-adv-x="185" 
d="M66 663v77h53v-77h-53zM68 0l10 546h29l10 -546h-49z" />
    <glyph glyph-name="cent" unicode="&#xa2;" horiz-adv-x="271" 
d="M130 -9q-99 19 -99 271q0 128 23.5 195t75.5 77v104h37v-103q38 -6 57 -43t30 -109l-40 -7q-9 60 -18.5 86.5t-30.5 33.5v-467q22 6 32.5 34t18.5 87l38 -4q-18 -142 -87 -155v-119h-37v119zM132 495q-58 -21 -58 -232q0 -100 11.5 -160t46.5 -73v465z" />
    <glyph glyph-name="sterling" unicode="&#xa3;" horiz-adv-x="319" 
d="M79 -9q-35 0 -58 22.5t-23 66.5q0 45 23 71.5t61 26.5q39 0 63 -39q7 82 -30 235h-68v42h57q-30 116 -30 182q0 151 99 151q40 0 62.5 -27.5t28.5 -62.5t8 -92l-43 -3q-1 40 -2.5 59.5t-7 42.5t-17 32.5t-31.5 9.5q-54 0 -54 -113q0 -57 30 -179h73v-42h-62
q29 -116 29 -192q0 -59 -13 -103q26 -47 50 -47t33 33t11 113h40q0 -92 -18.5 -139.5t-67.5 -47.5q-43 0 -66 45q-28 -45 -77 -45zM79 29q40 0 56 52q-12 29 -23.5 44t-31.5 15q-17 0 -29.5 -15t-12.5 -43q0 -26 12 -39.5t29 -13.5z" />
    <glyph glyph-name="currency" unicode="&#xa4;" horiz-adv-x="348" 
d="M193 -9q-68 0 -103 64t-43 217h-48v42h47q-1 17 -1 112h-46v42h48q9 152 44 216.5t100 64.5q52 0 83 -41.5t44 -143.5l-41 -6q-11 83 -31 117t-54 34q-91 0 -102 -241h99v-42h-101v-112h101v-42h-99q6 -125 30 -182.5t73 -57.5q42 0 62.5 38.5t31.5 119.5l41 -4
q-10 -92 -41 -143.5t-94 -51.5z" />
    <glyph glyph-name="yen" unicode="&#xa5;" horiz-adv-x="303" 
d="M131 0v141h-95v42h95v108h-95v42h88l-106 407h44l65 -268q4 -17 11 -43t11.5 -43t4.5 -22h1q0 5 4.5 22t11 43t10.5 43l65 268h43l-107 -407h88v-42h-95v-108h95v-42h-95v-141h-44z" />
    <glyph glyph-name="brokenbar" unicode="&#xa6;" horiz-adv-x="201" 
d="M80 331v409h41v-409h-41zM80 -200v409h41v-409h-41z" />
    <glyph glyph-name="section" unicode="&#xa7;" horiz-adv-x="308" 
d="M145 -205q-58 0 -81 44t-30 127l44 4q2 -26 4 -41t6.5 -35.5t11.5 -31.5t18.5 -19t27.5 -8q60 0 60 100q0 48 -19.5 86.5t-56.5 83.5q-31 38 -46.5 60.5t-31 60.5t-15.5 77q0 84 70 156q-54 79 -54 155q0 70 30.5 105t76.5 35q58 0 82 -44.5t31 -126.5l-44 -4
q-3 32 -6 51.5t-10.5 41t-20.5 32t-33 10.5q-29 0 -45.5 -25t-16.5 -75q0 -34 13 -67t26.5 -52.5t38.5 -50.5q31 -38 46.5 -60.5t31 -60.5t15.5 -77q0 -84 -71 -157q53 -78 53 -154q0 -70 -29.5 -105t-75.5 -35zM173 122q51 57 51 124q0 33 -14.5 66.5t-27 51t-41.5 52.5
q-1 2 -4 5.5t-5 5.5q-51 -57 -51 -124q0 -33 14.5 -67t26.5 -49.5t42 -53.5q1 -2 4 -5.5t5 -5.5z" />
    <glyph glyph-name="dieresis" unicode="&#xa8;" 
d="M156 582v64h48v-64h-48zM67 582v64h47v-64h-47z" />
    <glyph glyph-name="copyright" unicode="&#xa9;" horiz-adv-x="403" 
d="M202 -14q-78 0 -125 110t-47 274t47 274t125 110t124.5 -110t46.5 -274t-46.5 -274t-124.5 -110zM202 20q63 0 101.5 101t38.5 249t-38.5 249t-101.5 101t-101.5 -101t-38.5 -249t38.5 -249t101.5 -101zM205 156q-46 0 -67 49.5t-21 168.5t21.5 170.5t65.5 51.5
q69 0 77 -139l-35 -3q-8 99 -42 99q-28 0 -38 -44t-10 -135q0 -90 10 -132.5t39 -42.5q22 0 31.5 24t13.5 77l34 -3q-7 -141 -79 -141z" />
    <glyph glyph-name="ordfeminine" unicode="&#xaa;" horiz-adv-x="210" 
d="M79 363q-56 0 -56 85q0 54 32 100.5t88 67.5v42q0 53 -29 53q-19 0 -30 -13.5t-21 -40.5l-34 13q29 77 87 77q35 0 50.5 -23t15.5 -71v-194q0 -68 6 -94l-39 1q-3 22 -4 36q-27 -39 -66 -39zM90 398q14 0 29 13t24 29v138q-40 -18 -61 -54.5t-21 -75.5q0 -50 29 -50z" />
    <glyph glyph-name="guillemotleft" unicode="&#xab;" horiz-adv-x="229" 
d="M171 0l-65 263l65 262h41l-64 -262l64 -263h-41zM71 0l-65 263l65 262h41l-64 -262l64 -263h-41z" />
    <glyph glyph-name="registered" unicode="&#xae;" horiz-adv-x="403" 
d="M202 -14q-57 0 -96.5 52.5t-57.5 137.5t-18 194t18 194t57.5 137.5t96.5 52.5q84 0 127.5 -107.5t43.5 -276.5t-43.5 -276.5t-127.5 -107.5zM202 20q68 0 104 98.5t36 251.5t-36 251.5t-104 98.5t-104 -98.5t-36 -251.5t36 -251.5t104 -98.5zM132 165v424h64
q43 0 64.5 -27t21.5 -92q0 -96 -51 -115l54 -190h-36l-52 182h-29v-182h-36zM168 383h27q29 0 38.5 19.5t9.5 66.5q0 44 -10 64t-39 20h-26v-170z" />
    <glyph glyph-name="macron" unicode="&#xaf;" 
d="M64 624v43h144v-43h-144z" />
    <glyph glyph-name="degree" unicode="&#xb0;" horiz-adv-x="220" 
d="M110 466q-77 0 -77 140q0 141 77 141t77 -141q0 -140 -77 -140zM110 503q13 0 21 8t11.5 24.5t4.5 32t1 38.5q0 49 -7 76.5t-31 27.5t-31 -27.5t-7 -76.5q0 -23 1 -38.5t4.5 -32t11.5 -24.5t21 -8z" />
    <glyph glyph-name="twosuperior" unicode="&#xb2;" horiz-adv-x="249" 
d="M39 281v16q0 47 13.5 85t32.5 63.5t37.5 50.5t32 59t13.5 75q0 78 -40 78q-20 0 -30 -17t-15 -60l-39 5q15 110 85 110q78 0 78 -115q0 -50 -18.5 -92t-41.5 -68t-43.5 -66t-23.5 -85h130v-39h-171z" />
    <glyph glyph-name="threesuperior" unicode="&#xb3;" horiz-adv-x="289" 
d="M141 272q-73 0 -87 100l37 6q7 -40 18.5 -54t31.5 -14q26 0 35.5 24t9.5 70q0 57 -12 79t-53 22h-14v36h17q35 0 46.5 19.5t11.5 66.5q0 20 -1 32t-4.5 24.5t-12 18t-21.5 5.5q-18 0 -27 -12t-18 -43l-36 10q26 83 82 83q44 0 60.5 -30t16.5 -86q0 -43 -12 -67.5
t-40 -37.5q32 -11 44 -39.5t12 -79.5q0 -59 -21 -96t-63 -37z" />
    <glyph glyph-name="acute" unicode="&#xb4;" 
d="M111 582l52 151h52l-76 -151h-28z" />
    <glyph glyph-name="mu" unicode="&#xb5;" horiz-adv-x="316" 
d="M47 -200v725h43v-406q0 -49 7 -69t32 -20q42 0 97 72v423h43v-525h-43v57q-48 -66 -106 -66q-17 0 -30 14v-205h-43z" />
    <glyph glyph-name="paragraph" unicode="&#xb6;" horiz-adv-x="322" 
d="M138 -200v543q-107 5 -107 197q0 90 26 145t75 55h135v-940h-42v899h-45v-899h-42z" />
    <glyph glyph-name="periodcentered" unicode="&#xb7;" horiz-adv-x="162" 
d="M54 280v76h53v-76h-53z" />
    <glyph glyph-name="cedilla" unicode="&#xb8;" 
d="M156 -193q-44 0 -76 39l22 23q29 -29 56 -29q40 0 40 47q0 38 -25 38q-19 0 -30 -18l-26 10l14 83h32l-9 -54q10 13 30 13t36 -15.5t16 -51.5q0 -45 -23.5 -65t-56.5 -20z" />
    <glyph glyph-name="onesuperior" unicode="&#xb9;" horiz-adv-x="203" 
d="M51 290v38h37v362q-20 -14 -37 -15v38q27 5 39 27h38v-412h34v-38h-111z" />
    <glyph glyph-name="ordmasculine" unicode="&#xba;" horiz-adv-x="217" 
d="M109 358q-89 0 -89 194q0 195 89 195q88 0 88 -195q0 -194 -88 -194zM109 393q29 0 38.5 40.5t9.5 119.5q0 77 -9 117.5t-39 40.5t-40 -40.5t-10 -117.5t9.5 -118.5t40.5 -41.5z" />
    <glyph glyph-name="guillemotright" unicode="&#xbb;" horiz-adv-x="229" 
d="M117 0l64 262l-64 263h41l65 -263l-65 -262h-41zM17 0l64 262l-64 263h41l65 -263l-65 -262h-41z" />
    <glyph glyph-name="onequarter" unicode="&#xbc;" horiz-adv-x="505" 
d="M51 290v38h37v362q-20 -14 -37 -15v38q27 5 39 27h38v-412h34v-38h-111zM133 0l194 740h39l-193 -740h-40zM388 0v123h-112v24l115 317h37v-303h41v-38h-41v-123h-40zM319 161h69v193z" />
    <glyph glyph-name="onehalf" unicode="&#xbd;" horiz-adv-x="504" 
d="M51 290v38h37v362q-20 -14 -37 -15v38q27 5 39 27h38v-412h34v-38h-111zM128 0l194 740h39l-193 -740h-40zM307 0v16q0 47 13.5 85t32.5 63.5t37.5 50.5t32 59t13.5 75q0 78 -40 78q-20 0 -30 -17t-15 -60l-39 5q15 110 85 110q78 0 78 -115q0 -50 -18.5 -92t-41.5 -68
t-43.5 -66t-23.5 -85h130v-39h-171z" />
    <glyph glyph-name="threequarters" unicode="&#xbe;" horiz-adv-x="582" 
d="M141 272q-73 0 -87 100l37 6q7 -40 18.5 -54t31.5 -14q26 0 35.5 24t9.5 70q0 57 -12 79t-53 22h-14v36h17q35 0 46.5 19.5t11.5 66.5q0 20 -1 32t-4.5 24.5t-12 18t-21.5 5.5q-18 0 -27 -12t-18 -43l-36 10q26 83 82 83q44 0 60.5 -30t16.5 -86q0 -43 -12 -67.5
t-40 -37.5q32 -11 44 -39.5t12 -79.5q0 -59 -21 -96t-63 -37zM190 0l194 740h39l-193 -740h-40zM458 0v123h-112v24l115 317h37v-303h41v-38h-41v-123h-40zM389 161h69v193z" />
    <glyph glyph-name="questiondown" unicode="&#xbf;" horiz-adv-x="287" 
d="M133 663v77h53v-77h-53zM139 -7q-110 0 -110 154q0 25 3.5 48.5t6.5 37.5t13 37t12.5 28.5t17 31t15.5 27.5q22 43 33 83.5t11 105.5h40q0 -72 -12.5 -117t-36.5 -92q-3 -5 -14 -25.5t-14.5 -28t-11 -26.5t-10.5 -32.5t-6 -34.5t-3 -43q0 -53 13 -83.5t54 -30.5
q60 0 87 105l39 -9q-14 -61 -45.5 -98.5t-81.5 -37.5z" />
    <glyph glyph-name="Agrave" unicode="&#xc0;" horiz-adv-x="342" 
d="M23 0l129 743h39l128 -743h-45l-41 251h-125l-41 -251h-44zM115 292h111l-41 256q-9 51 -14 111h-1q-4 -57 -14 -111zM157 787l-76 151h52l52 -151h-28z" />
    <glyph glyph-name="Aacute" unicode="&#xc1;" horiz-adv-x="342" 
d="M23 0l129 743h39l128 -743h-45l-41 251h-125l-41 -251h-44zM115 292h111l-41 256q-9 51 -14 111h-1q-4 -57 -14 -111zM153 787l52 151h52l-76 -151h-28z" />
    <glyph glyph-name="Acircumflex" unicode="&#xc2;" horiz-adv-x="342" 
d="M23 0l129 743h39l128 -743h-45l-41 251h-125l-41 -251h-44zM115 292h111l-41 256q-9 51 -14 111h-1q-4 -57 -14 -111zM88 757l71 156h25l70 -156h-32l-52 90l-51 -90h-31z" />
    <glyph glyph-name="Atilde" unicode="&#xc3;" horiz-adv-x="342" 
d="M23 0l129 743h39l128 -743h-45l-41 251h-125l-41 -251h-44zM115 292h111l-41 256q-9 51 -14 111h-1q-4 -57 -14 -111zM217 786q-23 0 -52.5 28t-36.5 28q-19 0 -19 -54h-38q0 96 56 96q21 0 50 -28t39 -28q11 0 15 10.5t4 43.5h38q0 -96 -56 -96z" />
    <glyph glyph-name="Adieresis" unicode="&#xc4;" horiz-adv-x="342" 
d="M23 0l129 743h39l128 -743h-45l-41 251h-125l-41 -251h-44zM115 292h111l-41 256q-9 51 -14 111h-1q-4 -57 -14 -111zM192 787v64h48v-64h-48zM103 787v64h47v-64h-47z" />
    <glyph glyph-name="Aring" unicode="&#xc5;" horiz-adv-x="342" 
d="M147 707q-37 19 -37 90q0 46 16.5 70.5t44.5 24.5t44.5 -24.5t16.5 -70.5q0 -69 -36 -89l123 -708h-45l-41 251h-125l-41 -251h-44zM171 732q29 0 29 65t-29 65t-29 -65t29 -65zM115 292h111l-41 246q-9 51 -14 111h-1q-4 -57 -14 -111z" />
    <glyph glyph-name="AE" unicode="&#xc6;" horiz-adv-x="444" 
d="M7 0l177 740h231v-42h-159v-284h106v-42h-106v-330h171v-42h-215v251h-101l-60 -251h-44zM122 293h90v405z" />
    <glyph glyph-name="Ccedilla" unicode="&#xc7;" horiz-adv-x="339" 
d="M190 -193q-44 0 -76 39l22 23q29 -29 56 -29q40 0 40 47q0 38 -25 38q-19 0 -30 -18l-26 10l12 78q-44 8 -70.5 43t-41.5 116t-15 216q0 206 36.5 291.5t109.5 85.5q115 0 128 -223l-42 -4q-12 185 -85 185q-58 0 -80.5 -82.5t-22.5 -252.5t22.5 -252.5t81.5 -82.5
q45 0 66 47.5t27 145.5l41 -3q-10 -219 -123 -232l-7 -47q10 13 30 13t36 -15.5t16 -51.5q0 -45 -23.5 -65t-56.5 -20z" />
    <glyph glyph-name="Egrave" unicode="&#xc8;" horiz-adv-x="287" 
d="M55 0v740h203v-42h-159v-284h106v-42h-106v-330h171v-42h-215zM148 787l-76 151h52l52 -151h-28z" />
    <glyph glyph-name="Eacute" unicode="&#xc9;" horiz-adv-x="287" 
d="M55 0v740h203v-42h-159v-284h106v-42h-106v-330h171v-42h-215zM124 787l52 151h52l-76 -151h-28z" />
    <glyph glyph-name="Ecircumflex" unicode="&#xca;" horiz-adv-x="287" 
d="M55 0v740h203v-42h-159v-284h106v-42h-106v-330h171v-42h-215zM75 782l71 156h25l70 -156h-32l-52 90l-51 -90h-31z" />
    <glyph glyph-name="Edieresis" unicode="&#xcb;" horiz-adv-x="287" 
d="M55 0v740h203v-42h-159v-284h106v-42h-106v-330h171v-42h-215zM178 787v64h48v-64h-48zM89 787v64h47v-64h-47z" />
    <glyph glyph-name="Igrave" unicode="&#xcc;" horiz-adv-x="164" 
d="M60 0v740h44v-740h-44zM69 787l-76 151h52l52 -151h-28z" />
    <glyph glyph-name="Iacute" unicode="&#xcd;" horiz-adv-x="164" 
d="M60 0v740h44v-740h-44zM65 787l52 151h52l-76 -151h-28z" />
    <glyph glyph-name="Icircumflex" unicode="&#xce;" horiz-adv-x="164" 
d="M60 0v740h44v-740h-44zM-1 782l71 156h25l70 -156h-32l-52 90l-51 -90h-31z" />
    <glyph glyph-name="Idieresis" unicode="&#xcf;" horiz-adv-x="164" 
d="M60 0v740h44v-740h-44zM102 787v64h48v-64h-48zM13 787v64h47v-64h-47z" />
    <glyph glyph-name="Eth" unicode="&#xd0;" horiz-adv-x="348" 
d="M55 0v371h-46v42h46v327h81q99 0 138 -83.5t39 -286.5q0 -201 -39.5 -285.5t-137.5 -84.5h-81zM99 42h42q75 0 101.5 77.5t26.5 250.5q0 84 -5 140.5t-19 101t-40 65.5t-65 21h-41v-285h71v-42h-71v-329z" />
    <glyph glyph-name="Ntilde" unicode="&#xd1;" horiz-adv-x="359" 
d="M55 0v740h48l134 -500q22 -83 29 -123h1l-3 144v479h40v-740h-39l-149 551q-18 70 -23 105h-1l3 -126v-530h-40zM226 786q-23 0 -52.5 28t-36.5 28q-19 0 -19 -54h-38q0 96 56 96q21 0 50 -28t39 -28q11 0 15 10.5t4 43.5h38q0 -96 -56 -96z" />
    <glyph glyph-name="Ograve" unicode="&#xd2;" horiz-adv-x="372" 
d="M186 -7q-76 0 -113 89t-37 288t37 288t113 89t113 -89t37 -288t-37 -288t-113 -89zM186 35q59 0 82.5 82.5t23.5 252.5t-23.5 252.5t-82.5 82.5q-58 0 -82 -83t-24 -252t24 -252t82 -83zM185 787l-76 151h52l52 -151h-28z" />
    <glyph glyph-name="Oacute" unicode="&#xd3;" horiz-adv-x="372" 
d="M186 -7q-76 0 -113 89t-37 288t37 288t113 89t113 -89t37 -288t-37 -288t-113 -89zM186 35q59 0 82.5 82.5t23.5 252.5t-23.5 252.5t-82.5 82.5q-58 0 -82 -83t-24 -252t24 -252t82 -83zM161 787l52 151h52l-76 -151h-28z" />
    <glyph glyph-name="Ocircumflex" unicode="&#xd4;" horiz-adv-x="372" 
d="M186 -7q-76 0 -113 89t-37 288t37 288t113 89t113 -89t37 -288t-37 -288t-113 -89zM186 35q59 0 82.5 82.5t23.5 252.5t-23.5 252.5t-82.5 82.5q-58 0 -82 -83t-24 -252t24 -252t82 -83zM103 782l71 156h25l70 -156h-32l-52 90l-51 -90h-31z" />
    <glyph glyph-name="Otilde" unicode="&#xd5;" horiz-adv-x="372" 
d="M186 -7q-76 0 -113 89t-37 288t37 288t113 89t113 -89t37 -288t-37 -288t-113 -89zM186 35q59 0 82.5 82.5t23.5 252.5t-23.5 252.5t-82.5 82.5q-58 0 -82 -83t-24 -252t24 -252t82 -83zM231 786q-23 0 -52.5 28t-36.5 28q-19 0 -19 -54h-38q0 96 56 96q21 0 50 -28
t39 -28q11 0 15 10.5t4 43.5h38q0 -96 -56 -96z" />
    <glyph glyph-name="Odieresis" unicode="&#xd6;" horiz-adv-x="372" 
d="M186 -7q-76 0 -113 89t-37 288t37 288t113 89t113 -89t37 -288t-37 -288t-113 -89zM186 35q59 0 82.5 82.5t23.5 252.5t-23.5 252.5t-82.5 82.5q-58 0 -82 -83t-24 -252t24 -252t82 -83zM206 787v64h48v-64h-48zM117 787v64h47v-64h-47z" />
    <glyph glyph-name="multiply" unicode="&#xd7;" horiz-adv-x="347" 
d="M62 186l-26 26l112 112l-111 111l26 26l111 -111l110 110l26 -26l-110 -110l111 -111l-26 -26l-111 111z" />
    <glyph glyph-name="Oslash" unicode="&#xd8;" horiz-adv-x="372" 
d="M312 619q24 -89 24 -249q0 -199 -37 -288t-113 -89q-73 0 -109 80l-36 -83l-34 16l52 120q-23 90 -23 244q0 199 37 288t113 89q71 0 107 -76l38 87l34 -16zM88 189l183 426q-24 90 -85 90q-59 0 -83.5 -83.5t-24.5 -251.5q0 -111 10 -181zM283 557l-184 -427
q26 -95 87 -95q59 0 83.5 83t24.5 252q0 117 -11 187z" />
    <glyph glyph-name="Ugrave" unicode="&#xd9;" horiz-adv-x="360" 
d="M179 -7q-34 0 -58 12t-37 30.5t-20 52t-9 64t-2 78.5v510h44v-498q0 -40 0.5 -60t3 -48.5t7.5 -43t14 -29t23.5 -20.5t34.5 -6t34.5 5.5t24 19.5t15 28.5t8 42t3 49.5t0.5 60v500h42v-507q0 -49 -2 -80.5t-9.5 -65t-21 -52t-37.5 -30.5t-58 -12zM180 787l-76 151h52
l52 -151h-28z" />
    <glyph glyph-name="Uacute" unicode="&#xda;" horiz-adv-x="360" 
d="M179 -7q-34 0 -58 12t-37 30.5t-20 52t-9 64t-2 78.5v510h44v-498q0 -40 0.5 -60t3 -48.5t7.5 -43t14 -29t23.5 -20.5t34.5 -6t34.5 5.5t24 19.5t15 28.5t8 42t3 49.5t0.5 60v500h42v-507q0 -49 -2 -80.5t-9.5 -65t-21 -52t-37.5 -30.5t-58 -12zM155 787l52 151h52
l-76 -151h-28z" />
    <glyph glyph-name="Ucircumflex" unicode="&#xdb;" horiz-adv-x="360" 
d="M179 -7q-34 0 -58 12t-37 30.5t-20 52t-9 64t-2 78.5v510h44v-498q0 -40 0.5 -60t3 -48.5t7.5 -43t14 -29t23.5 -20.5t34.5 -6t34.5 5.5t24 19.5t15 28.5t8 42t3 49.5t0.5 60v500h42v-507q0 -49 -2 -80.5t-9.5 -65t-21 -52t-37.5 -30.5t-58 -12zM98 782l71 156h25
l70 -156h-32l-52 90l-51 -90h-31z" />
    <glyph glyph-name="Udieresis" unicode="&#xdc;" horiz-adv-x="360" 
d="M179 -7q-34 0 -58 12t-37 30.5t-20 52t-9 64t-2 78.5v510h44v-498q0 -40 0.5 -60t3 -48.5t7.5 -43t14 -29t23.5 -20.5t34.5 -6t34.5 5.5t24 19.5t15 28.5t8 42t3 49.5t0.5 60v500h42v-507q0 -49 -2 -80.5t-9.5 -65t-21 -52t-37.5 -30.5t-58 -12zM201 787v64h48v-64h-48z
M112 787v64h47v-64h-47z" />
    <glyph glyph-name="Yacute" unicode="&#xdd;" horiz-adv-x="299" 
d="M127 0v283l-115 457h44l66 -272q27 -116 27 -117h1q0 1 27 117l66 272h44l-116 -457v-283h-44zM128 787l52 151h52l-76 -151h-28z" />
    <glyph glyph-name="Thorn" unicode="&#xde;" horiz-adv-x="329" 
d="M55 0v740h44v-139h62q140 -2 140 -200q0 -210 -144 -210h-58v-191h-44zM99 233h60q51 0 74.5 40.5t23.5 125.5q0 82 -23.5 121t-75.5 39h-59v-326z" />
    <glyph glyph-name="germandbls" unicode="&#xdf;" horiz-adv-x="305" 
d="M194 -8q-51 0 -83 44l31 24q21 -30 51 -30t44.5 40t14.5 135q0 98 -28 143t-84 50v38q40 1 60.5 43.5t20.5 102.5q0 62 -15 89.5t-50 27.5t-50.5 -27t-15.5 -88v-584h-43v584q0 156 110 156q108 0 108 -157q0 -59 -23 -108.5t-61 -55.5q53 -8 84 -60t31 -150
q0 -110 -24 -163.5t-78 -53.5z" />
    <glyph glyph-name="agrave" unicode="&#xe0;" horiz-adv-x="288" 
d="M112 -4q-43 0 -63.5 32t-20.5 86q0 77 44 139.5t127 97.5v60q0 81 -48 81q-29 0 -46 -20t-30 -56l-37 13q20 54 48 78.5t68 24.5q47 0 67 -31t20 -97v-274q0 -94 8 -130h-43q-6 27 -6 55q-37 -59 -88 -59zM117 36q22 0 45 20.5t37 45.5v207q-63 -25 -96 -80.5t-33 -114.5
q0 -78 47 -78zM143 582l-76 151h52l52 -151h-28z" />
    <glyph glyph-name="aacute" unicode="&#xe1;" horiz-adv-x="288" 
d="M112 -4q-43 0 -63.5 32t-20.5 86q0 77 44 139.5t127 97.5v60q0 81 -48 81q-29 0 -46 -20t-30 -56l-37 13q20 54 48 78.5t68 24.5q47 0 67 -31t20 -97v-274q0 -94 8 -130h-43q-6 27 -6 55q-37 -59 -88 -59zM117 36q22 0 45 20.5t37 45.5v207q-63 -25 -96 -80.5t-33 -114.5
q0 -78 47 -78zM119 582l52 151h52l-76 -151h-28z" />
    <glyph glyph-name="acircumflex" unicode="&#xe2;" horiz-adv-x="288" 
d="M112 -4q-43 0 -63.5 32t-20.5 86q0 77 44 139.5t127 97.5v60q0 81 -48 81q-29 0 -46 -20t-30 -56l-37 13q20 54 48 78.5t68 24.5q47 0 67 -31t20 -97v-274q0 -94 8 -130h-43q-6 27 -6 55q-37 -59 -88 -59zM117 36q22 0 45 20.5t37 45.5v207q-63 -25 -96 -80.5t-33 -114.5
q0 -78 47 -78zM61 577l71 156h25l70 -156h-32l-52 90l-51 -90h-31z" />
    <glyph glyph-name="atilde" unicode="&#xe3;" horiz-adv-x="288" 
d="M112 -4q-43 0 -63.5 32t-20.5 86q0 77 44 139.5t127 97.5v60q0 81 -48 81q-29 0 -46 -20t-30 -56l-37 13q20 54 48 78.5t68 24.5q47 0 67 -31t20 -97v-274q0 -94 8 -130h-43q-6 27 -6 55q-37 -59 -88 -59zM117 36q22 0 45 20.5t37 45.5v207q-63 -25 -96 -80.5t-33 -114.5
q0 -78 47 -78zM189 581q-23 0 -52.5 28t-36.5 28q-19 0 -19 -54h-38q0 96 56 96q21 0 50 -28t39 -28q11 0 15 10.5t4 43.5h38q0 -96 -56 -96z" />
    <glyph glyph-name="adieresis" unicode="&#xe4;" horiz-adv-x="288" 
d="M112 -4q-43 0 -63.5 32t-20.5 86q0 77 44 139.5t127 97.5v60q0 81 -48 81q-29 0 -46 -20t-30 -56l-37 13q20 54 48 78.5t68 24.5q47 0 67 -31t20 -97v-274q0 -94 8 -130h-43q-6 27 -6 55q-37 -59 -88 -59zM117 36q22 0 45 20.5t37 45.5v207q-63 -25 -96 -80.5t-33 -114.5
q0 -78 47 -78zM164 582v64h48v-64h-48zM75 582v64h47v-64h-47z" />
    <glyph glyph-name="aring" unicode="&#xe5;" horiz-adv-x="288" 
d="M112 -4q-43 0 -63.5 32t-20.5 86q0 77 44 139.5t127 97.5v60q0 81 -48 81q-29 0 -46 -20t-30 -56l-37 13q20 54 48 78.5t68 24.5q47 0 67 -31t20 -97v-274q0 -94 8 -130h-43q-6 27 -6 55q-37 -59 -88 -59zM117 36q22 0 45 20.5t37 45.5v207q-63 -25 -96 -80.5t-33 -114.5
q0 -78 47 -78zM149 570q-28 0 -44.5 24.5t-16.5 70.5t16.5 70.5t44.5 24.5t44.5 -24.5t16.5 -70.5t-16.5 -70.5t-44.5 -24.5zM149 600q29 0 29 65t-29 65t-29 -65t29 -65z" />
    <glyph glyph-name="ae" unicode="&#xe6;" horiz-adv-x="462" 
d="M221 71q-50 -75 -109 -75q-43 0 -63.5 32t-20.5 86q0 77 44 139.5t127 97.5v60q0 81 -48 81q-29 0 -46 -20t-30 -56l-37 13q20 54 48 78.5t68 24.5q63 0 79 -61q26 61 86 61q35 0 58.5 -22t34.5 -63t15 -83t4 -97v-5h-189q0 -118 16.5 -173.5t61.5 -55.5q33 0 46.5 24.5
t22.5 86.5l38 -4q-17 -147 -109 -147q-70 0 -97 78zM242 300h145q-2 192 -68 192q-40 0 -55.5 -43.5t-21.5 -148.5zM200 310q-62 -25 -96 -81.5t-34 -114.5q0 -78 47 -78q25 0 50.5 22t42.5 56q-11 61 -11 148q0 33 1 48z" />
    <glyph glyph-name="ccedilla" unicode="&#xe7;" horiz-adv-x="271" 
d="M156 -189q-44 0 -76 39l22 23q29 -29 56 -29q40 0 40 47q0 38 -25 38q-19 0 -30 -18l-26 10l13 74q-99 19 -99 267q0 139 28 204.5t91 65.5q47 0 70 -37t34 -116l-40 -7q-10 63 -22.5 91.5t-43.5 28.5q-42 0 -58 -59t-16 -170q0 -52 2.5 -88.5t10 -71.5t23.5 -52.5
t40 -17.5q30 0 43.5 28.5t22.5 92.5l38 -4q-10 -76 -32.5 -113.5t-60.5 -42.5l-7 -44q10 13 30 13t36 -15.5t16 -51.5q0 -45 -23.5 -65t-56.5 -20z" />
    <glyph glyph-name="egrave" unicode="&#xe8;" horiz-adv-x="294" 
d="M150 -7q-63 0 -91 64.5t-28 204.5q0 141 28 205.5t92 64.5q35 0 58.5 -22t34.5 -63t15 -82.5t4 -97.5v-5h-189q0 -118 16.5 -173.5t61.5 -55.5q33 0 46.5 24.5t22.5 86.5l38 -4q-17 -147 -109 -147zM74 300h145q-1 91 -15.5 141.5t-52.5 50.5q-40 0 -55.5 -43.5
t-21.5 -148.5zM146 582l-76 151h52l52 -151h-28z" />
    <glyph glyph-name="eacute" unicode="&#xe9;" horiz-adv-x="294" 
d="M150 -7q-63 0 -91 64.5t-28 204.5q0 141 28 205.5t92 64.5q35 0 58.5 -22t34.5 -63t15 -82.5t4 -97.5v-5h-189q0 -118 16.5 -173.5t61.5 -55.5q33 0 46.5 24.5t22.5 86.5l38 -4q-17 -147 -109 -147zM74 300h145q-1 91 -15.5 141.5t-52.5 50.5q-40 0 -55.5 -43.5
t-21.5 -148.5zM123 582l52 151h52l-76 -151h-28z" />
    <glyph glyph-name="ecircumflex" unicode="&#xea;" horiz-adv-x="294" 
d="M150 -7q-63 0 -91 64.5t-28 204.5q0 141 28 205.5t92 64.5q35 0 58.5 -22t34.5 -63t15 -82.5t4 -97.5v-5h-189q0 -118 16.5 -173.5t61.5 -55.5q33 0 46.5 24.5t22.5 86.5l38 -4q-17 -147 -109 -147zM74 300h145q-1 91 -15.5 141.5t-52.5 50.5q-40 0 -55.5 -43.5
t-21.5 -148.5zM64 577l71 156h25l70 -156h-32l-52 90l-51 -90h-31z" />
    <glyph glyph-name="edieresis" unicode="&#xeb;" horiz-adv-x="294" 
d="M150 -7q-63 0 -91 64.5t-28 204.5q0 141 28 205.5t92 64.5q35 0 58.5 -22t34.5 -63t15 -82.5t4 -97.5v-5h-189q0 -118 16.5 -173.5t61.5 -55.5q33 0 46.5 24.5t22.5 86.5l38 -4q-17 -147 -109 -147zM74 300h145q-1 91 -15.5 141.5t-52.5 50.5q-40 0 -55.5 -43.5
t-21.5 -148.5zM167 582v64h48v-64h-48zM78 582v64h47v-64h-47z" />
    <glyph glyph-name="igrave" unicode="&#xec;" horiz-adv-x="153" 
d="M55 0v525h43v-525h-43zM65 582l-76 151h52l52 -151h-28z" />
    <glyph glyph-name="iacute" unicode="&#xed;" horiz-adv-x="153" 
d="M55 0v525h43v-525h-43zM61 582l52 151h52l-76 -151h-28z" />
    <glyph glyph-name="icircumflex" unicode="&#xee;" horiz-adv-x="153" 
d="M55 0v525h43v-525h-43zM-6 577l71 156h25l70 -156h-32l-52 90l-51 -90h-31z" />
    <glyph glyph-name="idieresis" unicode="&#xef;" horiz-adv-x="153" 
d="M55 0v525h43v-525h-43zM97 582v64h48v-64h-48zM8 582v64h47v-64h-47z" />
    <glyph glyph-name="eth" unicode="&#xf0;" horiz-adv-x="302" 
d="M151 -7q-63 0 -91.5 66t-28.5 203q0 139 28 204.5t92 65.5q33 0 53 -19t30 -63q-19 110 -50 174l-43 -31l-22 31l47 33q-16 29 -43 61l29 24q27 -32 46 -62l49 35l22 -31l-52 -37q34 -67 44 -141t10 -194q0 -176 -27.5 -247.5t-92.5 -71.5zM151 33q44 0 60 58.5t16 171.5
q0 109 -15 169t-61 60q-45 0 -61 -59t-16 -170q0 -110 15.5 -170t61.5 -60z" />
    <glyph glyph-name="ntilde" unicode="&#xf1;" horiz-adv-x="313" 
d="M47 0v525h43v-62q51 69 106 69q38 0 55.5 -28.5t17.5 -97.5v-406h-43v402q0 49 -7 69t-32 20q-42 0 -97 -72v-419h-43zM201 581q-23 0 -52.5 28t-36.5 28q-19 0 -19 -54h-38q0 96 56 96q21 0 50 -28t39 -28q11 0 15 10.5t4 43.5h38q0 -96 -56 -96z" />
    <glyph glyph-name="ograve" unicode="&#xf2;" horiz-adv-x="302" 
d="M151 -7q-63 0 -91.5 66t-28.5 203q0 139 28 204.5t92 65.5t92 -65.5t28 -204.5q0 -137 -28.5 -203t-91.5 -66zM151 33q44 0 60 58.5t16 171.5q0 109 -15 169t-61 60q-45 0 -61 -59t-16 -170q0 -110 15.5 -170t61.5 -60zM151 582l-76 151h52l52 -151h-28z" />
    <glyph glyph-name="oacute" unicode="&#xf3;" horiz-adv-x="302" 
d="M151 -7q-63 0 -91.5 66t-28.5 203q0 139 28 204.5t92 65.5t92 -65.5t28 -204.5q0 -137 -28.5 -203t-91.5 -66zM151 33q44 0 60 58.5t16 171.5q0 109 -15 169t-61 60q-45 0 -61 -59t-16 -170q0 -110 15.5 -170t61.5 -60zM127 582l52 151h52l-76 -151h-28z" />
    <glyph glyph-name="ocircumflex" unicode="&#xf4;" horiz-adv-x="302" 
d="M151 -7q-63 0 -91.5 66t-28.5 203q0 139 28 204.5t92 65.5t92 -65.5t28 -204.5q0 -137 -28.5 -203t-91.5 -66zM151 33q44 0 60 58.5t16 171.5q0 109 -15 169t-61 60q-45 0 -61 -59t-16 -170q0 -110 15.5 -170t61.5 -60zM69 577l71 156h25l70 -156h-32l-52 90l-51 -90h-31
z" />
    <glyph glyph-name="otilde" unicode="&#xf5;" horiz-adv-x="302" 
d="M151 -7q-63 0 -91.5 66t-28.5 203q0 139 28 204.5t92 65.5t92 -65.5t28 -204.5q0 -137 -28.5 -203t-91.5 -66zM151 33q44 0 60 58.5t16 171.5q0 109 -15 169t-61 60q-45 0 -61 -59t-16 -170q0 -110 15.5 -170t61.5 -60zM197 581q-23 0 -52.5 28t-36.5 28q-19 0 -19 -54
h-38q0 96 56 96q21 0 50 -28t39 -28q11 0 15 10.5t4 43.5h38q0 -96 -56 -96z" />
    <glyph glyph-name="odieresis" unicode="&#xf6;" horiz-adv-x="302" 
d="M151 -7q-63 0 -91.5 66t-28.5 203q0 139 28 204.5t92 65.5t92 -65.5t28 -204.5q0 -137 -28.5 -203t-91.5 -66zM151 33q44 0 60 58.5t16 171.5q0 109 -15 169t-61 60q-45 0 -61 -59t-16 -170q0 -110 15.5 -170t61.5 -60zM172 582v64h48v-64h-48zM83 582v64h47v-64h-47z
" />
    <glyph glyph-name="divide" unicode="&#xf7;" horiz-adv-x="347" 
d="M147 473v73h51v-73h-51zM37 305v39h273v-39h-273zM147 103v72h51v-72h-51z" />
    <glyph glyph-name="oslash" unicode="&#xf8;" horiz-adv-x="302" 
d="M250 447q21 -66 21 -185q0 -137 -28.5 -203t-91.5 -66q-49 0 -78 41l-25 -57l-34 16l37 87q-20 68 -20 182q0 139 28 204.5t92 65.5q50 0 78 -40l24 56l34 -16zM79 138l130 304q-19 51 -58 51q-45 0 -62 -60t-17 -170q0 -82 7 -125zM222 387l-130 -304q19 -51 59 -51
q45 0 61.5 59.5t16.5 171.5q0 81 -7 124z" />
    <glyph glyph-name="ugrave" unicode="&#xf9;" horiz-adv-x="313" 
d="M117 -5q-38 0 -55.5 28.5t-17.5 97.5v404h43v-400q0 -49 7 -69t32 -20q42 0 97 72v417h43v-525h-43v63q-50 -68 -106 -68zM156 582l-76 151h52l52 -151h-28z" />
    <glyph glyph-name="uacute" unicode="&#xfa;" horiz-adv-x="313" 
d="M117 -5q-38 0 -55.5 28.5t-17.5 97.5v404h43v-400q0 -49 7 -69t32 -20q42 0 97 72v417h43v-525h-43v63q-50 -68 -106 -68zM131 582l52 151h52l-76 -151h-28z" />
    <glyph glyph-name="ucircumflex" unicode="&#xfb;" horiz-adv-x="313" 
d="M117 -5q-38 0 -55.5 28.5t-17.5 97.5v404h43v-400q0 -49 7 -69t32 -20q42 0 97 72v417h43v-525h-43v63q-50 -68 -106 -68zM73 577l71 156h25l70 -156h-32l-52 90l-51 -90h-31z" />
    <glyph glyph-name="udieresis" unicode="&#xfc;" horiz-adv-x="313" 
d="M117 -5q-38 0 -55.5 28.5t-17.5 97.5v404h43v-400q0 -49 7 -69t32 -20q42 0 97 72v417h43v-525h-43v63q-50 -68 -106 -68zM176 582v64h48v-64h-48zM87 582v64h47v-64h-47z" />
    <glyph glyph-name="yacute" unicode="&#xfd;" horiz-adv-x="276" 
d="M43 -200q-19 0 -43 11l19 38q12 -7 25 -7q23 0 31.5 17t21.5 80l18 88l-100 498h45l55 -293q12 -63 21 -121h2q2 13 5.5 32.5t9 47t8.5 45.5l56 289h44l-124 -597q-16 -78 -35 -103t-59 -25zM116 582l52 151h52l-76 -151h-28z" />
    <glyph glyph-name="thorn" unicode="&#xfe;" horiz-adv-x="310" 
d="M47 -200v940h43v-271q33 63 83 63q53 0 79.5 -60.5t26.5 -208.5t-27 -208.5t-80 -60.5q-54 0 -82 63v-257h-43zM166 35q38 0 54 52.5t16 174.5q0 121 -16.5 175t-54.5 54t-75 -71v-312q40 -73 76 -73z" />
    <glyph glyph-name="ydieresis" unicode="&#xff;" horiz-adv-x="276" 
d="M43 -200q-19 0 -43 11l19 38q12 -7 25 -7q23 0 31.5 17t21.5 80l18 88l-100 498h45l55 -293q12 -63 21 -121h2q2 13 5.5 32.5t9 47t8.5 45.5l56 289h44l-124 -597q-16 -78 -35 -103t-59 -25zM161 582v64h48v-64h-48zM72 582v64h47v-64h-47z" />
    <glyph glyph-name="dotlessi" unicode="&#x131;" horiz-adv-x="153" 
d="M55 0v525h43v-525h-43z" />
    <glyph glyph-name="Lslash" unicode="&#x141;" horiz-adv-x="273" 
d="M55 0v331l-46 -24v42l46 24v367h44v-344l71 37v-42l-71 -37v-311h164v-43h-208z" />
    <glyph glyph-name="lslash" unicode="&#x142;" horiz-adv-x="193" 
d="M75 0v338l-59 -31v42l59 31v360h43v-338l59 31v-42l-59 -31v-360h-43z" />
    <glyph glyph-name="OE" unicode="&#x152;" horiz-adv-x="524" 
d="M295 659v81h200v-42h-159v-284h106v-42h-106v-330h171v-42h-212v81q-33 -88 -109 -88t-113 89t-37 288t37 288t113 89t109 -88zM186 35q59 0 82.5 82.5t23.5 252.5t-23.5 252.5t-82.5 82.5q-58 0 -82 -83t-24 -252t24 -252t82 -83z" />
    <glyph glyph-name="oe" unicode="&#x153;" horiz-adv-x="489" 
d="M151 -7q-63 0 -91.5 66t-28.5 203q0 139 28 204.5t92 65.5q71 0 97 -83q25 83 98 83q35 0 58.5 -22t34.5 -63t15 -83t4 -97v-5h-189q0 -118 16.5 -173.5t61.5 -55.5q33 0 46.5 24.5t22.5 86.5l38 -4q-17 -147 -109 -147q-71 0 -97 83q-26 -83 -97 -83zM269 300h145
q-2 192 -68 192q-40 0 -55.5 -43.5t-21.5 -148.5zM151 33q44 0 60 58.5t16 171.5q0 109 -15 169t-61 60q-45 0 -61 -59t-16 -170q0 -110 15.5 -170t61.5 -60z" />
    <glyph glyph-name="Scaron" unicode="&#x160;" horiz-adv-x="318" 
d="M163 -7q-62 0 -93 45.5t-46 140.5l41 7q12 -79 35 -115t64 -36q84 0 84 111q0 39 -17.5 80.5t-31 61t-52.5 71.5q-2 3 -17.5 23.5t-18.5 25t-16 23t-16.5 26t-12.5 24.5t-12 28t-8 27t-6.5 31t-1.5 31q0 70 32 109.5t83 39.5q57 0 85 -40.5t46 -124.5l-42 -9
q-14 72 -34.5 102t-56.5 30q-69 0 -69 -105q0 -39 14.5 -78t30.5 -63t46 -64q7 -9 10 -13q64 -84 83 -123q26 -55 26 -113q0 -75 -35.5 -114t-93.5 -39zM146 782l-70 156h32l52 -90l51 90h31l-71 -156h-25z" />
    <glyph glyph-name="scaron" unicode="&#x161;" 
d="M137 -9q-47 0 -77.5 26t-51.5 81l38 14q30 -81 91 -81q62 0 62 76q0 25 -12 52t-24.5 43.5t-38.5 47.5q-30 37 -44.5 56t-30 53t-15.5 66q0 48 28.5 78.5t73.5 30.5q41 0 66 -24.5t43 -74.5l-38 -14q-13 36 -29 54.5t-42 18.5t-42 -19.5t-16 -49.5q0 -27 14.5 -56.5
t24.5 -42.5t40 -48q28 -34 43.5 -56t29 -53.5t13.5 -61.5q0 -52 -27.5 -84t-78.5 -32zM123 577l-70 156h32l52 -90l51 90h31l-71 -156h-25z" />
    <glyph glyph-name="Ydieresis" unicode="&#x178;" horiz-adv-x="299" 
d="M127 0v283l-115 457h44l66 -272q27 -116 27 -117h1q0 1 27 117l66 272h44l-116 -457v-283h-44zM174 787v64h48v-64h-48zM85 787v64h47v-64h-47z" />
    <glyph glyph-name="Zcaron" unicode="&#x17d;" horiz-adv-x="307" 
d="M26 0v35l205 663h-189v42h235v-36l-205 -663h205v-41h-251zM141 782l-70 156h32l52 -90l51 90h31l-71 -156h-25z" />
    <glyph glyph-name="zcaron" unicode="&#x17e;" horiz-adv-x="253" 
d="M25 0v31l151 454h-136v40h180v-31l-151 -454h157v-40h-201zM113 577l-70 156h32l52 -90l51 90h31l-71 -156h-25z" />
    <glyph glyph-name="florin" unicode="&#x192;" horiz-adv-x="216" 
d="M-72 -199l6 43q5 -1 18 -1q24 0 38.5 12.5t19.5 47.5l62 447h-51l6 42h51l34 242q9 64 36.5 85t68.5 21h20l-6 -43q-5 1 -18 1q-24 0 -38.5 -12.5t-19.5 -47.5l-34 -246h63l-6 -42h-63l-62 -443q-5 -35 -15.5 -58t-26.5 -32.5t-29.5 -12.5t-33.5 -3h-20z" />
    <glyph glyph-name="circumflex" unicode="&#x2c6;" 
d="M53 577l71 156h25l70 -156h-32l-52 90l-51 -90h-31z" />
    <glyph glyph-name="caron" unicode="&#x2c7;" 
d="M123 577l-70 156h32l52 -90l51 90h31l-71 -156h-25z" />
    <glyph glyph-name="breve" unicode="&#x2d8;" 
d="M136 579q-38 0 -57 32t-21 103h35q4 -58 13 -77t30 -19q20 0 29 19t13 77h35q-2 -72 -21 -103.5t-56 -31.5z" />
    <glyph glyph-name="dotaccent" unicode="&#x2d9;" 
d="M111 582v66h53v-66h-53z" />
    <glyph glyph-name="ring" unicode="&#x2da;" horiz-adv-x="295" 
d="M153 571q-28 0 -44.5 24.5t-16.5 70.5t16.5 70.5t44.5 24.5t44.5 -24.5t16.5 -70.5t-16.5 -70.5t-44.5 -24.5zM153 601q29 0 29 65t-29 65t-29 -65t29 -65z" />
    <glyph glyph-name="ogonek" unicode="&#x2db;" 
d="M145 -187q-32 0 -49 20.5t-17 56.5q0 60 50 110h23q-37 -46 -37 -103q0 -52 36 -52q21 0 46 20l16 -19q-33 -33 -68 -33z" />
    <glyph glyph-name="tilde" unicode="&#x2dc;" 
d="M181 581q-23 0 -52.5 28t-36.5 28q-19 0 -19 -54h-38q0 96 56 96q21 0 50 -28t39 -28q11 0 15 10.5t4 43.5h38q0 -96 -56 -96z" />
    <glyph glyph-name="hungarumlaut" unicode="&#x2dd;" 
d="M125 582l51 151h55l-76 -151h-30zM41 582l51 151h55l-76 -151h-30z" />
    <glyph glyph-name="endash" unicode="&#x2013;" horiz-adv-x="344" 
d="M40 297v39h264v-39h-264z" />
    <glyph glyph-name="emdash" unicode="&#x2014;" horiz-adv-x="444" 
d="M40 297v39h364v-39h-364z" />
    <glyph glyph-name="quoteleft" unicode="&#x2018;" horiz-adv-x="164" 
d="M56 568v70l29 102h20l-20 -96h24v-76h-53z" />
    <glyph glyph-name="quoteright" unicode="&#x2019;" horiz-adv-x="164" 
d="M59 568l20 96h-24v76h53v-70l-29 -102h-20z" />
    <glyph glyph-name="quotesinglbase" unicode="&#x201a;" horiz-adv-x="164" 
d="M59 -96l20 96h-24v76h53v-70l-29 -102h-20z" />
    <glyph glyph-name="quotedblleft" unicode="&#x201c;" horiz-adv-x="270" 
d="M161 568v70l29 102h20l-20 -96h24v-76h-53zM56 568v70l29 102h20l-20 -96h24v-76h-53z" />
    <glyph glyph-name="quotedblright" unicode="&#x201d;" horiz-adv-x="269" 
d="M164 568l20 96h-24v76h53v-70l-29 -102h-20zM59 568l20 96h-24v76h53v-70l-29 -102h-20z" />
    <glyph glyph-name="quotedblbase" unicode="&#x201e;" horiz-adv-x="269" 
d="M173 -96l19 96h-23v76h52v-70l-28 -102h-20zM51 -96l20 96h-24v76h53v-70l-29 -102h-20z" />
    <glyph glyph-name="dagger" unicode="&#x2020;" horiz-adv-x="296" 
d="M124 -200l9 638l-104 -9v46l104 -10l-9 275h46l-7 -275l103 10v-46l-103 9l7 -638h-46z" />
    <glyph glyph-name="daggerdbl" unicode="&#x2021;" horiz-adv-x="294" 
d="M124 -200l8 249l-103 -10v45l103 -9l-6 198l6 193l-103 -9v45l103 -10l-8 248h46l-8 -248l102 10v-45l-102 9l6 -193l-6 -198l102 9v-45l-102 10l8 -249h-46z" />
    <glyph glyph-name="bullet" unicode="&#x2022;" horiz-adv-x="283" 
d="M142 237q-39 0 -65 32t-26 81t26 81.5t65 32.5t64.5 -32.5t25.5 -81.5t-25.5 -81t-64.5 -32z" />
    <glyph glyph-name="ellipsis" unicode="&#x2026;" horiz-adv-x="449" 
d="M341 0v76h52v-76h-52zM198 0v76h53v-76h-53zM55 0v76h53v-76h-53z" />
    <glyph glyph-name="perthousand" unicode="&#x2030;" horiz-adv-x="717" 
d="M122 313q-27 0 -45 16t-26.5 48.5t-11.5 67.5t-3 85t3 85t11.5 67.5t26.5 48.5t45 16t45 -16t26.5 -48.5t11.5 -67.5t3 -85t-3 -85t-11.5 -67.5t-26.5 -48.5t-45 -16zM113 0l243 740h39l-243 -740h-39zM595 -7q-27 0 -45 16t-26.5 48.5t-11.5 67.5t-3 85t3 85t11.5 67.5
t26.5 48.5t45 16t45 -16t26.5 -48.5t11.5 -67.5t3 -85t-3 -85t-11.5 -67.5t-26.5 -48.5t-45 -16zM385 -7q-27 0 -45 16t-26.5 48.5t-11.5 67.5t-3 85t3 85t11.5 67.5t26.5 48.5t45 16t45 -16t26.5 -48.5t11.5 -67.5t3 -85t-3 -85t-11.5 -67.5t-26.5 -48.5t-45 -16zM122 353
q28 0 36 43.5t8 133.5t-8 133.5t-36 43.5t-36 -43.5t-8 -133.5t8 -133.5t36 -43.5zM595 33q28 0 36 43.5t8 133.5t-8 133.5t-36 43.5t-36 -43.5t-8 -133.5t8 -133.5t36 -43.5zM385 33q28 0 36 43.5t8 133.5t-8 133.5t-36 43.5t-36 -43.5t-8 -133.5t8 -133.5t36 -43.5z" />
    <glyph glyph-name="guilsinglleft" unicode="&#x2039;" horiz-adv-x="129" 
d="M71 0l-65 263l65 262h41l-64 -262l64 -263h-41z" />
    <glyph glyph-name="guilsinglright" unicode="&#x203a;" horiz-adv-x="129" 
d="M17 0l64 262l-64 263h41l65 -263l-65 -262h-41z" />
    <glyph glyph-name="fraction" unicode="&#x2044;" horiz-adv-x="221" 
d="M-8 0l194 740h43l-194 -740h-43z" />
    <glyph glyph-name="Euro" unicode="&#x20ac;" horiz-adv-x="348" 
d="M193 -9q-68 0 -103 64t-43 217h-48v42h47q-1 17 -1 112h-46v42h48q9 152 44 216.5t100 64.5q52 0 83 -41.5t44 -143.5l-41 -6q-11 83 -31 117t-54 34q-91 0 -102 -241h99v-42h-101v-112h101v-42h-99q6 -125 30 -182.5t73 -57.5q42 0 62.5 38.5t31.5 119.5l41 -4
q-10 -92 -41 -143.5t-94 -51.5z" />
    <glyph glyph-name="recordright" unicode="&#x2117;" horiz-adv-x="403" 
d="M202 -14q-57 0 -96.5 52.5t-57.5 137.5t-18 194t18 194t57.5 137.5t96.5 52.5q84 0 127.5 -107.5t43.5 -276.5t-43.5 -276.5t-127.5 -107.5zM202 20q68 0 104 98.5t36 251.5t-36 251.5t-104 98.5t-104 -98.5t-36 -251.5t36 -251.5t104 -98.5zM137 165v424h65
q47 0 66 -31.5t19 -90.5q0 -124 -89 -124h-25v-178h-36zM173 379h27q28 0 38.5 20t10.5 67q0 27 -2.5 43t-14 30t-33.5 14h-26v-174z" />
    <glyph glyph-name="trademark" unicode="&#x2122;" horiz-adv-x="449" 
d="M193 288v452h41l65 -372l65 372h42v-452h-39v293l-50 -293h-36l-51 298v-298h-37zM78 288v413h-64v39h169v-39h-64v-413h-41z" />
    <glyph glyph-name="minus" unicode="&#x2212;" horiz-adv-x="347" 
d="M37 305v39h273v-39h-273z" />
    <glyph glyph-name="radical" unicode="&#x221a;" horiz-adv-x="289" 
d="M101 -2l-86 527h44l49 -321q12 -76 18 -144h2q4 47 19 146l84 533h44l-121 -741h-53z" />
    <glyph glyph-name="registered.alt" unicode="&#xe000;" horiz-adv-x="280" 
d="M141 287q-52 0 -79.5 65.5t-27.5 167.5q0 103 27.5 168.5t79.5 65.5q51 0 78 -65.5t27 -168.5q0 -102 -27 -167.5t-78 -65.5zM141 313q40 0 60.5 58t20.5 149t-20.5 149t-60.5 58t-60.5 -58t-20.5 -149t20.5 -149t60.5 -58zM96 394v261h41q27 0 41 -17t14 -58
q0 -56 -30 -71l33 -115l-28 1l-31 109h-13v-110h-27zM123 531h13q16 0 21 11t5 38q0 25 -5 36t-21 11h-13v-96z" />
    <glyph glyph-name="fl" unicode="&#xfb02;" horiz-adv-x="346" 
d="M248 0v740h43v-740h-43zM70 0v485h-51v40h51v111q0 57 28 80.5t69 23.5h14v-40h-18q-50 0 -50 -60v-115h64v-40h-64v-485h-43z" />
    </font>
</defs>
</svg>
